<svg id="ba61c4cc-d3b4-4e19-af6a-0077edb78a01" data-name="Camada 1" xmlns="http://www.w3.org/2000/svg" width="398" height="29.7" viewBox="0 0 398 29.7"><defs><style>.b7369dd8-4b3f-4fbd-ab69-4cc7c2cfce36,.e288fe78-f998-4a24-a3bb-e33de91f5b3d{fill:none;stroke:#fff;stroke-miterlimit:10;stroke-width:2px;}.a80c00b9-f473-48e3-b7d0-c84550e3d0a7,.e288fe78-f998-4a24-a3bb-e33de91f5b3d{opacity:0.2;}.ee6f9061-a917-40c4-a223-745ca64b3dc2{font-size:9px;font-family:ArialMT, Arial;}.a06d1c96-7066-4ec2-aded-cf26c76fd29e,.ee6f9061-a917-40c4-a223-745ca64b3dc2{fill:#fff;}</style></defs><title>etapas-carrinho</title><line class="e288fe78-f998-4a24-a3bb-e33de91f5b3d" x1="29.4" y1="7" x2="187.4" y2="7"/><text class="ee6f9061-a917-40c4-a223-745ca64b3dc2" transform="translate(0 26.8)">Carrinho</text><text class="ee6f9061-a917-40c4-a223-745ca64b3dc2" transform="translate(152 26.8)">Finalização de compra</text><text class="ee6f9061-a917-40c4-a223-745ca64b3dc2" transform="translate(361 26.8)">Obrigado</text><g class="a80c00b9-f473-48e3-b7d0-c84550e3d0a7"><path class="a06d1c96-7066-4ec2-aded-cf26c76fd29e" d="M383.3,24.6h-1.7a7.5,7.5,0,0,1-4.2-2.2,7.4,7.4,0,0,1-2.3-6.3,7,7,0,0,1,1.9-4.3,8,8,0,0,1,9.8-1.6,8,8,0,0,1,3.7,5.4,2.8,2.8,0,0,0,.1.9v.9c-.1.1,0,.2-.1.3a7.3,7.3,0,0,1-1.9,4.4,8.4,8.4,0,0,1-4.5,2.5Zm-1.7-3.9a.9.9,0,0,0,.8-.4l4.8-4.8h.2a1.1,1.1,0,0,0-.6-1.7.9.9,0,0,0-1.1.3l-4,3.9c-.1.1-.1.1-.2,0L380,16.4a2,2,0,0,0-.8-.4,1.3,1.3,0,0,0-1.1.6,1.1,1.1,0,0,0,.3,1.3l2.4,2.4A.9.9,0,0,0,381.6,20.7Z" transform="translate(-1.6 -9)"/></g><line class="e288fe78-f998-4a24-a3bb-e33de91f5b3d" x1="392.4" y1="7" x2="397.4" y2="7"/><line class="b7369dd8-4b3f-4fbd-ab69-4cc7c2cfce36" x1="0.4" y1="7" x2="6.4" y2="7"/><path class="a06d1c96-7066-4ec2-aded-cf26c76fd29e" d="M11.2,17.2v-.7a1.1,1.1,0,0,0,.1-.5,7.7,7.7,0,0,1,.8-2.7A7.8,7.8,0,0,1,15.3,10a7,7,0,0,1,2.9-.9h1.3l1.5.2a7.3,7.3,0,0,1,4.9,4,6.1,6.1,0,0,1,.8,2.7.7.7,0,0,1,.1.5v.6h0L26.5,19a7.7,7.7,0,0,1-4.3,4.9,5.7,5.7,0,0,1-2.5.6H18a5.9,5.9,0,0,1-1.9-.5,7.8,7.8,0,0,1-4.2-4,7.6,7.6,0,0,1-.6-2.5A.4.4,0,0,0,11.2,17.2Zm8.2,2.2h3c.2,0,.3-.1.4-.3a.6.6,0,0,0-.2-.5H17.1c-.1,0-.1,0,0-.1V18c0-.1.1-.1.2-.1h5.4a.7.7,0,0,0,.5-.4l.3-1.9c0-.1.1-.2.1-.4a.5.5,0,0,0-.5-.4l-1.4-.2-1.6-.2-1.7-.2H16.9a1.7,1.7,0,0,1-.1-.7c0-.2-.1-.3-.3-.4l-1.4-.4h-.2a.4.4,0,0,0-.4.4.5.5,0,0,0,.3.5l1,.3c.1,0,.1,0,.1.1a1.7,1.7,0,0,0,.1.7c.1,1,.1,1.9.2,2.8s.1.2.1.3L16,18.9c0,.2,0,.3.2.4l.3.2Zm-2.2,1.8a.7.7,0,0,0,.7-.8.7.7,0,1,0-1.4,0A.7.7,0,0,0,17.2,21.2Zm4.3,0a.7.7,0,0,0,.7-.8.7.7,0,0,0-1.4,0A.7.7,0,0,0,21.5,21.2Z" transform="translate(-1.6 -9)"/><g class="a80c00b9-f473-48e3-b7d0-c84550e3d0a7"><path class="a06d1c96-7066-4ec2-aded-cf26c76fd29e" d="M207.8,16.4v.9h0a8.5,8.5,0,0,1-.9,3.1,7.9,7.9,0,0,1-5.5,4h-1.9a8.5,8.5,0,0,1-3.1-.9,7.8,7.8,0,0,1-4.1-6.6,7.5,7.5,0,0,1,1.1-4.3,7.4,7.4,0,0,1,6.3-3.7,6.3,6.3,0,0,1,3.6.7,7.4,7.4,0,0,1,4.4,5.7A2.8,2.8,0,0,1,207.8,16.4Zm-7.8-.3h-4.2c-.2,0-.2.1-.2.2v2.6c0,.3.1.4.4.5s.2,0,.3,0h7.5s.1.1.1,0a.5.5,0,0,0,.6-.6V16.3c0-.1,0-.2-.2-.2Zm0-.8h4.3c.2,0,.2,0,.2-.1v-.5a.5.5,0,0,0-.4-.5h-7.9a.5.5,0,0,0-.6.6v.4c0,.1,0,.1.2.1Z" transform="translate(-1.6 -9)"/><path class="a06d1c96-7066-4ec2-aded-cf26c76fd29e" d="M198.8,18.4H198a.6.6,0,0,0,0-.6h1.5v.6h-.7Z" transform="translate(-1.6 -9)"/><path class="a06d1c96-7066-4ec2-aded-cf26c76fd29e" d="M197.1,18.4h-.8v-.6h1.5v.6h-.7Z" transform="translate(-1.6 -9)"/></g><line class="e288fe78-f998-4a24-a3bb-e33de91f5b3d" x1="209.4" y1="7" x2="370.4" y2="7"/></svg>