<svg xmlns="http://www.w3.org/2000/svg" viewBox="0 0 512 512"><g stroke-width="2" fill="none"><path stroke="#edd100" vector-effect="non-scaling-stroke" d="M478.2 97.8 320 256.1"/><path stroke="#f6d900" vector-effect="non-scaling-stroke" d="m320 256-32.5 32.8a43.3 43.3 0 0 1-53 7.7q-4.8-2.8-12.3-10.4-15-14.8-29.8-29.7"/><path stroke="#edd100" vector-effect="non-scaling-stroke" d="M192.4 256.4 33.8 97.8"/><path stroke="#e4c900" vector-effect="non-scaling-stroke" d="M478.2 414.3 320 256M192.4 256.4q-.3.3-.6.3-.5 0-.9.4L33.7 414.2"/></g><path fill="#ffe000" d="M478.2 97.8 320 256.1l-32.5 32.7a43.3 43.3 0 0 1-53 7.7q-4.8-2.8-12.3-10.4-15-14.8-29.8-29.7L33.8 97.8q8.4-8.2 19-11.1 5.7-1.5 20-1.5h375.7q17.1 0 29.7 12.6Z"/><path fill="#dbc100" d="m33.9 97.8 158.5 158.6q-.3.3-.6.3-.5 0-.9.4L33.7 414.2q-12.3-13.1-12.3-30.7V133.9q0-11.3 1.4-16.7 3-11 11-19.4ZM478.2 97.8q12.4 13.1 12.5 30.2v252.2q0 9.4-1.4 14.5-3 11.2-11 19.6L320 256 478.2 97.9Z"/><path fill="#edd100" d="m320 256 158.2 158.3q-8.4 8.2-19 11.1-5.7 1.5-20 1.5H64.6q-18.2 0-30.8-12.7L191 257.1q.4-.4.9-.4.3 0 .6-.3l29.8 29.7q7.5 7.6 12.3 10.4a43.3 43.3 0 0 0 53-7.7q16-16.3 32.5-32.8Z"/></svg>