<svg xmlns="http://www.w3.org/2000/svg" width="174.7" height="30" xmlns:v="https://vecta.io/nano"><circle cx="15" cy="15" r="15" fill="#00a801"/><path d="M20.4 14.4l-.6-.2h-.3v-1.8a3.8 3.8 0 0 0-1.2-2.8 3.8 3.8 0 0 0-2.8-1.2 4 4 0 0 0-2.9 1.2 4.1 4.1 0 0 0-1.1 2.8v1.8h-.3l-.6.2a.9.9 0 0 0-.3.6v5.2a.9.9 0 0 0 .3.6c.1.2.3.2.6.2h8.6a.7.7 0 0 0 .6-.2 1.4 1.4 0 0 0 .2-.6V15a1.4 1.4 0 0 0-.2-.6zm-2.6-.2h-4.6v-1.8a2.5 2.5 0 0 1 .6-1.6 2.5 2.5 0 0 1 1.7-.6 2.5 2.5 0 0 1 1.6.6 2.6 2.6 0 0 1 .7 1.6z" fill="#fff"/><path d="M41 14.1a6 6 0 0 1-2-.3 2.7 2.7 0 0 1-1.2-.9 3.1 3.1 0 0 1-.5-1.2v-.2h2v.2a1.2 1.2 0 0 0 .5.5l1 .2 1-.2a.7.7 0 0 0 .4-.6.5.5 0 0 0-.2-.4.6.6 0 0 0-.6-.3l-1.2-.3a5.1 5.1 0 0 1-2.1-.9 2.1 2.1 0 0 1-.5-1.7 2 2 0 0 1 .4-1.3 2 2 0 0 1 1.1-.9 5.5 5.5 0 0 1 3.6 0 4 4 0 0 1 1.2 1 2.1 2.1 0 0 1 .4 1c0 .1 0 .2-.1.2h-2.1a1 1 0 0 0-.4-.5l-.8-.2a1.5 1.5 0 0 0-.8.2.6.6 0 0 0-.3.6.6.6 0 0 0 .1.4l.6.3 1 .3a5.6 5.6 0 0 1 1.8.5 2.7 2.7 0 0 1 1 .8 2.1 2.1 0 0 1 .3 1.2 2.4 2.4 0 0 1-.5 1.4 2.5 2.5 0 0 1-1.3.9 4.8 4.8 0 0 1-1.8.2zm5.1-.1h-.2c-.1 0-.1-.1-.1-.2V5.9c0-.1 0-.2.1-.2s.1-.1.2-.1h1.6c.1 0 .2 0 .2.1s.1.1.1.2v7.8c0 .1 0 .2-.1.2h-1.8zm5.7 0h-.2a.3.3 0 0 1-.1-.2V7.5h-2.3V5.9c0-.1 0-.2.1-.2s.1-.1.2-.1h6.7a.3.3 0 0 1 .1.2v1.4c0 .1-.1.1-.1.2h-2.5v6.2c0 .1 0 .2-.1.2h-1.8zm5.7 0h-.2a.3.3 0 0 1-.1-.2V5.9a.3.3 0 0 1 .1-.2h6.1a.3.3 0 0 1 .1.2v1.3h-4.2v1.7h3.8a.4.4 0 0 1 .1.3v1c0 .1 0 .2-.1.2h-3.8v1.7h4.2v1.5h-6zm12.4 0h-.2a.3.3 0 0 1-.1-.2V8L68 9.2h-.4l-.7-.9v-.2l.2-.3 2.7-2.1h1.8c.1 0 .2 0 .2.1s.1.1.1.2v7.8c0 .1 0 .2-.1.2h-1.9zm6.8.1a3.6 3.6 0 0 1-2.6-.9 3.7 3.7 0 0 1-.9-2.2V8.6a4.3 4.3 0 0 1 .5-1.6 2.3 2.3 0 0 1 1.1-1.1 3.6 3.6 0 0 1 1.9-.4 3.5 3.5 0 0 1 2.5.9 3.2 3.2 0 0 1 .9 2.2V11a3.7 3.7 0 0 1-.9 2.2 3.3 3.3 0 0 1-2.5.9zm0-1.7a.9.9 0 0 0 .8-.4 2.8 2.8 0 0 0 .4-1.1V8.7a2.8 2.8 0 0 0-.4-1.1c-.1-.3-.4-.4-.8-.4a1 1 0 0 0-.9.4 1.8 1.8 0 0 0-.3 1.1 3.1 3.1 0 0 0-.1 1.1 3.1 3.1 0 0 0 .1 1.1q0 1.5 1.2 1.5zm8.1 1.7a3.3 3.3 0 0 1-2.5-.9 2.8 2.8 0 0 1-.9-2.2V8.6a4.2 4.2 0 0 1 .4-1.6A3.2 3.2 0 0 1 83 5.9a3.4 3.4 0 0 1 1.8-.4 3.3 3.3 0 0 1 2.5.9 3.2 3.2 0 0 1 1 2.2V11a3.2 3.2 0 0 1-1 2.2 3.2 3.2 0 0 1-2.5.9zm0-1.7a1 1 0 0 0 .9-.4 1.8 1.8 0 0 0 .3-1.1V8.7a1.8 1.8 0 0 0-.3-1.1 1.2 1.2 0 0 0-1.8 0 1.8 1.8 0 0 0-.3 1.1v2.2q.2 1.5 1.2 1.5zm6.4-2.6a1.8 1.8 0 0 1-1.3-.4 1.6 1.6 0 0 1-.5-1.1 1.3 1.3 0 0 1-.1-.5 2.6 2.6 0 0 1 .1-.7 1.4 1.4 0 0 1 .5-1.1 1.9 1.9 0 0 1 2.6 0 1.4 1.4 0 0 1 .5 1.1 2.6 2.6 0 0 1 .1.7 1.3 1.3 0 0 1-.1.5 1.6 1.6 0 0 1-.5 1.1 1.8 1.8 0 0 1-1.3.4zm-1 4.2H90v-.2L95.9 6h1.3c.1 0 .2 0 .2.1h.1c0 .1 0 .1-.1.2l-5.9 7.8-.2.2h-1.1zm1-5.2q.5 0 .6-.6v-1a.5.5 0 0 0-.2-.4.5.5 0 0 0-.4-.2l-.4.2-.2.4v1q.2.6.6.6zm5.1 5.3a1.7 1.7 0 0 1-1.3-.5 1.7 1.7 0 0 1-.6-1.1v-1.2a1.9 1.9 0 0 1 3.2-1.1 1.6 1.6 0 0 1 .5 1.1 3.5 3.5 0 0 0 .1.7 2 2 0 0 0-.1.5 1.4 1.4 0 0 1-.5 1.1 1.9 1.9 0 0 1-1.3.5zm0-1.1l.4-.2c.1-.1.1-.2.1-.4a1.3 1.3 0 0 0 0-1c0-.2 0-.3-.1-.4l-.4-.2a.7.7 0 0 0-.6.6v1a.7.7 0 0 0 .6.6zm8.8 1.1a5 5 0 0 1-1.9-.3 2.5 2.5 0 0 1-1.3-.9 1.9 1.9 0 0 1-.4-1.2v-.2h1.9l.2.2a1.2 1.2 0 0 0 .5.5l.9.2 1.1-.2a.9.9 0 0 0 .3-.6.5.5 0 0 0-.2-.4.6.6 0 0 0-.6-.3l-1.1-.3a5 5 0 0 1-2.2-.9 2.1 2.1 0 0 1-.7-1.7 2 2 0 0 1 .4-1.3 2.7 2.7 0 0 1 1.2-.9 4.7 4.7 0 0 1 1.7-.3 4.8 4.8 0 0 1 1.8.3 3.1 3.1 0 0 1 1.2 1 1.4 1.4 0 0 1 .4 1V8h-2.2a.7.7 0 0 0-.4-.5l-.8-.2-.8.2a.6.6 0 0 0-.3.6.8.8 0 0 0 .2.4l.5.3 1.1.3a5.8 5.8 0 0 1 1.7.5 2.1 2.1 0 0 1 1 .8 2.1 2.1 0 0 1 .3 1.2 2.3 2.3 0 0 1-.4 1.4 3 3 0 0 1-1.3.9 5.8 5.8 0 0 1-1.8.2zm5.1-.1h-.2a.3.3 0 0 1-.1-.2V5.9a.3.3 0 0 1 .1-.2h6.1v1.5H112v1.7h3.8c0 .1.1.2.1.3v1.2H112v1.7h4.2v1.5h-6zm10.8.1a4.1 4.1 0 0 1-2.7-.8 3 3 0 0 1-1-2.4V8.7a3.1 3.1 0 0 1 1-2.4 4.6 4.6 0 0 1 2.7-.8 4.2 4.2 0 0 1 2 .4 3 3 0 0 1 1.3.9 3.1 3.1 0 0 1 .5 1.2v.2h-2.3c-.1-.3-.2-.5-.5-.6a1.2 1.2 0 0 0-.9-.3 1.3 1.3 0 0 0-1.5 1.5v2.1a1.4 1.4 0 0 0 1.5 1.6 1.6 1.6 0 0 0 1.2-.4 1.6 1.6 0 0 0 .4-1.1v-.2h-1.4V9.3h3.5c.1 0 .1.1.1.2v1.3a3.5 3.5 0 0 1-.5 1.8 2.4 2.4 0 0 1-1.3 1.1 4.2 4.2 0 0 1-2.1.4zm8.7 0a4.6 4.6 0 0 1-2.7-.8 3.3 3.3 0 0 1-.9-2.5V5.9c0-.1 0-.2.1-.2s.1-.1.2-.1h1.8a.3.3 0 0 1 .1.2v4.9a2.1 2.1 0 0 0 .3 1.2 1.8 1.8 0 0 0 1.1.3 1.2 1.2 0 0 0 1-.4 1.2 1.2 0 0 0 .4-1.1V5.9c0-.1 0-.2.1-.2h2a.3.3 0 0 1 .1.2v4.9a3.4 3.4 0 0 1-1 2.5 4 4 0 0 1-2.6.8zm5.5-.1h-.3V5.7h3.5a3.7 3.7 0 0 1 2.5.7 2.5 2.5 0 0 1 .9 2 3.3 3.3 0 0 1-.4 1.5 3.1 3.1 0 0 1-1.1.9l1.6 2.9h.1a.3.3 0 0 1-.1.2h-1.8a.5.5 0 0 1-.5-.3l-1.4-2.6H137v2.7c0 .1 0 .2-.1.2h-1.7zm3.2-4.7a1.5 1.5 0 0 0 .8-.2 1.1 1.1 0 0 0 .3-.8.8.8 0 0 0-.3-.7c-.1-.2-.4-.3-.8-.3H137v2zm8.2 4.8a4.1 4.1 0 0 1-2.7-.8 3 3 0 0 1-1-2.4 3.4 3.4 0 0 1-.1-1.1 2.8 2.8 0 0 1 .1-1 3 3 0 0 1 1-2.5 4.3 4.3 0 0 1 2.7-.8 4.2 4.2 0 0 1 2.6.8 3 3 0 0 1 1 2.5 4.1 4.1 0 0 1 .1 1 5.4 5.4 0 0 1-.1 1.1 3 3 0 0 1-1 2.4 4 4 0 0 1-2.6.8zm0-1.7a1.3 1.3 0 0 0 1-.4 1.6 1.6 0 0 0 .4-1.2v-2a1.6 1.6 0 0 0-.4-1.2 1.3 1.3 0 0 0-1-.4 1.4 1.4 0 0 0-1.1.4 2.1 2.1 0 0 0-.4 1.2v2a2.1 2.1 0 0 0 .4 1.2 1.4 1.4 0 0 0 1.1.4z" fill="#00a801"/><path d="M39.4 26h-.2v-5.5h-1.8a.1.1 0 0 1-.1-.1h-.1V20h.1a.1.1 0 0 1 .1-.1h4.4a.1.1 0 0 1 .1.1h.1v.4h-.1a.1.1 0 0 1-.1.1h-1.7v5.3h-.7zm3.8 0H43v-6.1h2.4a2.5 2.5 0 0 1 1.6.5 1.7 1.7 0 0 1 .6 1.4 2 2 0 0 1-.3 1.1 2.1 2.1 0 0 1-1 .6l1.4 2.4h-.6c-.1 0-.2 0-.2-.1h-.1l-1.3-2.3h-1.6v2.3h-.1a.1.1 0 0 1-.1.1zm2.2-3.3c.9 0 1.3-.4 1.3-1.1s-.4-1.1-1.3-1.1h-1.5v2.2zm3.1 3.3h-.2l2.2-5.8.3-.2h.6c.2 0 .3.1.3.2l2.2 5.8h0a.1.1 0 0 1-.1.1h-.6v-.2l-.5-1.2h-3l-.4 1.2c-.1.1-.1.1-.1.2h-.6zm3.8-2.2l-1.2-3.2-1.2 3.2zm2.8 2.2a.1.1 0 0 1-.1-.1h-.1v-6h.1a.1.1 0 0 1 .1-.1h.7l3 4.6v-4.5h.6c.1 0 .1 0 .1.1h.1v5.9h-.1c0 .1 0 .1-.1.1H59c-.1 0-.2 0-.2-.1l-3-4.6v4.5h-.1a.1.1 0 0 1-.1.1zm8.1.1l-1.3-.2a1.9 1.9 0 0 1-.8-.7 1.1 1.1 0 0 1-.3-.8h.6l.3.2a1 1 0 0 0 .4.7l1.1.2 1.1-.2a.9.9 0 0 0 .4-.8.8.8 0 0 0-.2-.5l-.5-.3-1.1-.4-1.1-.4a.9.9 0 0 1-.6-.6 1.1 1.1 0 0 1-.2-.8 1.5 1.5 0 0 1 .2-.9l.8-.6 1.2-.2 1.2.3a1.1 1.1 0 0 1 .7.6 1.1 1.1 0 0 1 .3.7v.2h-.7c-.1 0-.2 0-.2-.2s-.2-.4-.4-.6l-.9-.2-1 .2a1 1 0 0 0-.4.7.8.8 0 0 0 .2.5l.5.4 1 .3 1.2.4a2 2 0 0 1 .7.6 1.9 1.9 0 0 1 .2.8 1.5 1.5 0 0 1-.6 1.3 3.5 3.5 0 0 1-1.8.3zm3.1-.1h-.2l2.2-5.8.3-.2h.6c.2 0 .3.1.3.2l2.2 5.8h0a.1.1 0 0 1-.1.1H71v-.2l-.5-1.2h-3l-.5 1.1c-.1.1-.1.1-.1.2h-.6zm3.8-2.2l-1.2-3.2-1.2 3.2zm4.8 4.2l-.6-.2-.2-.2h1c.1 0 .1-.1.1-.2s0-.2-.1-.2h-.8V27h0l.2-.4a2.2 2.2 0 0 1-1.5-.8 2.8 2.8 0 0 1-.5-1.6V22a2.4 2.4 0 0 1 .6-1.7 2.9 2.9 0 0 1 3.2-.4 2.2 2.2 0 0 1 .9.7 1.9 1.9 0 0 1 .3 1h0v.2h-.6a.2.2 0 0 1-.2-.2q-.1-.7-.6-.9a1.5 1.5 0 0 0-1-.3c-1.1 0-1.6.5-1.6 1.7v1.5c0 1.2.5 1.7 1.6 1.7l1-.2a1.4 1.4 0 0 0 .6-1c0-.1 0-.1.1-.2h.7c.1.1.1.1.1.2a1.9 1.9 0 0 1-.3 1 2.2 2.2 0 0 1-.9.7 2.5 2.5 0 0 1-1.3.3l-.2.4h.1l.5.2a1.4 1.4 0 0 1 .2.6 1.4 1.4 0 0 1-.2.6zm6-1.9a2.9 2.9 0 0 1-1.9-.6 2.7 2.7 0 0 1-.6-1.9v-1.5a2.5 2.5 0 0 1 .7-1.9 2.4 2.4 0 0 1 1.8-.6 2.8 2.8 0 0 1 1.8.6 3.6 3.6 0 0 1 .7 1.9v1.5a3.3 3.3 0 0 1-.7 1.9 2.6 2.6 0 0 1-1.8.6zm0-.8a1.5 1.5 0 0 0 1.1-.4 2.2 2.2 0 0 0 .5-1.3v-1.5a2.2 2.2 0 0 0-.5-1.3 1.5 1.5 0 0 0-1.1-.4 1.6 1.6 0 0 0-1.2.4 1.7 1.7 0 0 0-.4 1.3v1.5a1.7 1.7 0 0 0 .4 1.3 1.6 1.6 0 0 0 1.2.4zm.4-6H81c0-.1-.1-.1-.2-.2h-.6l-.2.2h-.2a.1.1 0 0 1-.1-.1h-.1a.8.8 0 0 1 .1-.4l.3-.3h1.3c.1 0 .1 0 .1-.1a.1.1 0 0 0 .1-.1h.6a.4.4 0 0 1-.1.3c0 .2-.1.3-.3.4zm3.6 6.7h-.2v-6.1h4.1v.4h-3.2v1.9h3v.8h-3v2h3.1a.1.1 0 0 1 .1.1h.1v.4h-.1a.1.1 0 0 1-.1.1zm7.3.1l-1.3-.2a2.2 2.2 0 0 1-.9-.7l-.3-.8h.1a.1.1 0 0 1 .1-.1h.5l.2.2a1.2 1.2 0 0 0 .5.7l1.1.2 1.1-.2a.9.9 0 0 0 .4-.8.8.8 0 0 0-.2-.5l-.6-.3-1-.4a2.3 2.3 0 0 1-1.1-.4 1.3 1.3 0 0 1-.7-.6 1.9 1.9 0 0 1-.2-.8 1.6 1.6 0 0 1 .3-.9l.7-.6 1.2-.2a2.1 2.1 0 0 1 1.2.3 1.2 1.2 0 0 1 .8.6 1.1 1.1 0 0 1 .3.7c0 .1 0 .1-.1.2h-.6c-.1 0-.2 0-.2-.2l-.4-.6-1-.2-.9.2a.8.8 0 0 0-.4.7.8.8 0 0 0 .2.5l.5.4 1 .3 1.2.4a2 2 0 0 1 .7.6 1.9 1.9 0 0 1 .2.8 1.4 1.4 0 0 1-.7 1.3 2.9 2.9 0 0 1-1.7.4zm8 0a2.1 2.1 0 0 1-1.8-.7 2.4 2.4 0 0 1-.7-1.7V22a2.4 2.4 0 0 1 .7-1.7 2.1 2.1 0 0 1 1.8-.7 2.9 2.9 0 0 1 1.4.3 1.9 1.9 0 0 1 1.1 1.7h0v.2h-.6c-.2 0-.2-.1-.3-.2a1.3 1.3 0 0 0-.5-.9 1.8 1.8 0 0 0-1.1-.3c-1 0-1.5.5-1.6 1.7v1.5c.1 1.2.6 1.7 1.6 1.7l1.1-.2c.3-.2.4-.5.5-1s.1-.1.1-.2h.8v.2a1.9 1.9 0 0 1-1.1 1.7 2.9 2.9 0 0 1-1.4.3zm4-.1c-.1 0-.2 0-.2-.1h-.1v-6h.1c0-.1.1-.1.2-.1h2.1a2.9 2.9 0 0 1 1.7.5 1.7 1.7 0 0 1 .6 1.4 2.1 2.1 0 0 1-.4 1.1 1.5 1.5 0 0 1-.9.6l1.4 2.4h-.1a.1.1 0 0 1-.1.1h-.8l-1.3-2.3h-1.6v2.3h-.6zm2.1-3.3c.9 0 1.4-.4 1.4-1.1s-.5-1.1-1.4-1.1h-1.5v2.2zm3.8 3.3c-.1 0-.2 0-.2-.1h-.1v-6h.1c0-.1.1-.1.2-.1h.6v5.9h-.6zm2.4 0a.1.1 0 0 1-.1-.1h-.1v-6h.1a.1.1 0 0 1 .1-.1h2.3a2.5 2.5 0 0 1 1.6.5 1.7 1.7 0 0 1 .6 1.4 1.9 1.9 0 0 1-.6 1.5 2.5 2.5 0 0 1-1.6.4h-1.6v2.3h-.1a.1.1 0 0 1-.1.1zm2.3-3.2a1.2 1.2 0 0 0 1-2 1.7 1.7 0 0 0-1-.3h-1.6v2.3zm4.9 3.2h-.2v-5.5h-1.8a.1.1 0 0 1-.1-.1h-.1V20h.1a.1.1 0 0 1 .1-.1h4.4a.1.1 0 0 1 .1.1h.1v.4h-.1a.1.1 0 0 1-.1.1h-1.8v5.3h-.6zm5.7.1a2.4 2.4 0 0 1-1.8-.6 2.7 2.7 0 0 1-.7-1.9v-1.5a2.9 2.9 0 0 1 .7-1.9 2.8 2.8 0 0 1 1.8-.6 2.4 2.4 0 0 1 1.8.6 2.5 2.5 0 0 1 .7 1.9v1.5a2.4 2.4 0 0 1-.7 1.9 2.4 2.4 0 0 1-1.8.6zm0-.8a1.6 1.6 0 0 0 1.2-.4 2.2 2.2 0 0 0 .4-1.3v-1.5a2.2 2.2 0 0 0-.4-1.3 1.6 1.6 0 0 0-1.2-.4 1.5 1.5 0 0 0-1.1.4 1.7 1.7 0 0 0-.5 1.3v1.5a1.7 1.7 0 0 0 .5 1.3 1.5 1.5 0 0 0 1.1.4zm6.1.8a2.6 2.6 0 0 1-1.8-.6 2.9 2.9 0 0 1-.7-1.8V22a2.9 2.9 0 0 1 .7-1.8 2.8 2.8 0 0 1 1.8-.6 2.9 2.9 0 0 1 1.4.3 1.9 1.9 0 0 1 .8.7 1.3 1.3 0 0 1 .3.7h-.8a.1.1 0 0 1-.1-.1 1.5 1.5 0 0 0-1.6-1 1.4 1.4 0 0 0-1.1.4 1.5 1.5 0 0 0-.5 1.2v1.6a1.7 1.7 0 0 0 .5 1.3 1.4 1.4 0 0 0 1.1.4 1.7 1.7 0 0 0 1.3-.4 1.6 1.6 0 0 0 .4-1.2v-.4h-1.3c-.1 0-.2 0-.2-.1h-.1v-.3c0-.1.1-.1.1-.2h2.3c.1.1.1.1.1.2v.9a2.4 2.4 0 0 1-.3 1.2 2 2 0 0 1-.9.9 2.9 2.9 0 0 1-1.4.4zm4.1-.1h-.2v-6.1h2.4a2.5 2.5 0 0 1 1.6.5 1.7 1.7 0 0 1 .6 1.4 1.5 1.5 0 0 1-.4 1.1 1.5 1.5 0 0 1-.9.6l1.4 2.4h-.1c0 .1 0 .1-.1.1h-.4c-.1 0-.2 0-.2-.1h-.2l-1.3-2.3h-1.5v2.3h-.1c0 .1-.1.1-.2.1zm2.1-3.3c.9 0 1.4-.4 1.4-1.1s-.5-1.1-1.4-1.1h-1.4v2.2zm3.2 3.3h-.2l2.2-5.8.3-.2h.6c.2 0 .3.1.3.2l2.2 5.8h0a.1.1 0 0 1-.1.1h-.7v-.2l-.5-1.2h-3l-.5 1.2v.1h-.6zm3.8-2.2l-1.2-3.2-1.2 3.2zm2.8 2.2a.1.1 0 0 1-.1-.1h-.1v-6h.1a.1.1 0 0 1 .1-.1h3.7a.1.1 0 0 1 .1.1h.1v.4h-.1a.1.1 0 0 1-.1.1h-3v2.1h3v.6h-3v2.4h-.1a.1.1 0 0 1-.1.1zm4.3 0h-.2l2.2-5.8.3-.2h.6c.2 0 .3.1.3.2l2.2 5.8h-.8v-.2l-.5-1.2h-3l-.5 1.2v.2h-.6zm3.8-2.2l-1.2-3.2-1.2 3.2zm2.8 2.2c-.1 0-.1 0-.1-.1h-.1v-6h.1c0-.1 0-.1.1-.1h2.1a2.5 2.5 0 0 1 1.9.6 2.4 2.4 0 0 1 .6 1.8 1.5 1.5 0 0 1 .1.7 1.9 1.9 0 0 1-.1.8 4.4 4.4 0 0 1-.2 1.3 1.5 1.5 0 0 1-.8.8 3.3 3.3 0 0 1-1.5.3zm2.1-.8h.9a.9.9 0 0 0 .6-.6 8.7 8.7 0 0 0 .2-1v-1.4c-.1-.6-.2-1.1-.5-1.3s-.7-.4-1.3-.4h-1.3v4.7zm3.4.8c-.1 0-.1 0-.1-.1h-.1l2.2-5.8.3-.2h.6c.2 0 .3.1.3.2l2.3 5.8h-.1a.1.1 0 0 1-.1.1h-.6v-.2l-.5-1.2h-2.9l-.5 1.2c0 .1-.1.1-.1.2h-.6zm3.8-2.2l-1.2-3.2-1.2 3.2zm4.6 2.3l-1.3-.2a2.2 2.2 0 0 1-.9-.7l-.3-.8h.1a.1.1 0 0 1 .1-.1h.5l.2.2a1.2 1.2 0 0 0 .5.7l1.1.2 1.1-.2a1.2 1.2 0 0 0 .4-.8.8.8 0 0 0-.2-.5l-.6-.3-1-.4a3.4 3.4 0 0 1-1.2-.4 1.7 1.7 0 0 1-.6-.6 1.9 1.9 0 0 1-.2-.8 1.6 1.6 0 0 1 .3-.9l.7-.6 1.2-.2a2.1 2.1 0 0 1 1.2.3 1.2 1.2 0 0 1 .8.6 1.1 1.1 0 0 1 .3.7c0 .1 0 .1-.1.2h-.6c-.1 0-.2 0-.2-.2a1.3 1.3 0 0 0-.5-.6l-.9-.2-.9.2a.8.8 0 0 0-.4.7.8.8 0 0 0 .2.5l.5.4 1 .3 1.2.4c.3.2.5.3.6.6a1.1 1.1 0 0 1 .3.8 1.6 1.6 0 0 1-.7 1.3 2.9 2.9 0 0 1-1.7.4z"/></svg>