<?xml version="1.0" encoding="utf-8"?>
<!-- Generator: Adobe Illustrator 26.3.0, SVG Export Plug-In . SVG Version: 6.00 Build 0)  -->
<!DOCTYPE svg PUBLIC "-//W3C//DTD SVG 1.1//EN" "http://www.w3.org/Graphics/SVG/1.1/DTD/svg11.dtd" [
	<!ENTITY ns_extend "http://ns.adobe.com/Extensibility/1.0/">
	<!ENTITY ns_ai "http://ns.adobe.com/AdobeIllustrator/10.0/">
	<!ENTITY ns_graphs "http://ns.adobe.com/Graphs/1.0/">
	<!ENTITY ns_vars "http://ns.adobe.com/Variables/1.0/">
	<!ENTITY ns_imrep "http://ns.adobe.com/ImageReplacement/1.0/">
	<!ENTITY ns_sfw "http://ns.adobe.com/SaveForWeb/1.0/">
	<!ENTITY ns_custom "http://ns.adobe.com/GenericCustomNamespace/1.0/">
	<!ENTITY ns_adobe_xpath "http://ns.adobe.com/XPath/1.0/">
]>
<svg version="1.1" id="Camada_1" xmlns:x="&ns_extend;" xmlns:i="&ns_ai;" xmlns:graph="&ns_graphs;"
	 xmlns="http://www.w3.org/2000/svg" xmlns:xlink="http://www.w3.org/1999/xlink" x="0px" y="0px" viewBox="0 0 226.7 61.3"
	 style="enable-background:new 0 0 226.7 61.3;" xml:space="preserve">
<metadata>
	<sfw  xmlns="&ns_sfw;">
		<slices></slices>
		<sliceSourceBounds  bottomLeftOrigin="true" height="60.6" width="226.6" x="176.4" y="0.6"></sliceSourceBounds>
	</sfw>
</metadata>
<path style="fill:#EA2328;" d="M15.9,0.2c0.1,0.4,0.5,0.3,0.7,0.4c2.9,1.1,4.2,4.4,3.1,7.2s-4.4,4.2-7.2,3.1S8.3,6.5,9.4,3.7
	c0.6-1.4,1.7-2.5,3.1-3.1l1-0.4L15.9,0.2z"/>
<path style="fill:#090807;" d="M23.5,0.2v3.5c1.5-0.5,2.9-0.8,4.1,0.4c1,1,1.4,2.3,1.1,3.7c-0.2,1.9-1.7,3.3-3.6,3.4
	c-0.5,0.1-1,0.1-1.5,0C21,11,21,11,21,8.5V0.1L23.5,0.2z"/>
<path style="fill:#EB2D31;" d="M31.2,0.2c0.1,0.6,0.6,1.1,0,1.7c-0.3,0.4-0.9,0.4-1.3,0.1c-0.8-0.6-0.4-1.2,0.1-1.8L31.2,0.2z"/>
<path style="fill:#A2DBE9;" d="M24.5,49.6c-0.4,0.8-0.8,0.8-1.2,0c-2.8-7.2-5-14.6-7.7-21.9c-0.8-2.6-1.1-5.3-1.7-8
	c-0.1-0.5,0-1,0.2-1.5h9.5c0.4,0.8-0.3,1.2-0.7,1.7C21,22.3,19,24.5,17,27.1h13.6c-0.6-1-1.3-2-2.1-2.9c-1.2-1.5-2.4-3-3.7-4.4
	c-0.4-0.4-0.8-0.8-0.5-1.5h9.5c0.3,0.5,0.4,1,0.3,1.6c-0.6,2.6-1,5.3-1.7,7.8C30,34.1,27.9,40.6,25.7,47
	C25,47.9,24.7,48.7,24.5,49.6z"/>
<path style="fill:#83C7DB;" d="M24.5,49.6c-0.3-1.2,0.4-2.2,0.8-3.2c2-6,4.1-11.9,6.2-17.8c0.1-0.3,0.1-0.6,0.4-0.8
	c0.4-0.4,1-0.5,1.6-0.5h7.9c0.6-0.1,1.1,0.1,1.6,0.5c-4,4.8-8,9.6-12.1,14.4C28.7,44.7,26.6,47.1,24.5,49.6z"/>
<path style="fill:#83C7DB;" d="M15.9,27.8c1.2,2.5,2.2,5.2,2.9,7.8c1.5,4.1,2.9,8.3,4.3,12.4c0.1,0.5,0.7,1,0.2,1.5
	C17.2,42.2,11,35,4.9,27.7C8.4,27,12.2,27,15.9,27.8z"/>
<path style="fill:#C7E8EF;" d="M24.2,18.3c1.2,2,3,3.6,4.4,5.5c0.9,1.2,2.1,2.2,2.8,3.6H16.2l6.5-7.8c0.4-0.4,0.9-0.7,0.9-1.4
	L24.2,18.3z"/>
<path style="fill:#C7E8EF;" d="M42.9,27.8H31.8c0.5-3.2,1.5-6.3,1.8-9.5c2.7,2.9,5.6,5.7,8.5,8.4C42.5,27,43.2,27.1,42.9,27.8z"/>
<path style="fill:#C6E7EF;" d="M15.9,27.8h-11c1.6-2,3.6-3.6,5.3-5.5c1.3-1.4,2.6-2.7,3.9-4C14.4,21.6,15.2,24.6,15.9,27.8z"/>
<path style="fill:#0A0908;" d="M37.3,11.2c-2,0-2.9-0.8-3-2.8V5.8c0-0.6,0.1-1.1-0.8-1.2C33,4.6,33,4.2,33,3.8s0-0.6,0.3-0.6
	c1.1,0.1,0.9-0.7,0.9-1.3c-0.1-0.9,0.3-1.1,1.1-1.1s1.1,0.4,1,1.2s-0.1,1.3,1,1.2C37.9,3.1,38,3.5,38.1,4s-0.3,0.8-0.7,0.7
	c-1-0.2-1,0.4-1,1.2v2.4c0,0.6,0.2,1.1,0.9,1c0.9-0.1,1.4,0.2,1.3,1.1S37.7,11,37.3,11.2z"/>
<path style="fill:#0D0C0B;" d="M32.1,7.3v2.6c0,0.9,0,1.3-1.1,1.4c-1.1,0.1-1-0.6-1-1.3c0-1.9,0.1-3.8,0-5.7c0-0.8,0.2-1.1,1-1
	s1.2,0.1,1.1,1S32.1,6.2,32.1,7.3z"/>
<path style="fill:#FEFBFB;" d="M16.5,6.9c1.2,1.1,1.1,1.5-0.4,2S13,9,11.9,7.8c-0.9-1.2-1-2.9-0.2-4.2s2.4-1.8,3.9-1.4
	c1.6,0.4,2.2,1.5,2.4,3.9c-1.2,0.3-2.3,0.5-3.5,0.6C15.2,7.4,15.9,6.4,16.5,6.9z"/>
<path style="fill:#EA2729;" d="M16.5,6.9C15.7,7.1,15,8,14,7.4c-0.3-0.2-0.7-0.4-0.5-0.8s0.5-0.2,0.8-0.2c1.3,0,2.5-0.1,3.8-0.1
	C17.7,6.9,16.8,6.3,16.5,6.9z"/>
<path style="fill:#FAFAFA;" d="M23.5,7.6c-0.1-1.2-0.1-2.3,1.4-2.4c1.2-0.1,1.5,0.9,1.6,1.9c0.1,1.1-0.6,2-1.7,2.2
	c-0.1,0-0.2,0-0.3,0C23,9.2,23.7,8.1,23.5,7.6z"/>
<path style="fill:#EE4B44;" d="M14.5,5c-0.4-0.2-1.1,0.2-1.1-0.4s0.6-0.9,1.2-0.9s1.2,0.2,1.2,0.8C15.8,5.4,14.9,4.8,14.5,5z"/>
<path d="M32.8,60.4v-4.9c0-0.3-0.2-0.8,0.3-0.9c0.4-0.1,0.8,0.1,1,0.4c0.9,1.1,1.8,2.2,2.9,3.7v-3.4c0-0.3-0.1-0.8,0.5-0.8
	s0.5,0.4,0.5,0.8c0,1.7,0,3.4-0.1,5.1H37l-3-3.8c-0.3,0.6-0.4,1.2-0.3,1.9c0,0.7,0,1.3-0.1,2L32.8,60.4z"/>
<path d="M17.4,60.4c0-1.5,0.1-3.1,0-4.6c-0.1-1,0.3-1.3,1.3-1.3c0.7,0.1,1.4,0,2.1,0c0.2,0,0.5,0,0.6,0.4s-0.2,0.5-0.6,0.5h-1.7
	c-0.6,0-0.8,0.1-0.8,0.7s0.2,0.8,0.8,0.9s1.8-0.5,1.8,0.4s-1.1,0.4-1.8,0.5s-0.9,0.2-0.8,0.8s0.4,0.7,0.9,0.7h1.5
	c0.8,0,0.8,0.4,0.6,1L17.4,60.4z"/>
<path d="M0.5,54.6h3.1c0.4,0,0.9-0.2,0.9,0.5s-0.6,0.4-1,0.4c-0.5,0-0.9,0-1.4,0c-0.6,0-0.7,0.3-0.7,0.8s0.2,0.7,0.7,0.8
	C2.8,57.2,4,56.6,4,57.6S2.8,57.9,2.1,58c-0.5,0.1-0.8,0.2-0.8,0.7c-0.1,0.4,0.2,0.7,0.6,0.8c0.1,0,0.2,0,0.3,0c0.6,0,1,0,1.5,0
	c0.8,0,0.8,0.4,0.7,1c-1.3,0-3.2,0.5-3.9-0.1s-0.1-2.5-0.1-3.8L0.5,54.6z"/>
<path d="M27.5,60.4c0-1.6,0-3.2-0.1-4.9c0-0.7,0.2-1,1-1h2.3c0.3,0,0.8-0.1,0.8,0.5s-0.5,0.4-0.8,0.4c-0.5,0-0.9,0-1.4,0
	s-0.9,0.1-0.9,0.7s0.3,0.7,0.8,0.8s1.8-0.5,1.8,0.4s-1.1,0.4-1.8,0.5s-0.9,0.1-0.9,0.8s0.3,0.8,0.9,0.8s0.9,0,1.4,0
	c0.8-0.1,0.9,0.4,0.9,1H27.5z"/>
<path d="M44.8,60.4c0-1.7-0.1-3.3-0.1-5c0-0.7,0.3-0.9,0.9-0.8h3.2v0.9h-2c-0.5,0-1.1-0.2-1.1,0.8s0.6,0.7,1.2,0.8s1.5-0.4,1.5,0.4
	c0,0.7-0.9,0.3-1.4,0.4c-0.1,0-0.2,0-0.3,0c-0.5,0-0.9,0.1-0.9,0.7s0.3,0.8,0.8,0.8c0.8,0,1.5,0,2.3,0.1c0,0.5,0.2,1.1-0.8,1
	C46.9,60.4,45.9,60.4,44.8,60.4z"/>
<path d="M5.4,60.4c0-0.6,0.3-1.2,0.8-1.6c0.8-0.7,0.9-1.9,0.2-2.7l0,0c-0.1-0.1-0.1-0.2-0.2-0.2c-0.3-0.4-0.5-0.8-0.7-1.2
	c1.6-0.5,1.5,1.1,2.3,1.6c0.9-0.2,0.8-2.2,2.6-1.5c-2.8,1.9-1.1,3.8-0.1,5.6H9.4c-1.6-2.2-1.6-2.2-3.1,0L5.4,60.4z"/>
<path d="M13.1,60.4c-0.7-0.6-1.6-1-1.9-2c-0.4-1.1-0.1-2.4,0.9-3.2c0.9-0.8,2.2-1,3.3-0.5c0.4,0.1,1,0.3,0.7,0.9s-0.7,0.1-1,0
	c-1.4-0.5-2.5,0-2.9,1.1c-0.4,1,0.2,2.2,1.2,2.5l0,0h0.1c0.5,0.1,1,0.1,1.5-0.2c0.4-0.2,0.8-0.5,1,0s-0.4,0.6-0.6,0.9
	c-0.1,0.1-0.3,0.3-0.4,0.4L13.1,60.4z"/>
<path d="M41.1,60.4c-0.5-1.2-0.2-2.4-0.2-3.6c0-0.8,0-1.5-1.1-1.3c-0.3,0-0.6-0.1-0.6-0.5s0.3-0.4,0.6-0.4H43c0.3,0,0.5,0,0.6,0.4
	c0,0.3-0.2,0.5-0.4,0.5c-0.1,0-0.1,0-0.2,0c-1.3-0.2-1.1,0.7-1.1,1.5c0.1,1.2,0,2.3-0.1,3.5L41.1,60.4z"/>
<path d="M22.9,60.4c-0.2-1.7-0.2-3.3-0.1-5c0-0.4,0-0.8,0.5-0.8s0.5,0.5,0.5,0.8c0,0.9,0.1,1.7,0,2.6s0.2,1.5,1.4,1.4
	c0.7-0.1,1.4,0,1.2,1H22.9z"/>
<path style="fill:#FEFEFE;" d="M116.7,20.1h102.1c4.4,0,7.9,3.6,8,7.9l0,0c0,4.4-3.6,7.9-8,7.9H116.7c-4.4,0-7.9-3.5-7.9-7.9l0,0
	C108.8,23.7,112.3,20.1,116.7,20.1z"/>
<path style="fill:#7AB600;" d="M226.3,31.7c-0.1,2.4-2.6,4.8-5.2,5c-0.8,0.1-1.6,0.1-2.4,0.1H85.1c-3.5,0-5.5-2-5.5-5.5V7.5
	c0-3.2,2-5.2,5.3-5.2h24.2c2.7-0.2,5.1,1.8,5.3,4.5l0,0c0,0.2,0,0.5,0,0.7v12c0.1,0.5-0.3,0.9-0.7,1c-2.5,0.8-4.2,3.2-4.2,5.9
	c-0.2,1.5-0.1,2.9,0.2,4.4c0.6,2.8,3.1,4.9,6,5h103C222,35.8,224.8,35,226.3,31.7z"/>
<path style="fill:#1F3470;" d="M119.4,28.6c0.3-1.8,1.5-3.2,3.1-4c1.4-0.7,3.1-0.2,3.8,1.1v0.1c0.4-0.4,0.8-0.7,1.2-1
	c0.5-0.5,1.1-0.6,1.7-0.3c0.6,0.3,0.6,0.9,0.6,1.5c0,0.2,0,0.4,0,0.7c0.5-0.6,1-1.1,1.5-1.6s1.1-1,1.9-0.6s0.7,1.2,0.6,1.8
	c-0.2,1.2-0.5,2.4-0.7,3.7c0,0.3-0.2,0.6,0.1,0.8s0.5-0.1,0.6-0.3c0.6-0.9,1.2-0.4,1.7,0c0.2,0.2,0.5,0.5,0.6,0.7
	c0.3,0.4,0.7,0.6,1.2,0.2c0.3-0.2,0.4-0.7,0.1-1c0-0.1-0.1-0.1-0.1-0.1c-0.5-0.5-1-1-1.5-1.5c-0.8-0.7-1.1-1.7-0.7-2.7
	s1.4-1.7,2.5-1.6c1-0.1,2-0.1,2.6,1.1c0.4-0.3,0.8-0.6,1.2-0.9c0.4-0.3,1-0.3,1.5,0c0.4,0.3,0.6,0.8,0.5,1.3
	c-0.2,1.2-0.4,2.4-0.6,3.6c0,0.3-0.3,0.7,0.1,0.9s0.6-0.3,0.8-0.6c0.9-1.3,1.5-2.8,1.8-4.4c0.2-0.7,0.9-1.2,1.6-1
	c0.1,0,0.2,0.1,0.4,0.1c0.4,0.2,0.2,0.4,0.1,0.7c-0.3,1.5-0.6,3-0.9,4.5c-0.1,0.4-0.3,0.9,0.1,1.1s0.6-0.3,0.9-0.5
	c0.1-0.1,0.2-0.2,0.3-0.4c0.3,0.1,0.4,0.3,0.3,0.5c-0.6,0.9-1.4,1.6-2.5,2c-0.5,0.2-1.1,0-1.3-0.6c0,0,0,0,0-0.1
	c-0.1-0.1-0.1-0.3-0.1-0.5c0-0.5,0.1-1,0.1-1.4c-0.5,0.7-1.2,1.4-1.8,2.1c-0.5,0.4-1,0.7-1.6,0.4c-0.5-0.3-0.7-0.9-0.5-1.5
	c0.2-1.3,0.5-2.6,0.7-4c0-0.3,0.2-0.7-0.1-0.9s-0.5,0.2-0.7,0.4c-0.6,0.9-1.1,0.1-1.6-0.2c-0.3-0.1-0.4-0.5-0.6-0.7s-0.6-0.6-1-0.2
	c-0.3,0.2-0.4,0.7-0.2,1c0,0.1,0.1,0.1,0.1,0.2c0.4,0.4,0.8,0.8,1.3,1.2c1.4,1.2,1.6,2.8,0.5,3.8c-1.2,1.2-3.5,1.3-4.6,0.1
	c-0.3-0.4-0.4-0.1-0.6,0.1c-0.7,0.5-1.3,1.2-2.2,0.6s-0.5-1.5-0.4-2.2s0.4-1.7,0.5-2.6c0.1-0.3,0.3-0.8-0.1-0.9s-0.6,0.3-0.8,0.6
	c-0.9,1.3-1.5,2.7-1.8,4.2c-0.1,0.7-0.8,1.2-1.5,1.1l0,0c-0.2,0-0.3-0.1-0.4-0.1c-0.4-0.2-0.2-0.5-0.2-0.7c0.3-1.5,0.6-3,0.9-4.5
	c0.1-0.4,0.4-1-0.1-1.1c-0.5-0.1-0.9,0.4-1,0.9c0,0.2-0.1,0.5-0.1,0.7c-0.3,1.9-1.5,3.6-3.2,4.4c-1.6,0.9-3.6,0-3.7-1.4
	C119.2,29.9,119.2,29.2,119.4,28.6z"/>
<path style="fill:#1F3470;" d="M167.8,30.9c-2,1.9-3,1.9-3.9,0c-0.5,0.4-0.9,0.8-1.4,1.1c-0.4,0.4-1.1,0.4-1.6,0.1
	c-0.4-0.3-0.6-0.9-0.4-1.4c0.2-1.3,0.5-2.6,0.8-3.8c0.1-0.3,0.3-0.8-0.1-1s-0.5,0.3-0.8,0.5s-0.3,0.5-0.6,0.4c0-1.1,1.9-2.7,3-2.4
	c0.6,0.2,1,0.8,0.8,1.5l0,0c-0.2,1.3-0.5,2.7-0.8,4c0,0.3-0.2,0.6,0.1,0.8s0.5-0.2,0.8-0.4c0.2-0.2,0.3-0.5,0.4-0.8
	c0.4-2.5,2.3-4.4,4.7-5.1c0.4-0.1,0.6-0.3,0.7-0.7c0.1-0.5,0.1-0.9,0.2-1.3c0.2-0.6,0.4-1.2-0.6-1.2c-0.1,0-0.3,0-0.3-0.2
	s0.1-0.3,0.3-0.3c0.9-0.2,1.8-0.4,2.7-0.5c0.7-0.1,0.4,0.5,0.4,0.7c-0.4,2-0.8,4-1.2,6c-0.2,1.1-0.5,2.2-0.7,3.2
	c0,0.2-0.1,0.5,0.1,0.6s0.4-0.1,0.6-0.2c0.4-0.3,0.6-0.7,0.6-1.2c0.1-1.9,1.2-3.6,2.9-4.6c1.3-0.9,3-0.6,3.9,0.7l0,0
	c0.1,0.1,0.1,0.2,0.2,0.3c0.4-0.4,0.8-0.7,1.3-1.1c0.4-0.5,1.1-0.6,1.7-0.3c0.6,0.4,0.6,1,0.5,1.6c0,0.2-0.1,0.4-0.1,0.8
	c0.5-0.9,1.2-1.6,1.9-2.3c0.5-0.4,1.1-0.4,1.7-0.1c0.4,0.3,0.5,0.7,0.3,1.2c-0.1,0.5-0.6,0.9-1.1,0.9c-0.1,0-0.2,0-0.3-0.1
	c-0.9-0.5-1.3-0.1-1.7,0.6c-0.8,1.3-1.4,2.8-1.7,4.4c-0.3,0.8-1.1,1.1-1.9,0.9l0,0l-0.1-0.1c-0.2-0.2-0.1-0.4-0.1-0.6
	c0.3-1.5,0.6-3.1,0.9-4.6c0-0.4,0.5-1-0.2-1c-0.5-0.1-0.9,0.5-1,1v0.6c-0.3,1.8-1.4,3.4-3.1,4.3c-1.2,0.8-2.9,0.5-3.7-0.7l0,0l0,0
	c-0.3-0.4-0.4-0.2-0.7,0c-0.3,0.3-0.6,0.6-1,0.8C168.9,32.7,168.1,32.3,167.8,30.9z"/>
<path style="fill:#1F3470;" d="M151.5,26.8c0.5-0.6,1-1.2,1.5-1.8s1-1,1.8-0.6s0.7,1.1,0.7,1.8v0.4c0.5-0.6,1-1.2,1.6-1.7
	c0.4-0.5,1.1-0.7,1.7-0.4c0.6,0.3,0.6,0.9,0.6,1.4c-0.1,1.3-0.4,2.7-0.7,4c-0.1,0.3-0.3,0.7,0.1,0.9s0.5-0.2,0.8-0.4
	s0.3-0.7,0.6-0.4s0,0.6-0.3,0.8c-0.4,0.4-0.9,0.8-1.4,1.2c-0.4,0.4-1.1,0.5-1.6,0.2c-0.5-0.4-0.6-1-0.4-1.5c0.2-1,0.5-2.1,0.6-3.2
	c0.1-0.4,0.4-0.9-0.1-1.1s-0.6,0.4-0.8,0.7c-0.9,1.3-1.5,2.8-1.7,4.4c-0.3,0.7-1.2,1.1-1.9,0.8l0,0h-0.1c-0.2-0.2-0.1-0.4,0-0.6
	c0.3-1.3,0.5-2.5,0.8-3.8c0.1-0.3,0.1-0.6,0.1-0.9c0-0.2,0.1-0.4-0.1-0.5s-0.4,0.1-0.6,0.2c-0.7,0.8-1.2,1.7-1.5,2.6
	c-0.3,0.8-0.5,1.6-0.6,2.4c-0.2,1.2-1.1,0.7-1.7,0.7c-0.8,0-0.4-0.6-0.3-0.9c0.3-1.5,0.6-3.1,0.9-4.6c0.1-0.3,0.2-0.6-0.1-0.8
	s-0.5,0.2-0.7,0.3s-0.4,0.8-0.8,0.5s0.2-0.7,0.4-1c0.4-0.4,0.8-0.8,1.3-1.1c0.5-0.4,1.1-0.4,1.6-0.1c0.4,0.3,0.6,0.9,0.5,1.4
	C151.5,26.2,151.5,26.5,151.5,26.8z"/>
<path style="fill:#203570;" d="M119.4,28.6v2c-0.2-0.1-0.1-0.7-0.5-0.1c-0.5,0.6-1.1,1.1-1.8,1.5c-1,0.6-2.3,0.4-2.9-0.6
	c-0.2-0.3-0.3-0.6-0.3-1c-0.2-2.4,1.1-4.7,3.2-5.8c0.7-0.3,1.5-0.4,2.3-0.1c0.6,0.2,0.9,0.9,0.7,1.5c-0.1,0.3-0.4,0.6-0.7,0.7
	c-0.5,0.1-0.8-0.2-1.1-0.6s-0.3-0.9-0.9-0.8s-0.6,0.6-0.7,1c-0.4,1.1-0.6,2.2-0.5,3.4c0.1,1.2,0.9,1.6,1.9,0.9
	C118.6,29.9,119.4,29.6,119.4,28.6z"/>
<path style="fill:#78B504;" d="M187.1,31.3c-0.6-0.3-0.8-1-0.5-1.6l0,0c0.1-0.2,0.2-0.3,0.4-0.4c0.2-0.2,0.2-0.3,0-0.5
	c-0.8-0.7-1-1.9-0.4-2.9c0.5-0.9,1.6-1.4,2.6-1.2c1.1,0.3,2.2,0.4,3.3,0.4c-0.3,0.8-0.9,0.4-1.2,0.7c0.8,2.4-0.5,3.9-3,3.5
	c-0.4-0.1-0.9,0.1-1,0.5c0,0,0,0,0,0.1c-0.1,0.5,0.3,0.8,0.8,0.9c0.8,0.1,1.6,0.1,2.4,0.2s1.7,0.2,1.9,1.2c0.1,0.9-0.4,1.8-1.3,2.1
	c-1,0.5-2.1,0.6-3.2,0.3c-0.9-0.2-1.7-0.6-1.9-1.6S186.4,31.8,187.1,31.3z"/>
<path style="fill:#7AB607;" d="M207.4,31.4c-0.3,0.3,0,0.9-0.5,0.8s-0.3-0.5-0.3-0.8v-9.1c0-0.3-0.2-0.7,0.3-0.8s0.4,0.5,0.4,0.8
	v3.5c0.4,0,0.6-0.3,0.8-0.5c1.2-0.9,3-0.7,3.9,0.5c0.2,0.3,0.4,0.7,0.5,1.1c0.2,0.7,0.2,1.5,0.1,2.2c0,1.3-0.8,2.5-1.9,3
	C209.7,32.6,208.3,32.3,207.4,31.4z"/>
<path style="fill:#78B504;" d="M198.9,28.5c0,2.5-1.3,3.8-3.5,3.8c-1.4,0-2.7-0.9-3-2.3c-0.2-0.7-0.2-1.4-0.1-2.1
	c0.1-1.8,1.7-3.2,3.5-3.1s3.1,1.6,3.1,3.4C198.9,28.3,198.9,28.4,198.9,28.5z"/>
<path style="fill:#78B505;" d="M202.2,31.2c0.8-1.8,1.5-3.5,2.2-5.2c0.1-0.3,0.2-0.5,0.4-0.8c0.1-0.2,0.3-0.3,0.6-0.3
	c0.4,0.1,0.1,0.4,0,0.5c-0.9,2.1-1.7,4.1-2.6,6.2c-0.1,0.3-0.2,0.6-0.6,0.6s-0.4-0.3-0.5-0.6c-0.9-2-1.7-4-2.5-5.9
	c-0.1-0.2-0.5-0.6-0.1-0.8s0.6,0.2,0.8,0.6C200.5,27.3,201.3,29.2,202.2,31.2z"/>
<path style="fill:#7EB80F;" d="M214.5,26.5c0.7-1.2,1.5-1.8,2.7-1.7c0.3,0,0.8,0.1,0.7,0.5s-0.5,0.3-0.8,0.2
	c-1.3-0.2-2.4,0.7-2.6,1.9c0,0.1,0,0.3,0,0.4v3.7c0,0.3,0.2,0.7-0.3,0.8s-0.4-0.4-0.4-0.7v-5.8c0-0.3-0.2-0.8,0.3-0.8
	s0.3,0.5,0.4,0.8S214.4,26.2,214.5,26.5z"/>
<path style="fill:#223772;" d="M164.2,21.2c0,0.7-0.5,1.4-1.3,1.5c-0.5,0.1-1-0.3-1.1-0.9c0-0.1,0-0.1,0-0.2c0-0.8,0.6-1.4,1.4-1.5
	C163.8,20.1,164.2,20.5,164.2,21.2C164.2,21.1,164.2,21.2,164.2,21.2z"/>
<path style="fill:#7EB80E;" d="M204.1,32c0.4,0,0.7,0.2,0.7,0.6c0,0,0,0,0,0.1c0,0.3-0.2,0.6-0.6,0.7l0,0h-0.1
	c-0.3,0.1-0.6-0.2-0.7-0.5l0,0v-0.1C203.4,32.2,203.7,32,204.1,32z"/>
<path style="fill:#78B500;" d="M184.4,32.7c0,0.4-0.4,0.6-0.7,0.6l0,0l0,0c-0.3,0-0.6-0.3-0.6-0.6l0,0v-0.1c0-0.3,0.3-0.6,0.6-0.6
	c0,0,0,0,0.1,0l0,0C184.2,32,184.5,32.3,184.4,32.7C184.5,32.7,184.5,32.7,184.4,32.7L184.4,32.7z"/>
<path style="fill:#FDFDFD;" d="M100.5,7.9c0.4,1.2-0.6,1.1-1.4,1.2c-5.9,0.8-9.9,6.2-9.1,12.1c0.6,4.3,3.8,7.9,8,8.9
	c0.6,0.2,1.2,0.2,1.7,0.3c0.6,0,0.7,0.3,0.7,0.8c0,1.8,0,1.8-1.7,1.6c-7.2-0.8-12.4-7.3-11.6-14.6c0.7-6.4,6-11.4,12.4-11.7
	C100.5,6.5,100.5,6.5,100.5,7.9z"/>
<path style="fill:#FDFDFD;" d="M99.9,28c-3-0.1-5.7-1.9-6.9-4.6c-1.5-2.8-1.1-6.3,0.9-8.8c0.5-0.6,0.8-0.9,1.4-0.1
	c0.1,0.1,0.1,0.2,0.2,0.2c0.7,0.5,0.8,0.9,0.2,1.8c-1.8,2.6-1.2,6.2,1.4,8c2,1.4,4.5,1.4,6.5,0.1c0.9-0.6,1.3-0.6,2,0.2
	c0.8,0.9,0.8,0.9-0.1,1.6C103.9,27.6,101.9,28.1,99.9,28z"/>
<path style="fill:#FCFDFB;" d="M106.7,19.9c0,1-0.9,1.8-1.9,1.8s-1.8-0.9-1.8-1.9s0.9-1.8,1.9-1.8S106.7,18.9,106.7,19.9z"/>
<path style="fill:#FCFDFB;" d="M102.1,15.4c0,1-0.8,1.8-1.8,1.8l0,0l0,0c-1,0-1.9-0.8-1.9-1.8c0-1.1,0.9-1.9,1.9-1.9l0,0l0,0
	C101.4,13.6,102.1,14.4,102.1,15.4z"/>
<path style="fill:#FCFCFC;" d="M124.1,27.1c0,1.3-0.4,2.6-1.1,3.8c-0.2,0.4-0.5,0.7-1,0.6s-0.5-0.6-0.5-1c-0.1-1.5,0.2-3.1,0.9-4.4
	c0.3-0.5,0.6-1.1,1.2-0.9s0.5,0.8,0.5,1.3C124.2,26.5,124.1,26.7,124.1,27.1z"/>
<path style="fill:#FBFBFC;" d="M173.7,29.5c0-1.3,0.4-2.6,1.1-3.8c0.2-0.4,0.5-0.8,1.1-0.7s0.5,0.7,0.5,1c0.1,1.5-0.2,3.1-0.9,4.4
	c-0.2,0.5-0.6,1.1-1.2,0.9s-0.5-0.8-0.5-1.3C173.7,30,173.7,29.9,173.7,29.5z"/>
<path style="fill:#FAFBFB;" d="M166.2,29.3c0-1.2,0.4-2.4,1.1-3.4c0.3-0.4,0.7-0.8,1.2-0.6s0.3,0.7,0.2,1.1c-0.1,1.1-0.4,2.2-1,3.2
	c-0.2,0.4-0.4,1.1-1,1S166.3,29.8,166.2,29.3z"/>
<path style="fill:#203570;" d="M155.4,11.4c-0.9-0.3-1.9-0.2-2.7,0.4c-0.2,0.1-0.3,0.4-0.6,0.4c0-0.4,0-0.9-0.7-0.9
	s-0.5,0.6-0.5,0.9v7.9c0,0.4,0,0.8,0.6,0.8s0.7-0.3,0.7-0.8v-2.8c0.5,0.6,1.2,0.9,2,0.9c1.6,0.1,3-1,3.2-2.6
	C157.7,13.8,156.9,11.9,155.4,11.4z M156,15.8c-0.2,1-1.2,1.7-2.2,1.6s-1.7-1-1.6-2v-0.5l0,0c0-0.3,0-0.7,0.1-1
	c0.1-0.9,0.9-1.6,1.8-1.7c0.9-0.1,1.7,0.5,1.9,1.4C156.2,14.3,156.2,15.1,156,15.8L156,15.8z"/>
<path style="fill:#203570;" d="M174.5,8.9c0-0.5,0-0.8-0.6-0.8s-0.6,0.3-0.6,0.8v3.3c-0.5-0.6-1.2-0.9-2-0.9c-1.4-0.1-2.6,0.8-3,2.2
	c-0.6,1.6-0.1,3.3,1.1,4.4c1.1,0.8,2.5,0.6,4-0.6c-0.2,0.7,0.1,1.1,0.7,0.9s0.3-0.7,0.3-1C174.6,14.4,174.5,11.7,174.5,8.9z
	 M173.2,15.9c-0.2,1-1.1,1.7-2.1,1.5c-0.7-0.1-1.2-0.6-1.4-1.2c-0.4-0.8-0.4-1.8-0.1-2.6c0.3-1,1.4-1.5,2.4-1.2
	c0.7,0.3,1.3,0.9,1.3,1.7v0.7l0,0C173.3,15.2,173.2,15.6,173.2,15.9L173.2,15.9z"/>
<path style="fill:#203570;" d="M120.4,8.7c-0.4-0.1-0.9-0.1-1.3-0.1s-1,0.1-1.5,0.1s-0.7,0.3-0.7,0.8v8c0,0.5,0.2,0.7,0.7,0.7
	s0.6-0.2,0.6-0.7v-2.2c0-0.6,0.1-0.9,0.8-0.8c0.7,0.1,1.5,0,2.1-0.3c1.2-0.5,2-1.8,1.7-3.1C122.7,9.8,121.7,8.8,120.4,8.7z
	 M121.1,12.7c-0.7,0.6-1.6,0.9-2.6,0.7c-0.4,0-0.4-0.3-0.4-0.6c0-0.7,0-1.4,0-2.2c-0.1-0.9,0.3-1.3,1-1.1c1,0,1.8,0.2,2.2,1
	C121.7,11.3,121.6,12.1,121.1,12.7L121.1,12.7z"/>
<path style="fill:#203570;" d="M161.5,11.3c-1.8-0.1-3.4,1.4-3.4,3.2c0,0.1,0,0.3,0,0.4c-0.2,1.8,1.1,3.3,2.9,3.5h0.4
	c1.8,0.1,3.4-1.3,3.5-3.1l0,0c0-0.1,0-0.3,0-0.4c0.2-1.8-1.1-3.4-2.9-3.5l0,0C161.7,11.3,161.6,11.3,161.5,11.3z M163.1,16.3
	c-0.3,0.7-1,1.1-1.7,1.1c-0.8,0-1.5-0.4-1.8-1.1c-0.2-0.5-0.4-1-0.3-1.5c0-0.6,0.1-1.2,0.5-1.8c0.5-0.9,1.6-1.1,2.5-0.6
	c0.3,0.2,0.5,0.4,0.7,0.7C163.6,14,163.7,15.3,163.1,16.3L163.1,16.3z"/>
<path style="fill:#203570;" d="M179.1,11.3c-1.8,0-3.3,1.5-3.4,3.3l0,0c0,0.1,0,0.2,0,0.4c-0.1,1.8,1.2,3.3,2.9,3.4l0,0
	c0.1,0,0.3,0,0.4,0c1.8,0.1,3.3-1.4,3.4-3.2l0,0c0-0.2,0-0.3,0-0.5c0.1-1.8-1.2-3.3-2.9-3.4l0,0C179.5,11.3,179.1,11.3,179.1,11.3z
	 M180.7,16.6c-0.5,0.9-1.6,1.2-2.5,0.7c-0.3-0.2-0.5-0.4-0.7-0.7c-0.6-1.1-0.6-2.4,0-3.4c0.6-0.9,1.7-1.2,2.6-0.6
	c0.3,0.2,0.5,0.4,0.6,0.6c0.3,0.5,0.5,1.1,0.5,1.7S181,16.1,180.7,16.6L180.7,16.6z"/>
<path style="fill:#203570;" d="M128.5,15.6L128.5,15.6v-1.8c0.1-1-0.4-1.9-1.3-2.3c-1.1-0.5-2.3-0.4-3.3,0.1
	c-0.3,0.2-0.2,0.4-0.1,0.6s0.3,0.2,0.5,0.2c0.3-0.1,0.6-0.2,0.9-0.3c1.1-0.1,1.8,0.2,1.9,1c0.1,0.4,0.1,0.6-0.4,0.6
	c-0.6,0-1.2,0.1-1.8,0.3c-0.9,0.2-1.6,0.9-1.8,1.9c-0.2,0.8,0.2,1.6,0.9,2c0.8,0.5,1.9,0.4,2.7-0.1c0.3-0.1,0.5-0.7,0.8,0.1
	c0.1,0.3,0.5,0.2,0.8,0.1s0.2-0.3,0.2-0.5C128.5,17,128.5,16.3,128.5,15.6z M127.3,15.6c0.1,0.9-0.6,1.7-1.5,1.8
	c-0.5,0.1-0.9-0.1-1.2-0.5c-0.3-0.4-0.3-0.9,0-1.3c0.6-0.7,1.6-1,2.5-0.9C127.4,15,127.2,15.3,127.3,15.6z"/>
<path style="fill:#203570;" d="M137.5,12.4c0.4,0.1,0.5-0.1,0.5-0.5s-0.2-0.5-0.6-0.5c-1,0.2-1.4-0.2-1.2-1.2c0-0.2,0.1-0.6-0.2-0.7
	c-0.3,0-0.6,0-0.9,0.2s-0.2,0.5-0.2,0.8c0,0.5,0,0.9-0.7,0.8c-0.3,0-0.4,0.2-0.4,0.4s0,0.6,0.4,0.5c0.6-0.1,0.7,0.3,0.6,0.8
	s0,1,0,1.5l0,0c0,0.6,0,1.3,0,1.9c0,1,0.9,1.8,1.9,1.8c0.2,0,0.3,0,0.5-0.1c0.4-0.1,0.6-0.2,0.6-0.6s-0.2-0.4-0.6-0.4
	c-0.8,0.1-1.1-0.4-1.1-1s0-1.6,0-2.4C136.2,12.8,136.3,12.1,137.5,12.4z"/>
<path style="fill:#203570;" d="M146,12.5c0.4,0.1,0.6,0.1,0.7-0.3s0-0.6-0.4-0.6c-1.4-0.4-2.9-0.1-3.9,0.9c-1,1.1-1.3,2.6-0.7,4
	c0.6,1.3,2,2.1,3.4,1.9c0.3,0,0.6-0.1,0.9-0.1c0.4-0.1,0.8,0,0.7-0.7s-0.6-0.3-0.9-0.3c-1.3,0.4-2.6-0.3-3-1.6c-0.2-0.5-0.2-1,0-1.6
	C143.2,12.7,144.3,12.1,146,12.5z"/>
<path style="fill:#203570;" d="M133.5,11.7c0-0.4-0.3-0.4-0.6-0.4c-0.7,0.1-1.1,0.6-1.7,1.2c0-0.6,0.1-1.1-0.6-1.1s-0.5,0.6-0.5,0.9
	v5.2c0,0.5,0.1,0.7,0.6,0.7s0.6-0.2,0.6-0.7v-3c-0.1-1,0.6-1.9,1.5-2l0,0h0.1C133.7,12.4,133.5,12,133.5,11.7z"/>
<path style="fill:#203570;" d="M140.3,14.9V12c0-0.4-0.2-0.5-0.6-0.5s-0.7,0-0.7,0.6v5.7c0,0.5,0.2,0.5,0.6,0.5s0.7,0,0.7-0.5
	C140.3,16.7,140.3,15.8,140.3,14.9z"/>
<path style="fill:#203570;" d="M149.2,12.1c0-0.4,0-0.7-0.5-0.7S148,11.5,148,12c0,0.9,0,1.8,0,2.8v2.7c0,0.5,0.1,0.7,0.7,0.7
	s0.6-0.2,0.6-0.6C149.1,15.7,149.1,13.9,149.2,12.1z"/>
<path style="fill:#203570;" d="M148.6,8.7c-0.4,0-0.7,0.2-0.8,0.6c0,0.1,0,0.1,0,0.2c0,0.5,0.3,0.8,0.8,0.8c0.4,0,0.7-0.3,0.7-0.7
	l0,0V9.4c0-0.4-0.3-0.7-0.6-0.7H148.6z"/>
<path style="fill:#203570;" d="M139.7,8.7c-0.4,0-0.7,0.3-0.7,0.7c0,0,0,0,0,0.1c0,0.4,0.2,0.7,0.6,0.8l0,0h0.1
	c0.5,0,0.8-0.3,0.8-0.8c0-0.4-0.3-0.7-0.7-0.7l0,0L139.7,8.7z"/>
<path style="fill:#FCFDFB;" d="M188.8,35.4c-0.4,0-0.9-0.1-1.2-0.3c-0.6-0.3-1.2-0.7-1-1.5c0.1-0.7,0.8-1.2,1.6-1.2
	c0.8,0,1.6,0.1,2.3,0.2c0.5,0.1,1,0.2,1.1,0.8s-0.2,1.1-0.7,1.4C190.3,35.3,189.5,35.4,188.8,35.4z"/>
<path style="fill:#FDFDFC;" d="M190.9,27.1c0.1,1.1-0.7,2.1-1.8,2.2c-1.1,0.1-2.1-0.7-2.2-1.8s0.7-2.1,1.8-2.2h0.1h0.1
	c1-0.1,1.8,0.5,2,1.5l0,0C190.9,26.9,190.9,27,190.9,27.1z"/>
<path style="fill:#FDFEFD;" d="M207.4,28.6c0.1-0.9-0.2-2,0.8-2.7c1-0.8,2.4-0.7,3.2,0.2c0.3,0.3,0.4,0.7,0.5,1.1c0.3,1,0.2,2-0.1,3
	c-0.4,1-1.4,1.6-2.5,1.5c-1,0.1-1.9-0.7-1.9-1.7l0,0c0-0.1,0-0.2,0-0.4V28.6z"/>
<path style="fill:#FEFEFD;" d="M198.2,28.6c-0.1,2.2-1.5,3.5-3.3,3c-1.4-0.4-2.1-1.9-1.8-4c0.1-1.4,1.2-2.4,2.6-2.4h0.1
	C197.3,25.4,198.3,26.7,198.2,28.6z"/>
</svg>
