<?xml version="1.0" encoding="utf-8"?>
<!-- Generator: Adobe Illustrator 26.3.0, SVG Export Plug-In . SVG Version: 6.00 Build 0)  -->
<svg version="1.1" id="Camada_1" xmlns="http://www.w3.org/2000/svg" xmlns:xlink="http://www.w3.org/1999/xlink" x="0px" y="0px"
	 viewBox="0 0 402.9 61.3" style="enable-background:new 0 0 402.9 61.3;" xml:space="preserve">
<style type="text/css">
	.st0{fill:#EA2328;}
	.st1{fill:#090807;}
	.st2{fill:#EB2D31;}
	.st3{fill:#A2DBE9;}
	.st4{fill:#83C7DB;}
	.st5{fill:#C7E8EF;}
	.st6{fill:#C6E7EF;}
	.st7{fill:#0A0908;}
	.st8{fill:#0D0C0B;}
	.st9{fill:#FEFBFB;}
	.st10{fill:#EA2729;}
	.st11{fill:#FAFAFA;}
	.st12{fill:#EE4B44;}
	.st13{fill:#FEFEFE;}
	.st14{fill:#7AB600;}
	.st15{fill:#1F3470;}
	.st16{fill:#203570;}
	.st17{fill:#78B504;}
	.st18{fill:#7AB607;}
	.st19{fill:#78B505;}
	.st20{fill:#7EB80F;}
	.st21{fill:#223772;}
	.st22{fill:#7EB80E;}
	.st23{fill:#78B500;}
	.st24{fill:#FDFDFD;}
	.st25{fill:#FCFDFB;}
	.st26{fill:#FCFCFC;}
	.st27{fill:#FBFBFC;}
	.st28{fill:#FAFBFB;}
	.st29{fill:#FDFDFC;}
	.st30{fill:#FDFEFD;}
	.st31{fill:#FEFEFD;}
	.st32{fill:#4385F3;}
	.st33{fill:#599C32;}
	.st34{fill:#DEDFDE;}
	.st35{fill:#39AA57;}
	.st36{fill:#529E57;}
	.st37{fill:#F8F9F8;}
	.st38{fill:#EEF4EE;}
	.st39{fill:#E1EEE1;}
	.st40{fill:#F5F8F5;}
	.st41{fill:#27762E;}
	.st42{fill:#FABC07;}
	.st43{fill:#E94437;}
	.st44{fill:#E94436;}
	.st45{fill:#757575;}
</style>
<path class="st0" d="M192.1,0.2c0.1,0.4,0.5,0.3,0.7,0.4c2.9,1.1,4.2,4.4,3.1,7.2s-4.4,4.2-7.2,3.1s-4.2-4.4-3.1-7.2
	c0.6-1.4,1.7-2.5,3.1-3.1l1-0.4L192.1,0.2z"/>
<path class="st1" d="M199.7,0.2v3.5c1.5-0.5,2.9-0.8,4.1,0.4c1,1,1.4,2.3,1.1,3.7c-0.2,1.9-1.7,3.3-3.6,3.4c-0.5,0.1-1,0.1-1.5,0
	c-2.6-0.2-2.6-0.2-2.6-2.7V0.1L199.7,0.2z"/>
<path class="st2" d="M207.4,0.2c0.1,0.6,0.6,1.1,0,1.7c-0.3,0.4-0.9,0.4-1.3,0.1c-0.8-0.6-0.4-1.2,0.1-1.8L207.4,0.2z"/>
<path class="st3" d="M200.7,49.6c-0.4,0.8-0.8,0.8-1.2,0c-2.8-7.2-5-14.6-7.7-21.9c-0.8-2.6-1.1-5.3-1.7-8c-0.1-0.5,0-1,0.2-1.5h9.5
	c0.4,0.8-0.3,1.2-0.7,1.7c-1.9,2.4-3.9,4.6-5.9,7.2h13.6c-0.6-1-1.3-2-2.1-2.9c-1.2-1.5-2.4-3-3.7-4.4c-0.4-0.4-0.8-0.8-0.5-1.5h9.5
	c0.3,0.5,0.4,1,0.3,1.6c-0.6,2.6-1,5.3-1.7,7.8c-2.4,6.4-4.5,12.9-6.7,19.3C201.2,47.9,200.9,48.7,200.7,49.6z"/>
<path class="st4" d="M200.7,49.6c-0.3-1.2,0.4-2.2,0.8-3.2c2-6,4.1-11.9,6.2-17.8c0.1-0.3,0.1-0.6,0.4-0.8c0.4-0.4,1-0.5,1.6-0.5
	h7.9c0.6-0.1,1.1,0.1,1.6,0.5c-4,4.8-8,9.6-12.1,14.4C204.9,44.7,202.8,47.1,200.7,49.6z"/>
<path class="st4" d="M192.1,27.8c1.2,2.5,2.2,5.2,2.9,7.8c1.5,4.1,2.9,8.3,4.3,12.4c0.1,0.5,0.7,1,0.2,1.5
	c-6.1-7.3-12.3-14.5-18.4-21.8C184.6,27,188.4,27,192.1,27.8z"/>
<path class="st5" d="M200.4,18.3c1.2,2,3,3.6,4.4,5.5c0.9,1.2,2.1,2.2,2.8,3.6h-15.2l6.5-7.8c0.4-0.4,0.9-0.7,0.9-1.4L200.4,18.3z"
	/>
<path class="st5" d="M219.1,27.8h-11.1c0.5-3.2,1.5-6.3,1.8-9.5c2.7,2.9,5.6,5.7,8.5,8.4C218.7,27,219.4,27.1,219.1,27.8z"/>
<path class="st6" d="M192.1,27.8h-11c1.6-2,3.6-3.6,5.3-5.5c1.3-1.4,2.6-2.7,3.9-4C190.6,21.6,191.4,24.6,192.1,27.8z"/>
<path class="st7" d="M213.5,11.2c-2,0-2.9-0.8-3-2.8V5.8c0-0.6,0.1-1.1-0.8-1.2c-0.5,0-0.5-0.4-0.5-0.8s0-0.6,0.3-0.6
	c1.1,0.1,0.9-0.7,0.9-1.3c-0.1-0.9,0.3-1.1,1.1-1.1s1.1,0.4,1,1.2s-0.1,1.3,1,1.2c0.6-0.1,0.7,0.3,0.8,0.8s-0.3,0.8-0.7,0.7
	c-1-0.2-1,0.4-1,1.2v2.4c0,0.6,0.2,1.1,0.9,1c0.9-0.1,1.4,0.2,1.3,1.1S213.9,11,213.5,11.2z"/>
<path class="st8" d="M208.3,7.3v2.6c0,0.9,0,1.3-1.1,1.4s-1-0.6-1-1.3c0-1.9,0.1-3.8,0-5.7c0-0.8,0.2-1.1,1-1s1.2,0.1,1.1,1
	S208.3,6.2,208.3,7.3z"/>
<path class="st9" d="M192.7,6.9c1.2,1.1,1.1,1.5-0.4,2c-1.5,0.5-3.1,0.1-4.2-1.1c-0.9-1.2-1-2.9-0.2-4.2c0.8-1.3,2.4-1.8,3.9-1.4
	c1.6,0.4,2.2,1.5,2.4,3.9c-1.2,0.3-2.3,0.5-3.5,0.6C191.4,7.4,192.1,6.4,192.7,6.9z"/>
<path class="st10" d="M192.7,6.9c-0.8,0.2-1.5,1.1-2.5,0.5c-0.3-0.2-0.7-0.4-0.5-0.8s0.5-0.2,0.8-0.2c1.3,0,2.5-0.1,3.8-0.1
	C193.9,6.9,193,6.3,192.7,6.9z"/>
<path class="st11" d="M199.7,7.6c-0.1-1.2-0.1-2.3,1.4-2.4c1.2-0.1,1.5,0.9,1.6,1.9c0.1,1.1-0.6,2-1.7,2.2c-0.1,0-0.2,0-0.3,0
	C199.2,9.2,199.9,8.1,199.7,7.6z"/>
<path class="st12" d="M190.7,5c-0.4-0.2-1.1,0.2-1.1-0.4s0.6-0.9,1.2-0.9s1.2,0.2,1.2,0.8C192,5.4,191.1,4.8,190.7,5z"/>
<path d="M209,60.4v-4.9c0-0.3-0.2-0.8,0.3-0.9c0.4-0.1,0.8,0.1,1,0.4c0.9,1.1,1.8,2.2,2.9,3.7v-3.4c0-0.3-0.1-0.8,0.5-0.8
	s0.5,0.4,0.5,0.8c0,1.7,0,3.4-0.1,5.1h-0.9l-3-3.8c-0.3,0.6-0.4,1.2-0.3,1.9c0,0.7,0,1.3-0.1,2L209,60.4z"/>
<path d="M193.6,60.4c0-1.5,0.1-3.1,0-4.6c-0.1-1,0.3-1.3,1.3-1.3c0.7,0.1,1.4,0,2.1,0c0.2,0,0.5,0,0.6,0.4s-0.2,0.5-0.6,0.5h-1.7
	c-0.6,0-0.8,0.1-0.8,0.7s0.2,0.8,0.8,0.9s1.8-0.5,1.8,0.4s-1.1,0.4-1.8,0.5s-0.9,0.2-0.8,0.8s0.4,0.7,0.9,0.7h1.5
	c0.8,0,0.8,0.4,0.6,1L193.6,60.4z"/>
<path d="M176.7,54.6h3.1c0.4,0,0.9-0.2,0.9,0.5s-0.6,0.4-1,0.4c-0.5,0-0.9,0-1.4,0c-0.6,0-0.7,0.3-0.7,0.8s0.2,0.7,0.7,0.8
	c0.7,0.1,1.9-0.5,1.9,0.5s-1.2,0.3-1.9,0.4c-0.5,0.1-0.8,0.2-0.8,0.7c-0.1,0.4,0.2,0.7,0.6,0.8c0.1,0,0.2,0,0.3,0c0.6,0,1,0,1.5,0
	c0.8,0,0.8,0.4,0.7,1c-1.3,0-3.2,0.5-3.9-0.1s-0.1-2.5-0.1-3.8L176.7,54.6z"/>
<path d="M203.7,60.4c0-1.6,0-3.2-0.1-4.9c0-0.7,0.2-1,1-1h2.3c0.3,0,0.8-0.1,0.8,0.5s-0.5,0.4-0.8,0.4c-0.5,0-0.9,0-1.4,0
	c-0.5,0-0.9,0.1-0.9,0.7s0.3,0.7,0.8,0.8s1.8-0.5,1.8,0.4s-1.1,0.4-1.8,0.5s-0.9,0.1-0.9,0.8s0.3,0.8,0.9,0.8s0.9,0,1.4,0
	c0.8-0.1,0.9,0.4,0.9,1L203.7,60.4z"/>
<path d="M221,60.4c0-1.7-0.1-3.3-0.1-5c0-0.7,0.3-0.9,0.9-0.8h3.2v0.9h-2c-0.5,0-1.1-0.2-1.1,0.8s0.6,0.7,1.2,0.8s1.5-0.4,1.5,0.4
	c0,0.7-0.9,0.3-1.4,0.4c-0.1,0-0.2,0-0.3,0c-0.5,0-0.9,0.1-0.9,0.7s0.3,0.8,0.8,0.8c0.8,0,1.5,0,2.3,0.1c0,0.5,0.2,1.1-0.8,1
	C223.1,60.4,222.1,60.4,221,60.4z"/>
<path d="M181.6,60.4c0-0.6,0.3-1.2,0.8-1.6c0.8-0.7,0.9-1.9,0.2-2.7c0,0,0,0,0,0c-0.1-0.1-0.1-0.2-0.2-0.2c-0.3-0.4-0.5-0.8-0.7-1.2
	c1.6-0.5,1.5,1.1,2.3,1.6c0.9-0.2,0.8-2.2,2.6-1.5c-2.8,1.9-1.1,3.8-0.1,5.6h-0.9c-1.6-2.2-1.6-2.2-3.1,0L181.6,60.4z"/>
<path d="M189.3,60.4c-0.7-0.6-1.6-1-1.9-2c-0.4-1.1-0.1-2.4,0.9-3.2c0.9-0.8,2.2-1,3.3-0.5c0.4,0.1,1,0.3,0.7,0.9s-0.7,0.1-1,0
	c-1.4-0.5-2.5,0-2.9,1.1c-0.4,1,0.2,2.2,1.2,2.5c0,0,0,0,0,0h0.1c0.5,0.1,1,0.1,1.5-0.2c0.4-0.2,0.8-0.5,1,0s-0.4,0.6-0.6,0.9
	c-0.1,0.1-0.3,0.3-0.4,0.4L189.3,60.4z"/>
<path d="M217.3,60.4c-0.5-1.2-0.2-2.4-0.2-3.6c0-0.8,0-1.5-1.1-1.3c-0.3,0-0.6-0.1-0.6-0.5s0.3-0.4,0.6-0.4h3.2c0.3,0,0.5,0,0.6,0.4
	c0,0.3-0.2,0.5-0.4,0.5c-0.1,0-0.1,0-0.2,0c-1.3-0.2-1.1,0.7-1.1,1.5c0.1,1.2,0,2.3-0.1,3.5L217.3,60.4z"/>
<path d="M199.1,60.4c-0.2-1.7-0.2-3.3-0.1-5c0-0.4,0-0.8,0.5-0.8s0.5,0.5,0.5,0.8c0,0.9,0.1,1.7,0,2.6s0.2,1.5,1.4,1.4
	c0.7-0.1,1.4,0,1.2,1L199.1,60.4z"/>
<path class="st13" d="M292.9,20.1H395c4.4,0,7.9,3.6,8,7.9l0,0c0,4.4-3.6,7.9-8,7.9H292.9c-4.4,0-7.9-3.5-7.9-7.9l0,0
	C285,23.7,288.5,20.1,292.9,20.1z"/>
<path class="st14" d="M402.5,31.7c-0.1,2.4-2.6,4.8-5.2,5c-0.8,0.1-1.6,0.1-2.4,0.1H261.3c-3.5,0-5.5-2-5.5-5.5V7.5
	c0-3.2,2-5.2,5.3-5.2h24.2c2.7-0.2,5.1,1.8,5.3,4.5c0,0,0,0,0,0c0,0.2,0,0.5,0,0.7v12c0.1,0.5-0.3,0.9-0.7,1
	c-2.5,0.8-4.2,3.2-4.2,5.9c-0.2,1.5-0.1,2.9,0.2,4.4c0.6,2.8,3.1,4.9,6,5h103C398.2,35.8,401,35,402.5,31.7z"/>
<path class="st15" d="M295.6,28.6c0.3-1.8,1.5-3.2,3.1-4c1.4-0.7,3.1-0.2,3.8,1.1v0.1c0.4-0.4,0.8-0.7,1.2-1
	c0.5-0.5,1.1-0.6,1.7-0.3c0.6,0.3,0.6,0.9,0.6,1.5c0,0.2,0,0.4,0,0.7c0.5-0.6,1-1.1,1.5-1.6s1.1-1,1.9-0.6s0.7,1.2,0.6,1.8
	c-0.2,1.2-0.5,2.4-0.7,3.7c0,0.3-0.2,0.6,0.1,0.8s0.5-0.1,0.6-0.3c0.6-0.9,1.2-0.4,1.7,0c0.2,0.2,0.5,0.5,0.6,0.7
	c0.3,0.4,0.7,0.6,1.2,0.2c0.3-0.2,0.4-0.7,0.1-1c0-0.1-0.1-0.1-0.1-0.1c-0.5-0.5-1-1-1.5-1.5c-0.8-0.7-1.1-1.7-0.7-2.7
	c0.4-1,1.4-1.7,2.5-1.6c1-0.1,2-0.1,2.6,1.1c0.4-0.3,0.8-0.6,1.2-0.9c0.4-0.3,1-0.3,1.5,0c0.4,0.3,0.6,0.8,0.5,1.3
	c-0.2,1.2-0.4,2.4-0.6,3.6c0,0.3-0.3,0.7,0.1,0.9s0.6-0.3,0.8-0.6c0.9-1.3,1.5-2.8,1.8-4.4c0.2-0.7,0.9-1.2,1.6-1
	c0.1,0,0.2,0.1,0.4,0.1c0.4,0.2,0.2,0.4,0.1,0.7c-0.3,1.5-0.6,3-0.9,4.5c-0.1,0.4-0.3,0.9,0.1,1.1s0.6-0.3,0.9-0.5
	c0.1-0.1,0.2-0.2,0.3-0.4c0.3,0.1,0.4,0.3,0.3,0.5c-0.6,0.9-1.4,1.6-2.5,2c-0.5,0.2-1.1,0-1.3-0.6c0,0,0,0,0-0.1
	c-0.1-0.1-0.1-0.3-0.1-0.5c0-0.5,0.1-1,0.1-1.4c-0.5,0.7-1.2,1.4-1.8,2.1c-0.5,0.4-1,0.7-1.6,0.4c-0.5-0.3-0.7-0.9-0.5-1.5
	c0.2-1.3,0.5-2.6,0.7-4c0-0.3,0.2-0.7-0.1-0.9s-0.5,0.2-0.7,0.4c-0.6,0.9-1.1,0.1-1.6-0.2c-0.3-0.1-0.4-0.5-0.6-0.7s-0.6-0.6-1-0.2
	c-0.3,0.2-0.4,0.7-0.2,1c0,0.1,0.1,0.1,0.1,0.2c0.4,0.4,0.8,0.8,1.3,1.2c1.4,1.2,1.6,2.8,0.5,3.8c-1.2,1.2-3.5,1.3-4.6,0.1
	c-0.3-0.4-0.4-0.1-0.6,0.1c-0.7,0.5-1.3,1.2-2.2,0.6s-0.5-1.5-0.4-2.2s0.4-1.7,0.5-2.6c0.1-0.3,0.3-0.8-0.1-0.9s-0.6,0.3-0.8,0.6
	c-0.9,1.3-1.5,2.7-1.8,4.2c-0.1,0.7-0.8,1.2-1.5,1.1c0,0,0,0,0,0c-0.2,0-0.3-0.1-0.4-0.1c-0.4-0.2-0.2-0.5-0.2-0.7
	c0.3-1.5,0.6-3,0.9-4.5c0.1-0.4,0.4-1-0.1-1.1s-0.9,0.4-1,0.9c0,0.2-0.1,0.5-0.1,0.7c-0.3,1.9-1.5,3.6-3.2,4.4
	c-1.6,0.9-3.6,0-3.7-1.4C295.4,29.9,295.4,29.2,295.6,28.6z"/>
<path class="st15" d="M344,30.9c-2,1.9-3,1.9-3.9,0c-0.5,0.4-0.9,0.8-1.4,1.1c-0.4,0.4-1.1,0.4-1.6,0.1c-0.4-0.3-0.6-0.9-0.4-1.4
	c0.2-1.3,0.5-2.6,0.8-3.8c0.1-0.3,0.3-0.8-0.1-1s-0.5,0.3-0.8,0.5s-0.3,0.5-0.6,0.4c0-1.1,1.9-2.7,3-2.4c0.6,0.2,1,0.8,0.8,1.5l0,0
	c-0.2,1.3-0.5,2.7-0.8,4c0,0.3-0.2,0.6,0.1,0.8s0.5-0.2,0.8-0.4c0.2-0.2,0.3-0.5,0.4-0.8c0.4-2.5,2.3-4.4,4.7-5.1
	c0.4-0.1,0.6-0.3,0.7-0.7c0.1-0.5,0.1-0.9,0.2-1.3c0.2-0.6,0.4-1.2-0.6-1.2c-0.1,0-0.3,0-0.3-0.2c0-0.2,0.1-0.3,0.3-0.3
	c0.9-0.2,1.8-0.4,2.7-0.5c0.7-0.1,0.4,0.5,0.4,0.7c-0.4,2-0.8,4-1.2,6c-0.2,1.1-0.5,2.2-0.7,3.2c0,0.2-0.1,0.5,0.1,0.6
	s0.4-0.1,0.6-0.2c0.4-0.3,0.6-0.7,0.6-1.2c0.1-1.9,1.2-3.6,2.9-4.6c1.3-0.9,3-0.6,3.9,0.7c0,0,0,0,0,0c0.1,0.1,0.1,0.2,0.2,0.3
	c0.4-0.4,0.8-0.7,1.3-1.1c0.4-0.5,1.1-0.6,1.7-0.3c0.6,0.4,0.6,1,0.5,1.6c0,0.2-0.1,0.4-0.1,0.8c0.5-0.9,1.2-1.6,1.9-2.3
	c0.5-0.4,1.1-0.4,1.7-0.1c0.4,0.3,0.5,0.7,0.3,1.2c-0.1,0.5-0.6,0.9-1.1,0.9c-0.1,0-0.2,0-0.3-0.1c-0.9-0.5-1.3-0.1-1.7,0.6
	c-0.8,1.3-1.4,2.8-1.7,4.4c-0.3,0.8-1.1,1.1-1.9,0.9c0,0,0,0,0,0l-0.1-0.1c-0.2-0.2-0.1-0.4-0.1-0.6c0.3-1.5,0.6-3.1,0.9-4.6
	c0-0.4,0.5-1-0.2-1c-0.5-0.1-0.9,0.5-1,1v0.6c-0.3,1.8-1.4,3.4-3.1,4.3c-1.2,0.8-2.9,0.5-3.7-0.7c0,0,0,0,0,0v0
	c-0.3-0.4-0.4-0.2-0.7,0c-0.3,0.3-0.6,0.6-1,0.8C345.1,32.7,344.3,32.3,344,30.9z"/>
<path class="st15" d="M327.7,26.8c0.5-0.6,1-1.2,1.5-1.8s1-1,1.8-0.6s0.7,1.1,0.7,1.8v0.4c0.5-0.6,1-1.2,1.6-1.7
	c0.4-0.5,1.1-0.7,1.7-0.4c0.6,0.3,0.6,0.9,0.6,1.4c-0.1,1.3-0.4,2.7-0.7,4c-0.1,0.3-0.3,0.7,0.1,0.9s0.5-0.2,0.8-0.4
	s0.3-0.7,0.6-0.4s0,0.6-0.3,0.8c-0.4,0.4-0.9,0.8-1.4,1.2c-0.4,0.4-1.1,0.5-1.6,0.2c-0.5-0.4-0.6-1-0.4-1.5c0.2-1,0.5-2.1,0.6-3.2
	c0.1-0.4,0.4-0.9-0.1-1.1s-0.6,0.4-0.8,0.7c-0.9,1.3-1.5,2.8-1.7,4.4c-0.3,0.7-1.2,1.1-1.9,0.8c0,0,0,0,0,0h-0.1
	c-0.2-0.2-0.1-0.4,0-0.6c0.3-1.3,0.5-2.5,0.8-3.8c0.1-0.3,0.1-0.6,0.1-0.9c0-0.2,0.1-0.4-0.1-0.5s-0.4,0.1-0.6,0.2
	c-0.7,0.8-1.2,1.7-1.5,2.6c-0.3,0.8-0.5,1.6-0.6,2.4c-0.2,1.2-1.1,0.7-1.7,0.7c-0.8,0-0.4-0.6-0.3-0.9c0.3-1.5,0.6-3.1,0.9-4.6
	c0.1-0.3,0.2-0.6-0.1-0.8s-0.5,0.2-0.7,0.3s-0.4,0.8-0.8,0.5s0.2-0.7,0.4-1c0.4-0.4,0.8-0.8,1.3-1.1c0.5-0.4,1.1-0.4,1.6-0.1
	c0.4,0.3,0.6,0.9,0.5,1.4C327.7,26.2,327.7,26.5,327.7,26.8z"/>
<path class="st16" d="M295.6,28.6v2c-0.2-0.1-0.1-0.7-0.5-0.1c-0.5,0.6-1.1,1.1-1.8,1.5c-1,0.6-2.3,0.4-2.9-0.6
	c-0.2-0.3-0.3-0.6-0.3-1c-0.2-2.4,1.1-4.7,3.2-5.8c0.7-0.3,1.5-0.4,2.3-0.1c0.6,0.2,0.9,0.9,0.7,1.5c-0.1,0.3-0.4,0.6-0.7,0.7
	c-0.5,0.1-0.8-0.2-1.1-0.6s-0.3-0.9-0.9-0.8s-0.6,0.6-0.7,1c-0.4,1.1-0.6,2.2-0.5,3.4c0.1,1.2,0.9,1.6,1.9,0.9
	C294.8,29.9,295.6,29.6,295.6,28.6z"/>
<path class="st17" d="M363.3,31.3c-0.6-0.3-0.8-1-0.5-1.6c0,0,0,0,0,0c0.1-0.2,0.2-0.3,0.4-0.4c0.2-0.2,0.2-0.3,0-0.5
	c-0.8-0.7-1-1.9-0.4-2.9c0.5-0.9,1.6-1.4,2.6-1.2c1.1,0.3,2.2,0.4,3.3,0.4c-0.3,0.8-0.9,0.4-1.2,0.7c0.8,2.4-0.5,3.9-3,3.5
	c-0.4-0.1-0.9,0.1-1,0.5c0,0,0,0,0,0.1c-0.1,0.5,0.3,0.8,0.8,0.9c0.8,0.1,1.6,0.1,2.4,0.2s1.7,0.2,1.9,1.2c0.1,0.9-0.4,1.8-1.3,2.1
	c-1,0.5-2.1,0.6-3.2,0.3c-0.9-0.2-1.7-0.6-1.9-1.6S362.6,31.8,363.3,31.3z"/>
<path class="st18" d="M383.6,31.4c-0.3,0.3,0,0.9-0.5,0.8s-0.3-0.5-0.3-0.8v-9.1c0-0.3-0.2-0.7,0.3-0.8s0.4,0.5,0.4,0.8v3.5
	c0.4,0,0.6-0.3,0.8-0.5c1.2-0.9,3-0.7,3.9,0.5c0.2,0.3,0.4,0.7,0.5,1.1c0.2,0.7,0.2,1.5,0.1,2.2c0,1.3-0.8,2.5-1.9,3
	C385.9,32.6,384.5,32.3,383.6,31.4z"/>
<path class="st17" d="M375.1,28.5c0,2.5-1.3,3.8-3.5,3.8c-1.4,0-2.7-0.9-3-2.3c-0.2-0.7-0.2-1.4-0.1-2.1c0.1-1.8,1.7-3.2,3.5-3.1
	c1.8,0.1,3.1,1.6,3.1,3.4C375.1,28.3,375.1,28.4,375.1,28.5z"/>
<path class="st19" d="M378.4,31.2c0.8-1.8,1.5-3.5,2.2-5.2c0.1-0.3,0.2-0.5,0.4-0.8c0.1-0.2,0.3-0.3,0.6-0.3c0.4,0.1,0.1,0.4,0,0.5
	c-0.9,2.1-1.7,4.1-2.6,6.2c-0.1,0.3-0.2,0.6-0.6,0.6s-0.4-0.3-0.5-0.6c-0.9-2-1.7-4-2.5-5.9c-0.1-0.2-0.5-0.6-0.1-0.8
	s0.6,0.2,0.8,0.6C376.7,27.3,377.5,29.2,378.4,31.2z"/>
<path class="st20" d="M390.7,26.5c0.7-1.2,1.5-1.8,2.7-1.7c0.3,0,0.8,0.1,0.7,0.5s-0.5,0.3-0.8,0.2c-1.3-0.2-2.4,0.7-2.6,1.9
	c0,0.1,0,0.3,0,0.4v3.7c0,0.3,0.2,0.7-0.3,0.8s-0.4-0.4-0.4-0.7v-5.8c0-0.3-0.2-0.8,0.3-0.8s0.3,0.5,0.4,0.8S390.6,26.2,390.7,26.5z
	"/>
<path class="st21" d="M340.4,21.2c0,0.7-0.5,1.4-1.3,1.5c-0.5,0.1-1-0.3-1.1-0.9c0-0.1,0-0.1,0-0.2c0-0.8,0.6-1.4,1.4-1.5
	C340,20.1,340.4,20.5,340.4,21.2C340.4,21.1,340.4,21.2,340.4,21.2z"/>
<path class="st22" d="M380.3,32c0.4,0,0.7,0.2,0.7,0.6c0,0,0,0,0,0.1c0,0.3-0.2,0.6-0.6,0.7c0,0,0,0,0,0h-0.1
	c-0.3,0.1-0.6-0.2-0.7-0.5c0,0,0,0,0,0c0,0,0-0.1,0-0.1C379.6,32.2,379.9,32,380.3,32z"/>
<path class="st23" d="M360.6,32.7c0,0.4-0.4,0.6-0.7,0.6c0,0,0,0,0,0l0,0c-0.3,0-0.6-0.3-0.6-0.6c0,0,0,0,0,0c0,0,0-0.1,0-0.1
	c0-0.3,0.3-0.6,0.6-0.6c0,0,0,0,0.1,0l0,0C360.4,32,360.7,32.3,360.6,32.7C360.7,32.7,360.7,32.7,360.6,32.7L360.6,32.7z"/>
<path class="st24" d="M276.7,7.9c0.4,1.2-0.6,1.1-1.4,1.2c-5.9,0.8-9.9,6.2-9.1,12.1c0.6,4.3,3.8,7.9,8,8.9c0.6,0.2,1.2,0.2,1.7,0.3
	c0.6,0,0.7,0.3,0.7,0.8c0,1.8,0,1.8-1.7,1.6c-7.2-0.8-12.4-7.3-11.6-14.6c0.7-6.4,6-11.4,12.4-11.7C276.7,6.5,276.7,6.5,276.7,7.9z"
	/>
<path class="st24" d="M276.1,28c-3-0.1-5.7-1.9-6.9-4.6c-1.5-2.8-1.1-6.3,0.9-8.8c0.5-0.6,0.8-0.9,1.4-0.1c0.1,0.1,0.1,0.2,0.2,0.2
	c0.7,0.5,0.8,0.9,0.2,1.8c-1.8,2.6-1.2,6.2,1.4,8c2,1.4,4.5,1.4,6.5,0.1c0.9-0.6,1.3-0.6,2,0.2c0.8,0.9,0.8,0.9-0.1,1.6
	C280.1,27.6,278.1,28.1,276.1,28z"/>
<path class="st25" d="M282.9,19.9c0,1-0.9,1.8-1.9,1.8c-1,0-1.8-0.9-1.8-1.9c0-1,0.9-1.8,1.9-1.8C282.1,18,282.9,18.9,282.9,19.9z"
	/>
<path class="st25" d="M278.3,15.4c0,1-0.8,1.8-1.8,1.8c0,0,0,0,0,0l0,0c-1,0-1.9-0.8-1.9-1.8c0-1.1,0.9-1.9,1.9-1.9c0,0,0,0,0,0l0,0
	C277.6,13.6,278.3,14.4,278.3,15.4z"/>
<path class="st26" d="M300.3,27.1c0,1.3-0.4,2.6-1.1,3.8c-0.2,0.4-0.5,0.7-1,0.6s-0.5-0.6-0.5-1c-0.1-1.5,0.2-3.1,0.9-4.4
	c0.3-0.5,0.6-1.1,1.2-0.9s0.5,0.8,0.5,1.3C300.4,26.5,300.3,26.7,300.3,27.1z"/>
<path class="st27" d="M349.9,29.5c0-1.3,0.4-2.6,1.1-3.8c0.2-0.4,0.5-0.8,1.1-0.7s0.5,0.7,0.5,1c0.1,1.5-0.2,3.1-0.9,4.4
	c-0.2,0.5-0.6,1.1-1.2,0.9s-0.5-0.8-0.5-1.3C349.9,30,349.9,29.9,349.9,29.5z"/>
<path class="st28" d="M342.4,29.3c0-1.2,0.4-2.4,1.1-3.4c0.3-0.4,0.7-0.8,1.2-0.6s0.3,0.7,0.2,1.1c-0.1,1.1-0.4,2.2-1,3.2
	c-0.2,0.4-0.4,1.1-1,1S342.5,29.8,342.4,29.3z"/>
<path class="st16" d="M331.6,11.4c-0.9-0.3-1.9-0.2-2.7,0.4c-0.2,0.1-0.3,0.4-0.6,0.4c0-0.4,0-0.9-0.7-0.9s-0.5,0.6-0.5,0.9v7.9
	c0,0.4,0,0.8,0.6,0.8s0.7-0.3,0.7-0.8v-2.8c0.5,0.6,1.2,0.9,2,0.9c1.6,0.1,3-1,3.2-2.6C333.9,13.8,333.1,11.9,331.6,11.4z
	 M332.2,15.8c-0.2,1-1.2,1.7-2.2,1.6c-1-0.1-1.7-1-1.6-2v-0.5l0,0c0-0.3,0-0.7,0.1-1c0.1-0.9,0.9-1.6,1.8-1.7
	c0.9-0.1,1.7,0.5,1.9,1.4C332.4,14.3,332.4,15.1,332.2,15.8L332.2,15.8z"/>
<path class="st16" d="M350.7,8.9c0-0.5,0-0.8-0.6-0.8s-0.6,0.3-0.6,0.8v3.3c-0.5-0.6-1.2-0.9-2-0.9c-1.4-0.1-2.6,0.8-3,2.2
	c-0.6,1.6-0.1,3.3,1.1,4.4c1.1,0.8,2.5,0.6,4-0.6c-0.2,0.7,0.1,1.1,0.7,0.9s0.3-0.7,0.3-1C350.8,14.4,350.7,11.7,350.7,8.9z
	 M349.4,15.9c-0.2,1-1.1,1.7-2.1,1.5c-0.7-0.1-1.2-0.6-1.4-1.2c-0.4-0.8-0.4-1.8-0.1-2.6c0.3-1,1.4-1.5,2.4-1.2
	c0.7,0.3,1.3,0.9,1.3,1.7v0.7l0,0C349.5,15.2,349.4,15.6,349.4,15.9L349.4,15.9z"/>
<path class="st16" d="M296.6,8.7c-0.4-0.1-0.9-0.1-1.3-0.1s-1,0.1-1.5,0.1s-0.7,0.3-0.7,0.8v8c0,0.5,0.2,0.7,0.7,0.7
	s0.6-0.2,0.6-0.7v-2.2c0-0.6,0.1-0.9,0.8-0.8c0.7,0.1,1.5,0,2.1-0.3c1.2-0.5,2-1.8,1.7-3.1C298.9,9.8,297.9,8.8,296.6,8.7z
	 M297.3,12.7c-0.7,0.6-1.6,0.9-2.6,0.7c-0.4,0-0.4-0.3-0.4-0.6c0-0.7,0-1.4,0-2.2c-0.1-0.9,0.3-1.3,1-1.1c1,0,1.8,0.2,2.2,1
	C297.9,11.3,297.8,12.1,297.3,12.7L297.3,12.7z"/>
<path class="st16" d="M337.7,11.3c-1.8-0.1-3.4,1.4-3.4,3.2c0,0.1,0,0.3,0,0.4c-0.2,1.8,1.1,3.3,2.9,3.5h0.4
	c1.8,0.1,3.4-1.3,3.5-3.1c0,0,0,0,0,0c0-0.1,0-0.3,0-0.4c0.2-1.8-1.1-3.4-2.9-3.5c0,0,0,0,0,0C337.9,11.3,337.8,11.3,337.7,11.3z
	 M339.3,16.3c-0.3,0.7-1,1.1-1.7,1.1c-0.8,0-1.5-0.4-1.8-1.1c-0.2-0.5-0.4-1-0.3-1.5c0-0.6,0.1-1.2,0.5-1.8c0.5-0.9,1.6-1.1,2.5-0.6
	c0.3,0.2,0.5,0.4,0.7,0.7C339.8,14,339.9,15.3,339.3,16.3L339.3,16.3z"/>
<path class="st16" d="M355.3,11.3c-1.8,0-3.3,1.5-3.4,3.3c0,0,0,0,0,0c0,0.1,0,0.2,0,0.4c-0.1,1.8,1.2,3.3,2.9,3.4c0,0,0,0,0,0
	c0.1,0,0.3,0,0.4,0c1.8,0.1,3.3-1.4,3.4-3.2c0,0,0,0,0,0c0-0.2,0-0.3,0-0.5c0.1-1.8-1.2-3.3-2.9-3.4c0,0,0,0,0,0H355.3z M356.9,16.6
	c-0.5,0.9-1.6,1.2-2.5,0.7c-0.3-0.2-0.5-0.4-0.7-0.7c-0.6-1.1-0.6-2.4,0-3.4c0.6-0.9,1.7-1.2,2.6-0.6c0.3,0.2,0.5,0.4,0.6,0.6
	c0.3,0.5,0.5,1.1,0.5,1.7C357.4,15.5,357.2,16.1,356.9,16.6L356.9,16.6z"/>
<path class="st16" d="M304.7,15.6L304.7,15.6v-1.8c0.1-1-0.4-1.9-1.3-2.3c-1.1-0.5-2.3-0.4-3.3,0.1c-0.3,0.2-0.2,0.4-0.1,0.6
	s0.3,0.2,0.5,0.2c0.3-0.1,0.6-0.2,0.9-0.3c1.1-0.1,1.8,0.2,1.9,1c0.1,0.4,0.1,0.6-0.4,0.6c-0.6,0-1.2,0.1-1.8,0.3
	c-0.9,0.2-1.6,0.9-1.8,1.9c-0.2,0.8,0.2,1.6,0.9,2c0.8,0.5,1.9,0.4,2.7-0.1c0.3-0.1,0.5-0.7,0.8,0.1c0.1,0.3,0.5,0.2,0.8,0.1
	s0.2-0.3,0.2-0.5C304.7,17,304.7,16.3,304.7,15.6z M303.5,15.6c0.1,0.9-0.6,1.7-1.5,1.8c-0.5,0.1-0.9-0.1-1.2-0.5
	c-0.3-0.4-0.3-0.9,0-1.3c0.6-0.7,1.6-1,2.5-0.9C303.6,15,303.4,15.3,303.5,15.6z"/>
<path class="st16" d="M313.7,12.4c0.4,0.1,0.5-0.1,0.5-0.5s-0.2-0.5-0.6-0.5c-1,0.2-1.4-0.2-1.2-1.2c0-0.2,0.1-0.6-0.2-0.7
	c-0.3,0-0.6,0-0.9,0.2c-0.3,0.2-0.2,0.5-0.2,0.8c0,0.5,0,0.9-0.7,0.8c-0.3,0-0.4,0.2-0.4,0.4s0,0.6,0.4,0.5c0.6-0.1,0.7,0.3,0.6,0.8
	s0,1,0,1.5l0,0c0,0.6,0,1.3,0,1.9c0,1,0.9,1.8,1.9,1.8c0.2,0,0.3,0,0.5-0.1c0.4-0.1,0.6-0.2,0.6-0.6s-0.2-0.4-0.6-0.4
	c-0.8,0.1-1.1-0.4-1.1-1s0-1.6,0-2.4C312.4,12.8,312.5,12.1,313.7,12.4z"/>
<path class="st16" d="M322.2,12.5c0.4,0.1,0.6,0.1,0.7-0.3s0-0.6-0.4-0.6c-1.4-0.4-2.9-0.1-3.9,0.9c-1,1.1-1.3,2.6-0.7,4
	c0.6,1.3,2,2.1,3.4,1.9c0.3,0,0.6-0.1,0.9-0.1c0.4-0.1,0.8,0,0.7-0.7s-0.6-0.3-0.9-0.3c-1.3,0.4-2.6-0.3-3-1.6c-0.2-0.5-0.2-1,0-1.6
	C319.4,12.7,320.5,12.1,322.2,12.5z"/>
<path class="st16" d="M309.7,11.7c0-0.4-0.3-0.4-0.6-0.4c-0.7,0.1-1.1,0.6-1.7,1.2c0-0.6,0.1-1.1-0.6-1.1s-0.5,0.6-0.5,0.9v5.2
	c0,0.5,0.1,0.7,0.6,0.7s0.6-0.2,0.6-0.7v-3c-0.1-1,0.6-1.9,1.5-2c0,0,0,0,0,0h0.1C309.9,12.4,309.7,12,309.7,11.7z"/>
<path class="st16" d="M316.5,14.9V12c0-0.4-0.2-0.5-0.6-0.5s-0.7,0-0.7,0.6v5.7c0,0.5,0.2,0.5,0.6,0.5s0.7,0,0.7-0.5
	C316.5,16.7,316.5,15.8,316.5,14.9z"/>
<path class="st16" d="M325.4,12.1c0-0.4,0-0.7-0.5-0.7s-0.7,0.1-0.7,0.6c0,0.9,0,1.8,0,2.8v2.7c0,0.5,0.1,0.7,0.7,0.7
	s0.6-0.2,0.6-0.6C325.3,15.7,325.3,13.9,325.4,12.1z"/>
<path class="st16" d="M324.8,8.7c-0.4,0-0.7,0.2-0.8,0.6c0,0.1,0,0.1,0,0.2c0,0.5,0.3,0.8,0.8,0.8c0.4,0,0.7-0.3,0.7-0.7
	c0,0,0,0,0,0V9.4c0-0.4-0.3-0.7-0.6-0.7H324.8z"/>
<path class="st16" d="M315.9,8.7c-0.4,0-0.7,0.3-0.7,0.7c0,0,0,0,0,0.1c0,0.4,0.2,0.7,0.6,0.8c0,0,0,0,0,0h0.1
	c0.5,0,0.8-0.3,0.8-0.8c0-0.4-0.3-0.7-0.7-0.7c0,0,0,0,0,0L315.9,8.7z"/>
<path class="st25" d="M365,35.4c-0.4,0-0.9-0.1-1.2-0.3c-0.6-0.3-1.2-0.7-1-1.5c0.1-0.7,0.8-1.2,1.6-1.2c0.8,0,1.6,0.1,2.3,0.2
	c0.5,0.1,1,0.2,1.1,0.8c0.1,0.6-0.2,1.1-0.7,1.4C366.5,35.3,365.7,35.4,365,35.4z"/>
<path class="st29" d="M367.1,27.1c0.1,1.1-0.7,2.1-1.8,2.2c-1.1,0.1-2.1-0.7-2.2-1.8s0.7-2.1,1.8-2.2c0,0,0.1,0,0.1,0h0.1
	c1-0.1,1.8,0.5,2,1.5c0,0,0,0,0,0C367.1,26.9,367.1,27,367.1,27.1z"/>
<path class="st30" d="M383.6,28.6c0.1-0.9-0.2-2,0.8-2.7c1-0.8,2.4-0.7,3.2,0.2c0.3,0.3,0.4,0.7,0.5,1.1c0.3,1,0.2,2-0.1,3
	c-0.4,1-1.4,1.6-2.5,1.5c-1,0.1-1.9-0.7-1.9-1.7c0,0,0,0,0,0c0-0.1,0-0.2,0-0.4V28.6z"/>
<path class="st31" d="M374.4,28.6c-0.1,2.2-1.5,3.5-3.3,3c-1.4-0.4-2.1-1.9-1.8-4c0.1-1.4,1.2-2.4,2.6-2.4h0.1
	C373.5,25.4,374.5,26.7,374.4,28.6z"/>
<path class="st32" d="M55.5,13.3c1.4,0.1,2.8,0.1,4.2,0c2.1-0.3,2.6,0.8,2.6,2.5c0,7.2-5.8,13-13,13c-0.9,0-1.8-0.1-2.7-0.3
	C38,27,33.2,19.1,35,11.3c2-8.3,10.5-12.6,18.9-9.9c1,0.3,1.9,0.7,2.8,1.4c0.7,0.6,2.4,1,1.2,2.5c-0.9,1.2-1.8,2-3.6,0.8
	c-4-2.6-10-1.7-12.8,1.6c-3.5,3.9-3.5,9.8,0,13.7c3.4,3.7,8.9,4.4,13.1,1.7c0.8-0.4,1.4-1,2-1.7c0.8-1.1,1.9-2.4,1.2-3.8
	c-0.6-1.1-2-0.4-3.1-0.5c-1.1-0.1-2.3-0.1-3.4,0c-1.4,0.1-2.3-0.2-2.2-1.9s0.6-2.1,2.2-2S54,13.3,55.5,13.3z"/>
<path class="st33" d="M27.4,5.9c0,4.8,0.2,9.5-0.1,14.3c-0.6,8.4-6.1,13.4-12.8,17.4c-2.2-1.3-1-3.2-0.9-4.9c1.3-2.2,1.3-2.2,0-4.3
	c0.1-1,0.8-1.2,1.6-1.3c0.6-0.1,1.1,0.3,1.7,0c-1-0.9-2.6-0.5-3.2-1.9c0.2-1.5,1.4-1.2,2.5-1.3c0.7,0.1,1.4,0.2,2,0.4
	c-1.3-1.4-3.4-0.7-4.6-2c-0.3-0.7-0.3-1.6,0-2.3c0.5-0.8,1.4-1,2.1-1.5c1.7-1,2.3-3.3,1.3-5c-0.3-0.5-0.7-0.9-1.2-1.2
	c-0.8-0.6-2-0.8-2.3-2c-0.3-1.1-0.3-2.2,0-3.3c0.1-0.3,0.3-0.5,0.5-0.7c2.2-0.9,4.5-0.4,6.7-0.4c2,0,4-0.1,6-0.1
	C26.9,5.7,27.1,5.8,27.4,5.9z"/>
<path class="st14" d="M13.9,20v2.4c-1.2,1.3-3.1,0.8-4.8,2.2c2.1-0.8,3.7-1.4,5.5-1.1c0.8,0.1,1.8-0.2,2,1.1
	c-0.9,0.4-2.4-0.8-2.7,1.1c-0.8,1-2.1,0.9-3.2,1.6c1.7,0.1,3.4-1.9,4.8,0.3c-0.9,0.1-1.7,0.1-1.8,1.3c-2.2,1.6,0,2.4,0.6,3.4
	c-0.6,1.8-0.9,3.5,0,5.3c-0.6,0.8-1.1,0.2-1.5-0.1C5.4,33,0.5,26.9,0.2,17.8C0,14.1-0.1,10.3,0.1,6.6c4.3-1.5,8.7-0.9,13.1-0.4
	c0.3,0,0.5,0.5,0.6,0.8l-0.1,3.8c-0.4,0.5-0.9,0.8-1.4,1.1c-3.2,2-3.3,5-0.1,7.1C12.8,19.2,13.6,19.3,13.9,20z"/>
<path class="st34" d="M0.3,5.4c-0.2-5,0.1-5.2,5.1-5.2h16.9c4.5,0,5.2,0.8,5.1,5.3c-0.2,0.1-0.3,0.1-0.5,0.2C18.2,6.1,9.5,6,0.8,5.7
	C0.6,5.7,0.5,5.5,0.3,5.4z"/>
<path class="st35" d="M127.1,15c0,3.7-0.1,7.4,0,11.1c0,1.6-0.5,2-2.1,2.1s-2-0.6-2-2.1c0.1-7.5,0.1-15,0-22.5
	c0-1.6,0.5-2.1,2.1-2.1s2.1,0.6,2.1,2.1C127.1,7.4,127.1,11.2,127.1,15z"/>
<path class="st36" d="M0.3,5.4l27.1,0.1c0,0.1,0,0.3,0,0.4H27C23.6,6.4,20.2,6,16.8,6.1c-0.9,0-1.9-0.2-2.8,0.2c0,0.2,0,0.4-0.1,0.6
	c-3.3-1.2-6.8,0-10.2-0.5c-1.1-0.1-2.2-0.1-3.4,0C0.1,6.2,0,5.8,0.3,5.4C0.3,5.5,0.3,5.4,0.3,5.4L0.3,5.4z"/>
<path class="st37" d="M13.9,20c-3.1-0.6-4.7-2.1-4.7-4.6s1.3-3.9,4.6-4.7c2.4,0.6,4.4,1.6,4.4,4.5S16.4,19.4,13.9,20z"/>
<path class="st38" d="M16.6,24.5c-2.4-1-4.7-0.4-7,0.6C9,25.4,8.5,26,8,25.2s0.4-1.2,1-1.5c1.6-0.8,3.3-1.2,5-1.3
	c1.6,0.1,3.1,0.4,4.5,1.1c0.7,0.3,1.7,0.6,1.1,1.6s-1.1-0.1-1.7-0.2C17.4,24.8,17,24.7,16.6,24.5z"/>
<path class="st39" d="M15.5,27.6c-1.7-0.9-3.2-0.1-4.7,0.6c-0.5,0.2-1,0.5-1.4-0.1C9,27.4,9.7,27,10.2,26.7c1.1-0.6,2.4-1,3.7-1.1
	c1.1,0.3,2.2,0.5,3.3,0.9c0.5,0.2,1.3,0.4,1.1,1.2c-0.3,1-1.1,0.5-1.7,0.2C16.2,27.8,15.9,27.7,15.5,27.6z"/>
<path class="st40" d="M14.4,32.3c-1.2,0.2-2.4-0.6-2.7-1.9c-0.5-1.6,1.2-1.2,2.1-1.6c0.2,0.1,0.4,0.3,0.6,0.3
	c0.6,0.1,1.5-0.2,1.8,0.6s-0.7,1-1,1.6C15,31.7,14.7,32,14.4,32.3z"/>
<path class="st41" d="M13.9,6.4c2.5-1,5.1-0.3,7.6-0.5c1.8-0.1,3.6,0,5.4,0c-2.8,1-5.7,0.4-8.6,0.5C16.9,6.5,15.4,6.4,13.9,6.4z"/>
<path class="st32" d="M120.5,13.3c0-1.5-0.4-2.6-2-2c-2.1,0.7-3.9,0-5.8-0.5c-1-0.2-2.1-0.1-3.1,0.2c-4.9,1.4-7.6,6.5-6.2,11.4
	c0.1,0.3,0.2,0.5,0.3,0.8c1.9,5,6.9,6.8,12.7,4.3c0.4,2.5-0.3,4.6-2.4,5.4s-4.6,0.7-6-1.7c-1.2-1.9-2.3-0.4-3.2,0.1
	c-1.5,0.7-0.4,1.6,0.1,2.3c2.5,3.1,6.8,4.3,10.6,2.9c2.8-1,5-4.5,5.1-8.1C120.5,23.3,120.4,18.3,120.5,13.3z M111.8,25.2
	c-2.5-0.1-4.8-2.8-4.8-5.5c0-2.9,2.5-5.5,5.1-5.5s4.9,2.7,4.8,5.7S114.5,25.3,111.8,25.2z"/>
<path class="st42" d="M92.4,10.6c-5.3-0.1-9.6,4.5-9,9c-0.5,5.6,4.4,9.1,9.1,9.1c5,0,9-4.1,9-9.1C101.4,14.6,97.3,10.6,92.4,10.6
	L92.4,10.6z M92.4,25.2c-2.8,0.1-5.1-2.5-5.1-5.6c-0.1-2.9,2.2-5.3,5.1-5.4c0,0,0,0,0,0c2.9,0.3,5.1,2.6,5.1,5.5
	C97.4,22.5,95.2,24.9,92.4,25.2L92.4,25.2z"/>
<path class="st43" d="M144.6,24.3c-0.9-0.7-1.8-2.1-3.4-0.6c-1.7,1.8-4.5,2-6.4,0.4c-1.2-1-1.6-1.7,0.3-2.4c3.1-1.2,6-2.6,9.1-3.8
	c1.3-0.5,1.3-1,0.8-2.1c-1.5-3.8-5.5-5.9-9.5-5.1c-3.9,0.8-6.5,4.3-6.5,8.8c0,4,1.7,6.9,5,8.3c3.4,1.5,7.6,0.9,9.9-1.5
	C144.4,25.9,146,25.3,144.6,24.3z M133,17.7c0.6-2,2.3-3.4,4.4-3.6c0.9,0,1.7,0.2,2.4,0.8c0.7,0.6,1.1,1.1-0.2,1.6
	c-1.8,0.7-3.7,1.4-5.4,2.2C132.9,19.3,132.7,18.8,133,17.7z"/>
<path class="st44" d="M72.8,10.6c-4.9-0.3-9.1,3.4-9.4,8.2c0,0.2,0,0.4,0,0.6c-0.1,5,3.9,9.2,9,9.3c5,0.1,9.2-3.9,9.3-9
	c0.2-4.9-3.6-9-8.5-9.1C73,10.6,72.9,10.6,72.8,10.6z M72.5,25.2c-2.7,0-5.3-2.9-5.3-5.7c0.3-2.8,2.6-5.1,5.4-5.3c2.7,0,5,2.7,5,5.6
	C77.6,22.6,75.4,25,72.5,25.2z"/>
<path class="st45" d="M38.3,36.4c0.5,0.3,1.1,0.5,1.7,0.5c1,0,1.6-0.5,1.6-1.3s-0.4-1.1-1.4-1.5c-1.2-0.4-2-1.1-2-2.1
	c0.1-1.2,1.1-2.1,2.3-2c0.1,0,0.1,0,0.2,0c0.6,0,1.1,0.1,1.6,0.4L42,31.2c-0.4-0.2-0.9-0.4-1.4-0.4c-1,0-1.4,0.6-1.4,1.1
	c0,0.7,0.5,1,1.5,1.4c1.3,0.5,1.9,1.1,1.9,2.2s-0.8,2.1-2.6,2.1c-0.7,0-1.3-0.2-1.9-0.5L38.3,36.4z"/>
<path class="st45" d="M45,30.8c0,0.3-0.3,0.6-0.6,0.6c-0.3,0-0.6-0.3-0.6-0.6c0-0.3,0.2-0.6,0.6-0.6c0,0,0,0,0,0
	C44.7,30.1,45,30.4,45,30.8C45,30.7,45,30.7,45,30.8z M43.9,37.6v-5.3h1v5.3H43.9z"/>
<path class="st45" d="M47.6,30.7v1.5H49V33h-1.4v2.9c0,0.7,0.2,1,0.7,1c0.2,0,0.4,0,0.6-0.1v0.7c-0.3,0.1-0.6,0.2-0.9,0.1
	c-0.4,0-0.7-0.1-1-0.4c-0.3-0.4-0.4-0.9-0.4-1.4V33h-0.8v-0.7h0.8V31L47.6,30.7z"/>
<path class="st45" d="M50.6,35.1c-0.1,0.9,0.6,1.8,1.5,1.9c0.1,0,0.2,0,0.3,0c0.5,0,1-0.1,1.5-0.3l0.2,0.7c-0.6,0.2-1.2,0.3-1.8,0.3
	c-1.4,0.1-2.5-1-2.6-2.3c0-0.1,0-0.3,0-0.4c-0.2-1.4,0.9-2.7,2.3-2.9c0.1,0,0.1,0,0.2,0c1.2,0,2.2,1,2.2,2.3c0,0.1,0,0.1,0,0.2
	c0,0.1,0,0.3,0,0.5L50.6,35.1z M53.4,34.4c0.1-0.8-0.4-1.5-1.2-1.6c-0.1,0-0.1,0-0.2,0c-0.8,0.1-1.5,0.7-1.5,1.6H53.4z"/>
<path class="st45" d="M57.8,36.4c0.5,0.3,1.1,0.5,1.7,0.5c1,0,1.5-0.5,1.5-1.3s-0.4-1.1-1.4-1.5c-1.2-0.4-2-1.1-2-2.1
	c0.1-1.2,1.1-2.1,2.3-2c0.1,0,0.1,0,0.2,0c0.6,0,1.1,0.1,1.6,0.4l-0.3,0.8c-0.4-0.2-0.9-0.4-1.4-0.4c-1,0-1.4,0.6-1.4,1.1
	c0,0.7,0.5,1,1.5,1.4c1.3,0.5,1.9,1.1,1.9,2.2s-0.8,2.1-2.6,2.1c-0.7,0-1.3-0.2-1.9-0.5L57.8,36.4z"/>
<path class="st45" d="M64,35.1c-0.1,0.9,0.6,1.8,1.5,1.9c0.1,0,0.2,0,0.3,0c0.5,0,1-0.1,1.5-0.3l0.2,0.7c-0.6,0.2-1.2,0.3-1.8,0.3
	c-1.4,0.1-2.6-0.9-2.7-2.3c0-0.2,0-0.3,0-0.5c-0.2-1.4,0.8-2.7,2.3-2.9c0.1,0,0.2,0,0.2,0c1.2,0,2.2,1,2.2,2.3c0,0.1,0,0.1,0,0.2
	c0,0.1,0,0.3,0,0.5L64,35.1z M66.8,34.4c0.1-0.8-0.4-1.5-1.2-1.6c-0.1,0-0.1,0-0.2,0c-0.8,0.1-1.5,0.7-1.5,1.6H66.8z"/>
<path class="st45" d="M73.6,32.3c0,0.4,0,0.8,0,1.5v3.1c0.1,0.9-0.2,1.8-0.8,2.4c-0.5,0.4-1.2,0.7-1.9,0.6c-0.6,0-1.3-0.1-1.8-0.4
	l0.2-0.7c0.5,0.3,1,0.4,1.6,0.4c1,0,1.7-0.5,1.7-1.9v-0.6l0,0c-0.4,0.6-1,0.9-1.7,0.9c-1.3-0.1-2.3-1.2-2.3-2.5c0,0,0-0.1,0-0.1
	c-0.2-1.4,0.8-2.7,2.2-2.8c0.1,0,0.1,0,0.2,0c0.7,0,1.3,0.3,1.7,0.9l0,0v-0.8H73.6z M72.6,34.4c0-0.1,0-0.3-0.1-0.4
	c-0.2-0.6-0.7-1-1.4-1c-0.9,0-1.6,0.8-1.6,2c0,1,0.5,1.9,1.6,1.9c0.6,0,1.2-0.4,1.3-1c0-0.2,0.1-0.3,0.1-0.5V34.4z"/>
<path class="st45" d="M79.6,36.1c0,0.5,0,1,0,1.5h-0.9l-0.1-0.9l0,0c-0.4,0.6-1,1-1.8,1c-0.8,0-1.8-0.5-1.8-2.3v-3.1h1v3
	c0,1,0.3,1.7,1.2,1.7c0.6,0,1.1-0.4,1.3-1c0.1-0.2,0.1-0.3,0.1-0.5v-3.2h1L79.6,36.1z"/>
<path class="st45" d="M81.2,33.9c0-0.6,0-1.2,0-1.7H82v1l0,0c0.2-0.7,0.8-1.1,1.5-1.2c0.1,0,0.2,0,0.3,0V33c-0.1,0-0.2,0-0.3,0
	c-0.7,0-1.3,0.6-1.3,1.2c0,0.1,0,0.3,0,0.5v2.8h-1L81.2,33.9z"/>
<path class="st45" d="M89.5,34.9c0.1,1.4-0.9,2.7-2.4,2.8c-0.1,0-0.2,0-0.3,0c-1.4,0-2.6-1.1-2.6-2.5c0-0.1,0-0.1,0-0.2
	c-0.1-1.4,0.9-2.7,2.3-2.8c0.1,0,0.3,0,0.4,0c1.4,0,2.5,1.1,2.5,2.5C89.5,34.7,89.5,34.8,89.5,34.9z M85.3,34.9c0,1.2,0.7,2,1.6,2
	s1.6-0.9,1.6-2.1c0-0.9-0.5-2.1-1.6-2.1S85.3,33.9,85.3,34.9z"/>
</svg>
