<svg xmlns="http://www.w3.org/2000/svg" viewBox="0 0 304 78"><g stroke-width="2" fill="none"><path stroke="#ccc8c3" vector-effect="non-scaling-stroke" d="m26.18 0-.19 7.33"/><path stroke="#edce88" vector-effect="non-scaling-stroke" d="m14.73 31.18-7.38-.02"/><path stroke="#d9ad56" vector-effect="non-scaling-stroke" d="m44.67 31.2-7.41-.02"/><path stroke="#fab21b" vector-effect="non-scaling-stroke" d="m26.08 31.24-.21 9.89"/><path stroke="#b28c4e" vector-effect="non-scaling-stroke" d="M25.87 41.13q-4.83.23-6.33 4.92c-1.25 3.92.74 5.4 2.79 7.84q.33.4.32.91l-.05 9.98q0 .45.46.45l2.82-.05"/><path stroke="#a48040" vector-effect="non-scaling-stroke" d="m25.88 65.18.23.06"/><path stroke="#fab21b" vector-effect="non-scaling-stroke" d="m26.11 65.24.07 9.35"/><path stroke="#9f7125" vector-effect="non-scaling-stroke" d="m26.11 65.24 2.64-.02q.63-.01.63-.64l-.01-9.86q0-.48.33-.82 8.33-8.64-3.78-13.3"/><path stroke="#ad7d33" vector-effect="non-scaling-stroke" d="m25.92 40.6-.05.53"/><path stroke="#574a57" vector-effect="non-scaling-stroke" d="m25.88 65.18.04-24.58"/><path stroke="#bed9a1" vector-effect="non-scaling-stroke" d="M84.17 56.4q1.18 2.4 4.01 1.1.43-.19.25-.62-2.44-5.87-9.19-3.98-3.58 1-3.74 4.1c-.33 6.7 9.92 4.76 9.88 7.91-.03 2.91-4.02 2.8-5.84 1.75a1.43 1.4-83.5 0 1-.64-.82q-.75-2.63-3.51-1.41-.45.2-.37.68c.83 5.3 7.54 6.43 11.22 4.38 3.47-1.94 3.67-7.95-.78-9.34q-2.72-.85-5.73-1.61a1.35 1.35 0 0 1-.34-2.47q2-1.17 4.02-.37.51.2.76.7M95.04 57.07q.14-1.75 2.51-1.84 2.6-.09 3.19 2.16.11.42.55.41l2.69-.07a.56.55-12.2 0 0 .5-.77q-2.52-5.99-9.24-4.08-3.97 1.12-3.7 4.8c.31 4.27 5.56 4.75 8.61 5.69a1.74 1.74 0 0 1 1.18 2.08c-.73 2.99-5.96 2.35-6.71-.44a1.69 1.69 0 0 0-3.32.42q-.05 3.41 4.23 4.45c11.22 2.73 13.18-10.13 1.11-10.96a1.72 1.72 0 0 1-1.6-1.85M141.17 64.61q-1.82 3.29-4.68 3.65c-8.33 1.02-8.37-16.16 1.35-13.51 1.43.39 2.16 1.43 2.69 2.73q.23.56.83.47l.83-.13q.7-.11.53-.8c-1.05-4.02-5.59-5.2-9.02-4.15-9.03 2.76-6.94 19.06 3.81 17.29q4.39-.72 5.65-5.05.17-.59-.41-.79l-.46-.15a.94.93-66.2 0 0-1.12.44M233.73 64.57a5 5 0 0 1-8.26 2.52c-1.93-1.84-2.35-5.03-1.93-7.6.85-5.14 7.78-7.56 9.86-2.04q.19.51.74.48l1.04-.07q.8-.05.57-.82c-1.66-5.51-9.18-5.7-12.47-2.09-3.71 4.07-2.78 12.1 2.26 14.67 3.75 1.92 9.63.12 10.47-4.71q.1-.56-.46-.63l-1.15-.17a.61.61 0 0 0-.67.46M279.97 70.39a8.99 8.33 89.9 0 0 8.31-9 8.99 8.33 89.9 0 0-8.35-8.98 8.99 8.33 89.9 0 0-8.31 9 8.99 8.33 89.9 0 0 8.35 8.98M148.4 55.28a.42.42 0 0 1 .42-.42l9.51.02a.42.42 0 0 0 .41-.46l-.11-1.16a.42.42 0 0 0-.42-.38l-11.66-.01a.42.42 0 0 0-.42.42l-.01 16.29a.42.42 0 0 0 .42.42h12.07a.42.42 0 0 0 .42-.39l.07-1.16a.42.42 0 0 0-.42-.45l-9.91-.01a.42.42 0 0 1-.41-.42l.06-5.02a.42.42 0 0 1 .41-.41l8.73-.01a.42.42 0 0 0 .42-.39l.09-1.18a.42.42 0 0 0-.42-.45l-8.86.03a.42.42 0 0 1-.42-.42l.03-4.44M164.82 62.59c5.51-1.36 7.1 3.3 9.24 6.89q.32.53.93.53h1.55q.92 0 .4-.75l-4.74-6.84q-.24-.36.17-.48 3.74-1.13 3.51-5.02c-.32-5.52-9.5-4.11-13.31-4.04q-.43.01-.43.44l-.01 16.07q0 .63.63.62l.92-.01q.67-.01.68-.68l.03-6.19q.01-.44.43-.54M185.62 55.29a.43.43 0 0 1 .43-.43l4.97.04a.43.43 0 0 0 .43-.45l-.04-1.16a.43.43 0 0 0-.43-.42h-12.81a.43.43 0 0 0-.43.42l-.02 1.14a.43.43 0 0 0 .43.44h4.78a.43.43 0 0 1 .43.43v14.28a.43.43 0 0 0 .43.43l1.41-.02a.43.43 0 0 0 .43-.43l-.01-14.27M196.36 53.35a.54.54 0 0 0-.55-.54h-1.16a.54.54 0 0 0-.53.54l.02 16.12a.54.54 0 0 0 .55.54h1.16a.54.54 0 0 0 .53-.54l-.02-16.12M202.75 55.29a.43.43 0 0 1 .43-.43l8.58.05a.43.43 0 0 0 .44-.44l-.04-1.18a.43.43 0 0 0-.43-.42h-10.8a.43.43 0 0 0-.43.43v16.27a.43.43 0 0 0 .43.43l1.38-.01a.43.43 0 0 0 .43-.43l.01-6.88a.43.43 0 0 1 .43-.43h7.24a.43.43 0 0 0 .42-.38l.15-1.27a.43.43 0 0 0-.43-.48l-7.38.03a.43.43 0 0 1-.43-.43v-4.43M217.75 53.37a.51.51 0 0 0-.51-.51h-1.38a.51.51 0 0 0-.51.51v16.12a.51.51 0 0 0 .51.51h1.38a.51.51 0 0 0 .51-.51V53.37M248.77 65.22q.85 1.95 1.53 4.03.5 1.51 2.45.53.34-.17.2-.53l-6.35-15.56a1.7 1.7 0 0 0-3.16.03l-6.04 15.71q-.21.56.39.56l1.12.01q.67 0 .9-.62l1.52-4.13q.18-.5.71-.5l6-.01q.52 0 .73.48"/><path stroke="#bed9a1" vector-effect="non-scaling-stroke" d="m255.16 53.18-.08 16.42a.38.38 0 0 0 .38.38l6.59.04a7.42 7.15-89.7 0 0 7.18-7.38l.02-2.34a7.42 7.15-89.7 0 0-7.12-7.46l-6.58-.03a.38.38 0 0 0-.39.37M111.8 67.14a.48.48 0 0 1-.48-.48l.06-13.18a.48.48 0 0 0-.48-.48h-2.54a.48.48 0 0 0-.48.48l-.03 16.04a.48.48 0 0 0 .48.48h11.23a.48.48 0 0 0 .48-.48v-1.91a.48.48 0 0 0-.48-.48l-7.76.01M279.9 68.45a7.05 5.99 90.2 0 0 6.02-7.03 7.05 5.99 90.2 0 0-5.97-7.07 7.05 5.99 90.2 0 0-6.01 7.03 7.05 5.99 90.2 0 0 5.97 7.07M164.36 55.2l.02 4.76a.45.45 0 0 0 .45.44l5.62-.02a3.07 2.76-.2 0 0 3.06-2.77v-.14a3.07 2.76-.2 0 0-3.08-2.75l-5.62.02a.45.45 0 0 0-.45.46M247.49 63a.35.35 0 0 0 .33-.47l-2.49-6.7a.35.35 0 0 0-.66 0l-2.32 6.71a.35.35 0 0 0 .33.46h4.81"/><path stroke="#bed9a1" vector-effect="non-scaling-stroke" d="m257.36 55.12.02 12.62a.27.27 0 0 0 .27.27l4.4-.01a5.33 4.85 89.9 0 0 4.84-5.34v-2.5a5.33 4.85 89.9 0 0-4.86-5.32l-4.4.01a.27.27 0 0 0-.27.27"/></g><path fill="#dadada" d="M23.7 0h2.48l-.19 7.33C12.2 8.61 14.75 21.77 14.73 31.18l-7.38-.02q-.61-12.37.25-15.91Q10.69 2.63 23.7 0Z"/><path fill="#beb6ac" d="M26.18 0h2.05Q39.11 2.21 43 11.16c2.45 5.62 1.91 13.47 1.67 20.04l-7.41-.02c.03-9.6 2.47-22.68-11.27-23.85L26.18 0Z"/><path d="M77.46 17.8q-.3 2.04 2.18 2.62 3.35.79 6.58 1.89c7.16 2.43 5.81 11.82-1.23 13.4-5.67 1.27-11.95-.46-12.92-7.12q-.08-.55.48-.61l3.32-.33q.52-.05.69.44 1.7 4.92 6.89 3.76c1.2-.27 2.43-1.22 2.71-2.36a2.52 2.52 0 0 0-1.98-3.08c-4.69-.87-13.24-2.85-11-9.77 2.25-6.9 16.18-6.35 17.01 1.86q.06.52-.47.54l-3.29.15q-.56.02-.81-.48-2.21-4.42-7.19-2.2a1.71 1.69 82.2 0 0-.97 1.29ZM159.54 16.69a1.79 1.79 0 0 0 .35 3.31c4.51 1.23 12.93 2.31 12.52 8.83-.4 6.32-6.22 7.72-11.44 7.1q-5.84-.68-7.57-7.08-.2-.71.54-.81l3.38-.41a.73.73 0 0 1 .8.53c1.08 3.84 4.81 5.03 8.06 3.02 2.27-1.41 1.86-3.93-.64-4.66-3-.87-8.05-1.69-10.01-4.29-7.21-9.55 14.09-15.67 16.16-3.83q.1.61-.52.64l-3.37.16q-.47.02-.69-.4-2.51-4.74-7.57-2.11ZM213.06 27h-3.51q-.66 0-.66-.66l-.02-2.58q-.01-.63.62-.63l9.06-.02q.45 0 .45.45v8.43a.97.95-17.7 0 1-.42.79c-6.42 4.35-16.65 5.04-20.17-3.1-4.19-9.66 2.03-19.32 13.09-17.4q5.61.97 7.07 6.04a.48.47-13.5 0 1-.37.59l-3.23.6q-.56.11-.9-.35-3.39-4.53-7.66-2.79c-9.19 3.76-3.24 21.83 7.65 13.63a1.67 1.67 0 0 0-1-3ZM280.88 36.22a12.22 11.53 89.1 0 1-11.72-12.04 12.22 11.53 89.1 0 1 11.34-12.4 12.22 11.53 89.1 0 1 11.72 12.04 12.22 11.53 89.1 0 1-11.34 12.4Zm-.17-4.1a8.15 6.61 89.9 0 0 6.6-8.16 8.15 6.61 89.9 0 0-6.62-8.14 8.15 6.61 89.9 0 0-6.6 8.16 8.15 6.61 89.9 0 0 6.62 8.14Z"/><rect x="94.74" y="12.38" width="4.76" height="23.24" rx=".4"/><path d="m108.86 16.38-6.22-.03a.39.39 0 0 1-.39-.39l-.01-3.19a.39.39 0 0 1 .39-.39h17.73a.39.39 0 0 1 .39.39v3.22a.39.39 0 0 1-.39.39l-6.1-.01a.39.39 0 0 0-.39.39v18.48a.39.39 0 0 1-.39.39l-3.84-.02a.39.39 0 0 1-.39-.39V16.77a.39.39 0 0 0-.39-.39ZM128.89 21.5h10.97a.39.39 0 0 1 .39.39v3.08a.39.39 0 0 1-.39.39l-10.97.01a.39.39 0 0 0-.39.39v5.48a.39.39 0 0 0 .39.39h12.22a.39.39 0 0 1 .39.39v3.21a.39.39 0 0 1-.39.39h-16.83a.39.39 0 0 1-.39-.39l-.01-22.46a.39.39 0 0 1 .39-.39h16.45a.39.39 0 0 1 .39.39l.02 3.21a.39.39 0 0 1-.39.39h-11.85a.39.39 0 0 0-.39.39v4.35a.39.39 0 0 0 .39.39ZM181.39 21.5h10.97a.39.39 0 0 1 .39.39v3.1a.39.39 0 0 1-.39.39l-10.97-.02a.39.39 0 0 0-.39.39v5.5a.39.39 0 0 0 .39.39l12.22-.01a.39.39 0 0 1 .39.39v3.22a.39.39 0 0 1-.39.39l-16.97-.01a.39.39 0 0 1-.39-.39V12.77a.39.39 0 0 1 .39-.39h16.58a.39.39 0 0 1 .39.39l.02 3.21a.39.39 0 0 1-.39.39l-11.85-.01a.39.39 0 0 0-.39.39v4.36a.39.39 0 0 0 .39.39ZM228.06 28.43c.06 4.2 8.95 5.97 9.03-1.32q.09-7.07.02-14.14 0-.59.58-.59l3.57-.01q.57 0 .58.57.12 7.05-.04 14.05c-.1 4.48-.99 7.41-5.7 8.66-5.53 1.46-12.19-.21-12.6-7.05q-.47-7.88-.18-15.77.01-.44.46-.44l3.7-.03q.53-.01.53.52-.04 7.82.05 15.55ZM260.6 25.63q4.16 4.18 6.77 9.52.23.47-.3.47l-4.36.02q-.54 0-.84-.45c-2.14-3.29-5.14-10.07-9.84-9.15q-.41.07-.41.49l.01 8.47q0 .61-.62.61l-3.5.02q-.62 0-.63-.62v-22q0-.56.56-.58c3.86-.17 13.59-.98 16.51 1.78 3.88 3.69 1.96 9.51-3.22 10.94q-.48.13-.13.48Zm-9.01-8.95.06 5.28a.29.29 0 0 0 .29.29l6.08-.07a3.07 2.74-.6 0 0 3.04-2.77v-.38a3.07 2.74-.6 0 0-3.1-2.71l-6.08.07a.29.29 0 0 0-.29.29Z"/><path fill="#ffc136" d="m7.35 31.16 7.38.02 11.35.06-.21 9.89q-4.83.23-6.33 4.92c-1.25 3.92.74 5.4 2.79 7.84q.33.4.32.91l-.05 9.98q0 .45.46.45l2.82-.05.23.06.07 9.35c-6 .03-15.13 1-19.91-1.64Q1.41 70.26 0 63.82V31.23l7.35-.07Z"/><path fill="#f4a300" d="m37.26 31.18 7.41.02 6.81.06q.52.01.52.53-.01 13.18.02 26.3c.02 7.07-.76 12.63-7.41 15.39-4.65 1.94-12.66 1.06-18.43 1.11l-.07-9.35 2.64-.02q.63-.01.63-.64l-.01-9.86q0-.48.33-.82 8.33-8.64-3.78-13.3l-.05.53.21-9.89 11.18-.06Z"/><path fill="#493e49" d="m26.11 65.24-.23-.06.04-24.58q12.11 4.66 3.78 13.3-.33.34-.33.82l.01 9.86q0 .63-.63.64l-2.64.02Z"/><path fill="#655665" d="m25.87 41.13.05-.53-.04 24.58-2.82.05q-.46 0-.46-.45l.05-9.98q.01-.51-.32-.91c-2.05-2.44-4.04-3.92-2.79-7.84q1.5-4.69 6.33-4.92Z"/><path fill="#7cb342" d="M304 59.14v3.84Q301.52 75.67 288.88 78H75.01q-8.57-1.59-12.53-8.23c-5.51-9.22-1.25-21.51 9.05-24.88q2.74-.89 9.53-.89l201.58-.01q7.54 0 11.02 1.44 8.4 3.45 10.34 13.71ZM84.17 56.4q1.18 2.4 4.01 1.1.43-.19.25-.62-2.44-5.87-9.19-3.98-3.58 1-3.74 4.1c-.33 6.7 9.92 4.76 9.88 7.91-.03 2.91-4.02 2.8-5.84 1.75a1.43 1.4-83.5 0 1-.64-.82q-.75-2.63-3.51-1.41-.45.2-.37.68c.83 5.3 7.54 6.43 11.22 4.38 3.47-1.94 3.67-7.95-.78-9.34q-2.72-.85-5.73-1.61a1.35 1.35 0 0 1-.34-2.47q2-1.17 4.02-.37.51.2.76.7Zm10.87.67q.14-1.75 2.51-1.84 2.6-.09 3.19 2.16.11.42.55.41l2.69-.07a.56.55-12.2 0 0 .5-.77q-2.52-5.99-9.24-4.08-3.97 1.12-3.7 4.8c.31 4.27 5.56 4.75 8.61 5.69a1.74 1.74 0 0 1 1.18 2.08c-.73 2.99-5.96 2.35-6.71-.44a1.69 1.69 0 0 0-3.32.42q-.05 3.41 4.23 4.45c11.22 2.73 13.18-10.13 1.11-10.96a1.72 1.72 0 0 1-1.6-1.85Zm46.13 7.54q-1.82 3.29-4.68 3.65c-8.33 1.02-8.37-16.16 1.35-13.51 1.43.39 2.16 1.43 2.69 2.73q.23.56.83.47l.83-.13q.7-.11.53-.8c-1.05-4.02-5.59-5.2-9.02-4.15-9.03 2.76-6.94 19.06 3.81 17.29q4.39-.72 5.65-5.05.17-.59-.41-.79l-.46-.15a.94.93-66.2 0 0-1.12.44Zm92.56-.04a5 5 0 0 1-8.26 2.52c-1.93-1.84-2.35-5.03-1.93-7.6.85-5.14 7.78-7.56 9.86-2.04q.19.51.74.48l1.04-.07q.8-.05.57-.82c-1.66-5.51-9.18-5.7-12.47-2.09-3.71 4.07-2.78 12.1 2.26 14.67 3.75 1.92 9.63.12 10.47-4.71q.1-.56-.46-.63l-1.15-.17a.61.61 0 0 0-.67.46Zm46.24 5.82a8.99 8.33 89.9 0 0 8.31-9 8.99 8.33 89.9 0 0-8.35-8.98 8.99 8.33 89.9 0 0-8.31 9 8.99 8.33 89.9 0 0 8.35 8.98ZM148.4 55.28a.42.42 0 0 1 .42-.42l9.51.02a.42.42 0 0 0 .41-.46l-.11-1.16a.42.42 0 0 0-.42-.38l-11.66-.01a.42.42 0 0 0-.42.42l-.01 16.29a.42.42 0 0 0 .42.42h12.07a.42.42 0 0 0 .42-.39l.07-1.16a.42.42 0 0 0-.42-.45l-9.91-.01a.42.42 0 0 1-.41-.42l.06-5.02a.42.42 0 0 1 .41-.41l8.73-.01a.42.42 0 0 0 .42-.39l.09-1.18a.42.42 0 0 0-.42-.45l-8.86.03a.42.42 0 0 1-.42-.42l.03-4.44Zm16.42 7.31c5.51-1.36 7.1 3.3 9.24 6.89q.32.53.93.53h1.55q.92 0 .4-.75l-4.74-6.84q-.24-.36.17-.48 3.74-1.13 3.51-5.02c-.32-5.52-9.5-4.11-13.31-4.04q-.43.01-.43.44l-.01 16.07q0 .63.63.62l.92-.01q.67-.01.68-.68l.03-6.19q.01-.44.43-.54Zm20.8-7.3a.43.43 0 0 1 .43-.43l4.97.04a.43.43 0 0 0 .43-.45l-.04-1.16a.43.43 0 0 0-.43-.42h-12.81a.43.43 0 0 0-.43.42l-.02 1.14a.43.43 0 0 0 .43.44h4.78a.43.43 0 0 1 .43.43v14.28a.43.43 0 0 0 .43.43l1.41-.02a.43.43 0 0 0 .43-.43l-.01-14.27Zm10.74-1.94a.54.54 0 0 0-.55-.54h-1.16a.54.54 0 0 0-.53.54l.02 16.12a.54.54 0 0 0 .55.54h1.16a.54.54 0 0 0 .53-.54l-.02-16.12Zm6.39 1.94a.43.43 0 0 1 .43-.43l8.58.05a.43.43 0 0 0 .44-.44l-.04-1.18a.43.43 0 0 0-.43-.42h-10.8a.43.43 0 0 0-.43.43v16.27a.43.43 0 0 0 .43.43l1.38-.01a.43.43 0 0 0 .43-.43l.01-6.88a.43.43 0 0 1 .43-.43h7.24a.43.43 0 0 0 .42-.38l.15-1.27a.43.43 0 0 0-.43-.48l-7.38.03a.43.43 0 0 1-.43-.43v-4.43Zm15-1.92a.51.51 0 0 0-.51-.51h-1.38a.51.51 0 0 0-.51.51v16.12a.51.51 0 0 0 .51.51h1.38a.51.51 0 0 0 .51-.51V53.37Zm31.02 11.85q.85 1.95 1.53 4.03.5 1.51 2.45.53.34-.17.2-.53l-6.35-15.56a1.7 1.7 0 0 0-3.16.03l-6.04 15.71q-.21.56.39.56l1.12.01q.67 0 .9-.62l1.52-4.13q.18-.5.71-.5l6-.01q.52 0 .73.48Zm6.39-12.04-.08 16.42a.38.38 0 0 0 .38.38l6.59.04a7.42 7.15-89.7 0 0 7.18-7.38l.02-2.34a7.42 7.15-89.7 0 0-7.12-7.46l-6.58-.03a.38.38 0 0 0-.39.37ZM111.8 67.14a.48.48 0 0 1-.48-.48l.06-13.18a.48.48 0 0 0-.48-.48h-2.54a.48.48 0 0 0-.48.48l-.03 16.04a.48.48 0 0 0 .48.48h11.23a.48.48 0 0 0 .48-.48v-1.91a.48.48 0 0 0-.48-.48l-7.76.01Z"/><path fill="#fff" d="M83.41 55.7q-2.02-.8-4.02.37a1.35 1.35 0 0 0 .34 2.47q3.01.76 5.73 1.61c4.45 1.39 4.25 7.4.78 9.34-3.68 2.05-10.39.92-11.22-4.38q-.08-.48.37-.68 2.76-1.22 3.51 1.41a1.43 1.4-83.5 0 0 .64.82c1.82 1.05 5.81 1.16 5.84-1.75.04-3.15-10.21-1.21-9.88-7.91q.16-3.1 3.74-4.1 6.75-1.89 9.19 3.98.18.43-.25.62-2.83 1.3-4.01-1.1-.25-.5-.76-.7ZM95.04 57.07a1.72 1.72 0 0 0 1.6 1.85c12.07.83 10.11 13.69-1.11 10.96q-4.28-1.04-4.23-4.45a1.69 1.69 0 0 1 3.32-.42c.75 2.79 5.98 3.43 6.71.44a1.74 1.74 0 0 0-1.18-2.08c-3.05-.94-8.3-1.42-8.61-5.69q-.27-3.68 3.7-4.8 6.72-1.91 9.24 4.08a.56.55-12.2 0 1-.5.77l-2.69.07q-.44.01-.55-.41-.59-2.25-3.19-2.16-2.37.09-2.51 1.84ZM141.17 64.61a.94.93-66.2 0 1 1.12-.44l.46.15q.58.2.41.79-1.26 4.33-5.65 5.05c-10.75 1.77-12.84-14.53-3.81-17.29 3.43-1.05 7.97.13 9.02 4.15q.17.69-.53.8l-.83.13q-.6.09-.83-.47c-.53-1.3-1.26-2.34-2.69-2.73-9.72-2.65-9.68 14.53-1.35 13.51q2.86-.36 4.68-3.65ZM225.47 67.09a5 5 0 0 0 8.26-2.52.61.61 0 0 1 .67-.46l1.15.17q.56.07.46.63c-.84 4.83-6.72 6.63-10.47 4.71-5.04-2.57-5.97-10.6-2.26-14.67 3.29-3.61 10.81-3.42 12.47 2.09q.23.77-.57.82l-1.04.07q-.55.03-.74-.48c-2.08-5.52-9.01-3.1-9.86 2.04-.42 2.57 0 5.76 1.93 7.6ZM279.97 70.39a8.99 8.33 89.9 0 1-8.35-8.98 8.99 8.33 89.9 0 1 8.31-9 8.99 8.33 89.9 0 1 8.35 8.98 8.99 8.33 89.9 0 1-8.31 9Zm-.06-1.94a7.05 5.99 90.2 0 0 6.01-7.03 7.05 5.99 90.2 0 0-5.97-7.07 7.05 5.99 90.2 0 0-6.01 7.03 7.05 5.99 90.2 0 0 5.97 7.07ZM148.4 55.28l-.03 4.44a.42.42 0 0 0 .42.42l8.86-.03a.42.42 0 0 1 .42.45l-.09 1.18a.42.42 0 0 1-.42.39l-8.73.01a.42.42 0 0 0-.41.41l-.06 5.02a.42.42 0 0 0 .41.42l9.91.01a.42.42 0 0 1 .42.45l-.07 1.16a.42.42 0 0 1-.42.39h-12.07a.42.42 0 0 1-.42-.42l.01-16.29a.42.42 0 0 1 .42-.42l11.66.01a.42.42 0 0 1 .42.38l.11 1.16a.42.42 0 0 1-.41.46l-9.51-.02a.42.42 0 0 0-.42.42ZM164.39 63.13l-.03 6.19q-.01.67-.68.68l-.92.01q-.63.01-.63-.62l.01-16.07q0-.43.43-.44c3.81-.07 12.99-1.48 13.31 4.04q.23 3.89-3.51 5.02-.41.12-.17.48l4.74 6.84q.52.75-.4.75h-1.55q-.61 0-.93-.53c-2.14-3.59-3.73-8.25-9.24-6.89q-.42.1-.43.54Zm-.03-7.93.02 4.76a.45.45 0 0 0 .45.44l5.62-.02a3.07 2.76-.2 0 0 3.06-2.77v-.14a3.07 2.76-.2 0 0-3.08-2.75l-5.62.02a.45.45 0 0 0-.45.46ZM185.62 55.29l.01 14.27a.43.43 0 0 1-.43.43l-1.41.02a.43.43 0 0 1-.43-.43V55.3a.43.43 0 0 0-.43-.43h-4.78a.43.43 0 0 1-.43-.44l.02-1.14a.43.43 0 0 1 .43-.42h12.81a.43.43 0 0 1 .43.42l.04 1.16a.43.43 0 0 1-.43.45l-4.97-.04a.43.43 0 0 0-.43.43Z"/><rect fill="#fff" x="-1.12" y="-8.6" transform="rotate(-.1 35282.95 -111839.28)" width="2.24" height="17.2" rx=".54"/><path fill="#fff" d="M202.75 55.29v4.43a.43.43 0 0 0 .43.43l7.38-.03a.43.43 0 0 1 .43.48l-.15 1.27a.43.43 0 0 1-.42.38h-7.24a.43.43 0 0 0-.43.43l-.01 6.88a.43.43 0 0 1-.43.43l-1.38.01a.43.43 0 0 1-.43-.43V53.3a.43.43 0 0 1 .43-.43h10.8a.43.43 0 0 1 .43.42l.04 1.18a.43.43 0 0 1-.44.44l-8.58-.05a.43.43 0 0 0-.43.43Z"/><rect fill="#fff" x="215.35" y="52.86" width="2.4" height="17.14" rx=".51"/><path fill="#fff" d="m248.04 64.74-6 .01q-.53 0-.71.5l-1.52 4.13q-.23.62-.9.62l-1.12-.01q-.6 0-.39-.56l6.04-15.71a1.7 1.7 0 0 1 3.16-.03l6.35 15.56q.14.36-.2.53-1.95.98-2.45-.53-.68-2.08-1.53-4.03-.21-.48-.73-.48Zm-.55-1.74a.35.35 0 0 0 .33-.47l-2.49-6.7a.35.35 0 0 0-.66 0l-2.32 6.71a.35.35 0 0 0 .33.46h4.81ZM255.16 53.18a.38.38 0 0 1 .39-.37l6.58.03a7.42 7.15-89.7 0 1 7.12 7.46l-.02 2.34a7.42 7.15-89.7 0 1-7.18 7.38l-6.59-.04a.38.38 0 0 1-.38-.38l.08-16.42Zm2.2 1.94.02 12.62a.27.27 0 0 0 .27.27l4.4-.01a5.33 4.85 89.9 0 0 4.84-5.34v-2.5a5.33 4.85 89.9 0 0-4.86-5.32l-4.4.01a.27.27 0 0 0-.27.27ZM111.8 67.14l7.76-.01a.48.48 0 0 1 .48.48v1.91a.48.48 0 0 1-.48.48h-11.23a.48.48 0 0 1-.48-.48l.03-16.04a.48.48 0 0 1 .48-.48h2.54a.48.48 0 0 1 .48.48l-.06 13.18a.48.48 0 0 0 .48.48Z"/><ellipse fill="#7cb342" transform="rotate(90.2 109.37 170.18)" rx="7.05" ry="5.99"/><path fill="#7cb342" d="M164.36 55.2a.45.45 0 0 1 .45-.46l5.62-.02a3.07 2.76-.2 0 1 3.08 2.75v.14a3.07 2.76-.2 0 1-3.06 2.77l-5.62.02a.45.45 0 0 1-.45-.44l-.02-4.76ZM257.36 55.12a.27.27 0 0 1 .27-.27l4.4-.01a5.33 4.85 89.9 0 1 4.86 5.32v2.5a5.33 4.85 89.9 0 1-4.84 5.34l-4.4.01a.27.27 0 0 1-.27-.27l-.02-12.62ZM247.49 63h-4.81a.35.35 0 0 1-.33-.46l2.32-6.71a.35.35 0 0 1 .66 0l2.49 6.7a.35.35 0 0 1-.33.47Z"/></svg>