<svg xmlns="http://www.w3.org/2000/svg" viewBox="0 0 402.94 61.27"><path d="M192.06.16c.1.42.49.29.74.4a5.57,5.57,0,1,1-4.14,0l1-.43Z" style="fill:#ea2328"/><path d="M199.74.16V3.64c1.48-.53,2.9-.76,4.14.41A4.09,4.09,0,0,1,205,7.71a3.86,3.86,0,0,1-3.55,3.45,6.52,6.52,0,0,1-1.53,0c-2.56-.16-2.6-.22-2.6-2.74V.14Z" style="fill:#090807"/><path d="M207.42.16c.11.56.63,1.11,0,1.67a1,1,0,0,1-1.3.13c-.79-.6-.4-1.23.11-1.8Z" style="fill:#eb2d31"/><path d="M200.66,49.56c-.41.77-.81.79-1.21,0-2.75-7.22-5-14.63-7.74-21.85-.79-2.61-1.15-5.32-1.7-8a1.9,1.9,0,0,1,.23-1.45h9.49c.44.81-.27,1.19-.66,1.66-1.95,2.35-3.86,4.64-5.95,7.18h13.64a12.76,12.76,0,0,0-2.15-2.86c-1.23-1.5-2.43-3-3.74-4.45-.37-.4-.77-.84-.52-1.49h9.48a2.22,2.22,0,0,1,.27,1.59c-.6,2.61-1,5.27-1.73,7.84-2.38,6.39-4.51,12.88-6.73,19.33A17.28,17.28,0,0,0,200.66,49.56Z" style="fill:#a2dbe9"/><path d="M200.66,49.56c-.28-1.2.43-2.21.78-3.23,2-6,4.12-11.87,6.2-17.8.1-.28.11-.61.41-.78a2.21,2.21,0,0,1,1.57-.47h7.92a2.16,2.16,0,0,1,1.56.48q-6,7.18-12.09,14.38C204.91,44.67,202.78,47.13,200.66,49.56Z" style="fill:#83c7db"/><path d="M192.05,27.79A58.34,58.34,0,0,1,195,35.63c1.53,4.1,2.87,8.27,4.26,12.43.15.47.68,1,.19,1.53Q190.24,38.7,181,27.8A25.8,25.8,0,0,1,192.05,27.79Z" style="fill:#83c7db"/><path d="M200.38,18.3c1.21,2,3,3.57,4.38,5.47.88,1.21,2.12,2.16,2.81,3.65H192.34l6.48-7.76c.35-.42.91-.69.91-1.35Z" style="fill:#c7e8ef"/><path d="M219.12,27.8H208.05c.53-3.18,1.54-6.26,1.81-9.48,2.7,2.94,5.6,5.67,8.53,8.38C218.69,27,219.38,27.11,219.12,27.8Z" style="fill:#c7e8ef"/><path d="M192.05,27.79h-11c1.57-2,3.55-3.61,5.29-5.45,1.3-1.37,2.62-2.69,3.93-4C190.64,21.56,191.45,24.63,192.05,27.79Z" style="fill:#c6e7ef"/><path d="M213.47,11.18c-2,0-2.92-.84-3-2.76V5.82c0-.56.11-1.14-.76-1.16-.49,0-.47-.44-.47-.8s0-.61.33-.57c1.13.13.94-.66.88-1.27-.09-.89.26-1.11,1.11-1.12s1.13.4,1,1.19-.07,1.35,1,1.17c.64-.11.73.3.75.83s-.26.76-.74.67c-1-.17-1,.43-1,1.16V8.37c0,.59.17,1.09.85,1,.91-.13,1.41.16,1.31,1.1S213.89,11,213.47,11.18Z" style="fill:#0a0908"/><path d="M208.28,7.27V9.88c0,.86,0,1.34-1.08,1.38s-1-.61-1-1.33c0-1.89.05-3.79,0-5.68,0-.82.23-1.06,1-1s1.18.07,1.11,1S208.28,6.25,208.28,7.27Z" style="fill:#0d0c0b"/><path d="M192.69,6.9c1.19,1.06,1.11,1.51-.41,2a3.88,3.88,0,0,1-4.16-1.09,3.76,3.76,0,0,1-.21-4.15,3.5,3.5,0,0,1,3.88-1.43c1.55.37,2.25,1.52,2.41,3.94a23.8,23.8,0,0,1-3.54.6C191.37,7.37,192.05,6.38,192.69,6.9Z" style="fill:#fefbfb"/><path d="M192.69,6.9c-.83.23-1.54,1.1-2.51.47-.29-.18-.66-.38-.53-.81s.5-.21.77-.23c1.26,0,2.51-.07,3.77-.11C193.91,6.94,193,6.33,192.69,6.9Z" style="fill:#ea2729"/><path d="M199.72,7.56c-.06-1.21-.06-2.32,1.39-2.37,1.18-.05,1.53.86,1.57,1.86A1.94,1.94,0,0,1,201,9.21a1.51,1.51,0,0,1-.3,0C199.18,9.23,199.88,8.12,199.72,7.56Z" style="fill:#fafafa"/><path d="M190.71,5c-.4-.15-1.08.25-1.12-.42s.61-.88,1.17-.91,1.25.23,1.22.84C192,5.38,191.12,4.81,190.71,5Z" style="fill:#ee4b44"/><path d="M209,60.4V55.5c0-.32-.19-.76.31-.9a1,1,0,0,1,1,.43c.86,1.13,1.75,2.23,2.93,3.74V55.38c0-.34-.08-.78.46-.79s.5.41.49.75c0,1.69,0,3.38-.05,5.06h-.92l-3-3.85a4.25,4.25,0,0,0-.33,1.89c0,.66,0,1.31-.06,2Z"/><path d="M193.59,60.4c0-1.53.07-3.07,0-4.6-.06-1,.33-1.35,1.31-1.26.71.07,1.43,0,2.15,0,.25,0,.51,0,.55.38s-.22.52-.56.52h-1.7c-.57,0-.78.09-.78.67s.18.8.78.88,1.8-.45,1.83.36-1.14.37-1.77.46-.86.19-.84.81.41.74.92.73H197c.82,0,.78.44.57,1Z"/><path d="M176.67,54.56h3.08c.35,0,.94-.2.89.48s-.6.39-1,.42a10.75,10.75,0,0,1-1.39,0c-.55,0-.68.28-.67.77s.2.68.71.77c.66.13,1.86-.49,1.89.45s-1.2.27-1.85.39c-.46.08-.75.16-.76.72a.7.7,0,0,0,.83.81c.56,0,1,0,1.54,0,.79,0,.79.44.68,1-1.33,0-3.18.52-3.85-.14s-.15-2.52-.15-3.85Z"/><path d="M203.74,60.4c0-1.62,0-3.25-.1-4.88,0-.72.23-1,1-1h2.29c.33,0,.79-.09.76.48s-.49.41-.82.42a10.44,10.44,0,0,1-1.37,0c-.53,0-.87.09-.86.74s.26.74.82.81,1.8-.45,1.81.37-1.15.36-1.78.45-.86.13-.85.77.32.79.87.78.92,0,1.37,0c.81-.08.94.37.88,1Z"/><path d="M221,60.4c0-1.66-.06-3.33-.12-5,0-.68.3-.87.92-.85H225v.92h-2c-.52,0-1.15-.18-1.15.76s.63.68,1.16.78,1.46-.42,1.46.44c0,.7-.92.3-1.42.41a.81.81,0,0,1-.31,0c-.51,0-.89.06-.88.73s.28.8.84.8a21.81,21.81,0,0,1,2.29.08c0,.51.21,1.08-.77,1A26.46,26.46,0,0,0,221,60.4Z"/><path d="M181.59,60.4a2.25,2.25,0,0,1,.79-1.6,1.91,1.91,0,0,0,.22-2.7,2.39,2.39,0,0,0-.22-.23,7.55,7.55,0,0,1-.74-1.18c1.57-.54,1.51,1.09,2.32,1.56.92-.25.8-2.16,2.62-1.46-2.8,1.93-1.07,3.76-.07,5.61h-.92c-1.65-2.15-1.65-2.15-3.07,0Z"/><path d="M189.28,60.4c-.73-.59-1.64-1-1.93-2a2.92,2.92,0,0,1,.87-3.2,3.08,3.08,0,0,1,3.3-.47c.36.13,1,.3.73.93s-.66.11-1,0c-1.37-.48-2.54,0-2.89,1.14a2,2,0,0,0,1.25,2.54l.09,0a2,2,0,0,0,1.48-.16c.36-.17.76-.53,1,0s-.37.6-.62.87a2.2,2.2,0,0,1-.44.36Z"/><path d="M217.27,60.4c-.47-1.18-.17-2.42-.22-3.63,0-.75,0-1.48-1.07-1.33-.34,0-.61-.1-.58-.51s.31-.36.56-.36h3.21c.26,0,.53,0,.55.37a.47.47,0,0,1-.59.5c-1.26-.17-1.09.69-1.11,1.45a17.91,17.91,0,0,1-.14,3.51Z"/><path d="M199.12,60.4a32.71,32.71,0,0,1-.13-5c0-.36,0-.78.52-.76s.47.46.47.81c0,.87.07,1.74,0,2.61s.24,1.54,1.35,1.39c.71-.09,1.38,0,1.18,1Z"/><path d="M292.93,20.14H395a8,8,0,0,1,7.95,7.94h0A8,8,0,0,1,395,36H292.93A7.94,7.94,0,0,1,285,28.08h0A7.94,7.94,0,0,1,292.93,20.14Z" style="fill:#fefefe"/><path d="M402.54,31.71c-.12,2.39-2.59,4.75-5.23,5a20.68,20.68,0,0,1-2.36.08H261.26c-3.52,0-5.49-2-5.49-5.49V7.46c0-3.25,2-5.23,5.27-5.24h24.2a4.9,4.9,0,0,1,5.29,4.5,4.08,4.08,0,0,1,0,.7v12a.91.91,0,0,1-.72,1,6.17,6.17,0,0,0-4.23,5.9,15.68,15.68,0,0,0,.16,4.38,6.4,6.4,0,0,0,6,5h103C398.21,35.82,401,35,402.54,31.71Z" style="fill:#7ab600"/><path d="M295.58,28.6a5.64,5.64,0,0,1,3.11-4,2.81,2.81,0,0,1,3.8,1.14l0,.06c.41-.36.81-.71,1.24-1a1.55,1.55,0,0,1,1.73-.32c.64.34.61.91.56,1.54a3.86,3.86,0,0,1-.05.66c.54-.62,1-1.14,1.47-1.64s1.12-1,1.9-.56.66,1.16.56,1.83c-.18,1.22-.45,2.43-.67,3.66,0,.27-.18.62.15.79s.52-.12.65-.31c.6-.91,1.17-.36,1.71,0a5,5,0,0,1,.65.73c.34.38.71.6,1.17.19a.75.75,0,0,0,.15-1.05.71.71,0,0,0-.15-.15c-.48-.53-1-1-1.53-1.53a2.38,2.38,0,0,1-.69-2.67,2.59,2.59,0,0,1,2.48-1.65c1-.07,2-.06,2.59,1.07.42-.3.8-.6,1.21-.86a1.29,1.29,0,0,1,1.48,0,1.23,1.23,0,0,1,.45,1.32c-.2,1.19-.44,2.37-.64,3.56-.05.3-.3.72.08.91s.6-.3.78-.58a11.74,11.74,0,0,0,1.79-4.36,1.35,1.35,0,0,1,1.59-1,1.48,1.48,0,0,1,.35.13c.37.18.18.44.14.67-.27,1.51-.57,3-.85,4.52-.06.36-.32.91.07,1.08s.64-.3.91-.54a2.42,2.42,0,0,0,.27-.36c.33.12.41.34.3.49a4.62,4.62,0,0,1-2.45,2,1,1,0,0,1-1.32-.61.94.94,0,0,1-.06-.47,13.57,13.57,0,0,1,.14-1.43,13.84,13.84,0,0,1-1.83,2.07c-.48.37-1,.69-1.62.36a1.29,1.29,0,0,1-.51-1.47c.18-1.33.46-2.63.68-3.95,0-.3.25-.71-.15-.92s-.55.19-.71.41c-.65.92-1.15.07-1.65-.16-.28-.13-.42-.49-.65-.72s-.6-.59-1-.25a.75.75,0,0,0-.22,1,1.07,1.07,0,0,0,.14.16,16.23,16.23,0,0,0,1.26,1.23c1.35,1.22,1.57,2.75.53,3.75-1.2,1.21-3.54,1.3-4.57.11-.34-.4-.43-.06-.59.06-.66.48-1.32,1.15-2.19.6s-.48-1.46-.35-2.24.37-1.73.51-2.6c.06-.32.28-.79-.15-.91s-.6.31-.8.59A10.32,10.32,0,0,0,305,31.22a1.32,1.32,0,0,1-1.49,1.14,1.41,1.41,0,0,1-.44-.14c-.44-.17-.24-.48-.19-.74.28-1.51.59-3,.85-4.52.07-.37.42-1-.14-1.06s-.86.43-1,.91a5.38,5.38,0,0,0-.07.69,5.9,5.9,0,0,1-3.23,4.41c-1.62.91-3.59,0-3.74-1.36A5.12,5.12,0,0,1,295.58,28.6Z" style="fill:#1f3470"/><path d="M344.05,30.86c-2,1.91-3,1.9-3.88,0-.47.36-.92.75-1.39,1.08a1.34,1.34,0,0,1-1.57.12,1.28,1.28,0,0,1-.44-1.41c.23-1.28.52-2.56.75-3.84.06-.33.32-.78-.11-1s-.54.27-.79.46-.28.47-.6.42c0-1.13,1.94-2.74,3-2.42a1.17,1.17,0,0,1,.79,1.45v0c-.24,1.34-.52,2.69-.77,4-.05.29-.22.64.08.81s.55-.2.79-.39a1.22,1.22,0,0,0,.35-.78,6.42,6.42,0,0,1,4.7-5.06c.4-.13.61-.29.66-.72a12.13,12.13,0,0,1,.24-1.34c.16-.6.36-1.2-.63-1.2-.13,0-.26-.05-.26-.22a.34.34,0,0,1,.29-.33c.92-.16,1.83-.36,2.7-.48.66-.08.41.45.36.73-.4,2-.81,4-1.22,6.05-.22,1.08-.45,2.17-.66,3.25,0,.21-.11.49.12.63s.42-.09.59-.21a1.47,1.47,0,0,0,.59-1.17,5.69,5.69,0,0,1,2.93-4.57,2.81,2.81,0,0,1,3.92.7,2.33,2.33,0,0,1,.2.34c.43-.36.84-.73,1.29-1.06a1.49,1.49,0,0,1,1.72-.3c.65.37.63,1,.54,1.65,0,.19-.07.38-.12.75a8.91,8.91,0,0,1,1.92-2.27,1.46,1.46,0,0,1,1.66-.07,1,1,0,0,1,.33,1.16,1,1,0,0,1-1.45.76c-.92-.54-1.29-.06-1.71.61a12.75,12.75,0,0,0-1.68,4.36,1.47,1.47,0,0,1-1.9.86l-.14-.06c-.25-.19-.1-.41-.06-.62.29-1.54.6-3.08.87-4.58.05-.36.47-1-.16-1.05-.45-.06-.91.45-1,1v.58a6.12,6.12,0,0,1-3.07,4.34,2.65,2.65,0,0,1-3.69-.68l0-.05c-.32-.38-.42-.23-.67,0a8.36,8.36,0,0,1-1,.79C345.13,32.67,344.34,32.34,344.05,30.86Z" style="fill:#1f3470"/><path d="M327.67,26.75c.55-.64,1-1.23,1.52-1.76s1-1,1.83-.64.69,1.09.69,1.77v.39c.55-.59,1.05-1.2,1.61-1.74a1.38,1.38,0,0,1,1.7-.38c.61.31.61.91.57,1.44a35,35,0,0,1-.68,4c-.06.3-.29.69.08.91s.54-.25.81-.41.31-.67.64-.37,0,.59-.26.81a16.31,16.31,0,0,1-1.4,1.22,1.37,1.37,0,0,1-1.65.18,1.35,1.35,0,0,1-.44-1.51c.2-1.05.46-2.1.65-3.16.07-.37.39-.91-.13-1.11s-.62.38-.84.69a11.06,11.06,0,0,0-1.73,4.42,1.47,1.47,0,0,1-1.94.76l-.09,0c-.25-.19-.09-.41,0-.61.27-1.28.55-2.55.82-3.83a6.53,6.53,0,0,0,.13-.87c0-.18.07-.42-.13-.53s-.43.07-.58.24a7.67,7.67,0,0,0-1.47,2.63,17.92,17.92,0,0,0-.61,2.37c-.22,1.17-1.11.65-1.73.65-.78,0-.35-.6-.29-.92.27-1.54.57-3.08.86-4.57.06-.27.24-.62-.12-.79s-.45.2-.67.32-.4.82-.75.46.16-.69.41-1a5.37,5.37,0,0,1,1.34-1.13,1.37,1.37,0,0,1,1.58-.07,1.32,1.32,0,0,1,.45,1.4A2.3,2.3,0,0,0,327.67,26.75Z" style="fill:#1f3470"/><path d="M295.58,28.6v1.95c-.16-.09-.13-.67-.53-.14a5.8,5.8,0,0,1-1.76,1.51,2.1,2.1,0,0,1-2.9-.62,2,2,0,0,1-.33-1,6,6,0,0,1,3.18-5.81,3.1,3.1,0,0,1,2.3-.11,1.14,1.14,0,0,1-.07,2.15c-.53.14-.84-.18-1.1-.61s-.3-.91-.85-.8-.57.58-.72,1a7.52,7.52,0,0,0-.52,3.35c.11,1.2.91,1.58,1.91.92C294.8,29.88,295.65,29.6,295.58,28.6Z" style="fill:#203570"/><path d="M363.33,31.34a1.16,1.16,0,0,1-.45-1.59,1.06,1.06,0,0,1,.36-.4c.22-.2.25-.33,0-.54a2.25,2.25,0,0,1-.43-2.86,2.38,2.38,0,0,1,2.62-1.16,9.89,9.89,0,0,0,3.29.38c-.34.75-.91.38-1.23.66.76,2.43-.49,3.91-3,3.53a.82.82,0,0,0-1.05.59c-.14.48.29.83.77.92.8.11,1.63.11,2.44.22s1.68.22,1.9,1.23a2.07,2.07,0,0,1-1.31,2.13,4.54,4.54,0,0,1-3.16.31c-.91-.21-1.71-.57-1.91-1.59S362.59,31.79,363.33,31.34Z" style="fill:#78b504"/><path d="M383.65,31.36c-.26.27,0,.91-.53.81s-.28-.53-.28-.81V22.27c0-.28-.16-.74.34-.76s.38.5.39.79v3.52c.43,0,.57-.33.82-.5a2.8,2.8,0,0,1,3.92.47,2.92,2.92,0,0,1,.52,1.08,5.73,5.73,0,0,1,.15,2.22,3.31,3.31,0,0,1-1.93,3A2.92,2.92,0,0,1,383.65,31.36Z" style="fill:#7ab607"/><path d="M375.13,28.52c0,2.46-1.27,3.83-3.5,3.76a3,3,0,0,1-3-2.34,5.32,5.32,0,0,1-.12-2.14,3.32,3.32,0,0,1,6.63.34C375.14,28.27,375.13,28.4,375.13,28.52Z" style="fill:#78b504"/><path d="M378.38,31.21c.78-1.83,1.49-3.55,2.21-5.25.11-.26.23-.54.35-.8a.46.46,0,0,1,.57-.27c.42.13.1.39,0,.54-.86,2.08-1.74,4.15-2.62,6.2-.12.27-.18.59-.59.57s-.43-.33-.54-.59c-.85-2-1.7-4-2.52-5.94-.1-.23-.46-.59-.07-.75s.6.21.75.57C376.74,27.34,377.53,29.19,378.38,31.21Z" style="fill:#78b505"/><path d="M390.66,26.45c.71-1.25,1.54-1.83,2.74-1.67.3,0,.75.06.7.5s-.5.27-.79.23a2.31,2.31,0,0,0-2.63,1.91,1.82,1.82,0,0,0,0,.4v3.66c0,.27.21.74-.34.75s-.39-.44-.39-.72V25.74c0-.28-.2-.77.3-.78s.32.46.37.75S390.65,26.2,390.66,26.45Z" style="fill:#7eb80f"/><path d="M340.43,21.19a1.46,1.46,0,0,1-1.27,1.48,1,1,0,0,1-1.1-1.08,1.47,1.47,0,0,1,1.37-1.49A1,1,0,0,1,340.43,21.19Z" style="fill:#223772"/><path d="M380.27,32a.66.66,0,0,1,.72.66.62.62,0,0,1-.57.67h-.09a.59.59,0,0,1-.69-.5.53.53,0,0,1,0-.13C379.61,32.22,379.9,32,380.27,32Z" style="fill:#7eb80e"/><path d="M360.65,32.71a.66.66,0,0,1-.73.6h0a.6.6,0,0,1-.61-.59.78.78,0,0,1,0-.14A.61.61,0,0,1,360,32h0a.67.67,0,0,1,.67.67Z" style="fill:#78b500"/><path d="M276.69,7.92c.42,1.2-.59,1.05-1.38,1.16a10.71,10.71,0,0,0-1.09,21,7.32,7.32,0,0,0,1.74.26c.64,0,.74.26.74.82,0,1.75,0,1.75-1.74,1.56a13.17,13.17,0,0,1,.84-26.24C276.69,6.5,276.69,6.5,276.69,7.92Z" style="fill:#fdfdfd"/><path d="M276.1,28a7.82,7.82,0,0,1-6.91-4.57,8,8,0,0,1,.91-8.76c.45-.62.84-.91,1.36-.11a.7.7,0,0,0,.21.21c.69.52.82.92.2,1.77a5.77,5.77,0,0,0,7.94,8.1c.91-.64,1.34-.56,2,.2.77.91.83.86-.13,1.56A8.55,8.55,0,0,1,276.1,28Z" style="fill:#fdfdfd"/><path d="M282.89,19.92a1.87,1.87,0,1,1-1.8-1.94A1.91,1.91,0,0,1,282.89,19.92Z" style="fill:#fcfdfb"/><path d="M278.34,15.39a1.82,1.82,0,0,1-1.82,1.83h0a1.88,1.88,0,0,1-1.88-1.83,1.92,1.92,0,0,1,1.94-1.9h0A1.89,1.89,0,0,1,278.34,15.39Z" style="fill:#fcfdfb"/><path d="M300.34,27.07a7.65,7.65,0,0,1-1.13,3.77c-.24.36-.53.74-1,.63s-.5-.64-.52-1a8.22,8.22,0,0,1,.91-4.44c.26-.49.59-1.1,1.22-.92s.49.84.54,1.33C300.36,26.53,300.34,26.69,300.34,27.07Z" style="fill:#fcfcfc"/><path d="M349.9,29.48A7.54,7.54,0,0,1,351,25.73c.24-.38.55-.82,1.08-.7s.49.66.52,1a8,8,0,0,1-.92,4.44c-.25.48-.58,1.09-1.22.91s-.49-.83-.53-1.33C349.89,30,349.9,29.88,349.9,29.48Z" style="fill:#fbfbfc"/><path d="M342.4,29.27a5.89,5.89,0,0,1,1.11-3.38c.28-.4.7-.8,1.22-.57s.3.74.25,1.14a8.06,8.06,0,0,1-1,3.23c-.24.43-.44,1.11-1.05,1S342.46,29.78,342.4,29.27Z" style="fill:#fafbfb"/><path d="M331.61,11.4a2.83,2.83,0,0,0-2.7.43c-.2.14-.29.44-.63.45,0-.44.05-.91-.69-.86s-.47.58-.47.92v7.92c0,.41,0,.75.59.77s.67-.29.67-.79V17.42a2.85,2.85,0,0,0,1.95.92,3,3,0,0,0,3.21-2.58C333.94,13.76,333.15,11.93,331.61,11.4Zm.61,4.42A2,2,0,0,1,330,17.37a1.91,1.91,0,0,1-1.65-2v-.48h0a3.51,3.51,0,0,1,.09-1,2,2,0,0,1,1.78-1.68,1.83,1.83,0,0,1,1.92,1.37,3.23,3.23,0,0,1,0,2.19Z" style="fill:#203570"/><path d="M350.73,8.93c0-.47,0-.79-.65-.78s-.6.33-.6.76v3.28a2.83,2.83,0,0,0-2-.91,3,3,0,0,0-3,2.17,4,4,0,0,0,1.15,4.44c1.15.79,2.51.61,4-.65-.16.73.09,1.07.74.92s.31-.7.32-1C350.75,14.41,350.72,11.67,350.73,8.93Zm-1.33,7a1.83,1.83,0,0,1-3.53.34,3.34,3.34,0,0,1-.07-2.65,1.88,1.88,0,0,1,3.66.56v.68h0A6.46,6.46,0,0,1,349.4,15.9Z" style="fill:#203570"/><path d="M296.63,8.73c-.44-.07-.91-.1-1.31-.14s-1,.1-1.52.12-.71.26-.71.78v8c0,.51.16.68.68.67s.6-.22.59-.66V15.28c0-.6.1-.91.8-.81a4.07,4.07,0,0,0,2.12-.32A2.85,2.85,0,0,0,299,11,2.59,2.59,0,0,0,296.63,8.73Zm.65,4a2.86,2.86,0,0,1-2.56.68c-.37,0-.37-.29-.37-.56a19.28,19.28,0,0,0,0-2.15c-.1-.92.27-1.26,1-1.11,1,0,1.83.16,2.23,1a1.84,1.84,0,0,1-.3,2.11Z" style="fill:#203570"/><path d="M337.66,11.26a3.31,3.31,0,0,0-3.42,3.19,2.77,2.77,0,0,0,0,.41,3.21,3.21,0,0,0,2.89,3.49h.38A3.31,3.31,0,0,0,341,15.23a3,3,0,0,0,0-.42,3.24,3.24,0,0,0-2.91-3.54A2.77,2.77,0,0,0,337.66,11.26Zm1.68,5a1.86,1.86,0,0,1-1.69,1.14,1.9,1.9,0,0,1-1.83-1.13,2.93,2.93,0,0,1-.33-1.51A2.81,2.81,0,0,1,336,13a1.83,1.83,0,0,1,3.18.09A3.14,3.14,0,0,1,339.34,16.28Z" style="fill:#203570"/><path d="M355.26,11.26a3.33,3.33,0,0,0-3.35,3.31,2.06,2.06,0,0,0,0,.35,3.19,3.19,0,0,0,2.95,3.42,2.67,2.67,0,0,0,.4,0,3.28,3.28,0,0,0,3.38-3.18,2.57,2.57,0,0,0,0-.48,3.19,3.19,0,0,0-2.95-3.42Zm1.6,5.3a1.84,1.84,0,0,1-2.49.7,1.91,1.91,0,0,1-.71-.7,3.51,3.51,0,0,1,0-3.44,1.91,1.91,0,0,1,2.63-.6,1.79,1.79,0,0,1,.63.65,3.09,3.09,0,0,1,.45,1.67A3,3,0,0,1,356.86,16.56Z" style="fill:#203570"/><path d="M304.69,15.65h0V13.89a2.34,2.34,0,0,0-1.28-2.31,3.89,3.89,0,0,0-3.33.15c-.34.16-.22.4-.14.65s.29.25.54.16a4.76,4.76,0,0,1,.91-.27c1.1-.15,1.75.2,1.94,1,.09.38.07.61-.43.61a6,6,0,0,0-1.83.31,2.27,2.27,0,0,0-1.76,1.88,1.83,1.83,0,0,0,.91,2,2.55,2.55,0,0,0,2.7-.12c.26-.15.54-.68.77.08.09.3.53.16.8.12s.21-.34.21-.55C304.7,17,304.69,16.3,304.69,15.65Zm-1.23-.06a1.73,1.73,0,0,1-1.55,1.83,1.13,1.13,0,0,1-1.18-.53,1.2,1.2,0,0,1,0-1.29,2.76,2.76,0,0,1,2.47-.85C303.65,15,303.35,15.34,303.46,15.59Z" style="fill:#203570"/><path d="M313.68,12.38c.36.08.53-.1.54-.48s-.24-.51-.57-.46c-1,.17-1.39-.18-1.21-1.19,0-.23.15-.62-.17-.68a1.46,1.46,0,0,0-.91.22c-.3.17-.17.54-.17.82,0,.49,0,.91-.68.83-.32,0-.38.17-.37.43s0,.56.41.51c.64-.07.67.31.64.78s0,1,0,1.47h0c0,.64-.05,1.3,0,1.94a1.84,1.84,0,0,0,1.89,1.78,2.22,2.22,0,0,0,.45-.07c.37-.07.6-.18.57-.63s-.23-.43-.57-.4c-.76.07-1.08-.36-1.09-1.05s0-1.64,0-2.44C312.35,12.8,312.5,12.15,313.68,12.38Z" style="fill:#203570"/><path d="M322.24,12.49c.38.08.61.14.72-.33s0-.55-.38-.63a4,4,0,0,0-3.93.86,3.78,3.78,0,0,0-.7,4,3.35,3.35,0,0,0,3.41,1.92,4.68,4.68,0,0,0,.91-.15c.39-.09.82-.05.7-.68s-.58-.32-.92-.27A2.43,2.43,0,0,1,319,15.64a2.49,2.49,0,0,1,0-1.55C319.39,12.71,320.53,12.13,322.24,12.49Z" style="fill:#203570"/><path d="M309.68,11.67c0-.42-.28-.45-.6-.41-.72.08-1.14.57-1.68,1.25,0-.61.13-1.13-.64-1.1s-.48.55-.48.92v5.18c0,.47.1.7.64.7s.64-.25.63-.72v-3a1.78,1.78,0,0,1,1.57-2h.14C309.88,12.36,309.66,12,309.68,11.67Z" style="fill:#203570"/><path d="M316.49,14.89V12c0-.45-.18-.54-.59-.53s-.66,0-.66.55v5.67c0,.45.18.54.58.53s.69,0,.67-.55C316.47,16.72,316.49,15.81,316.49,14.89Z" style="fill:#203570"/><path d="M325.36,12.09c0-.39,0-.69-.54-.67s-.72.1-.7.65c.05.92,0,1.83,0,2.75v2.74c0,.51.14.67.66.67s.58-.21.58-.64C325.33,15.74,325.33,13.91,325.36,12.09Z" style="fill:#203570"/><path d="M324.82,8.73a.72.72,0,0,0-.8.61.86.86,0,0,0,0,.16c0,.49.3.75.8.79a.73.73,0,0,0,.73-.75V9.45a.68.68,0,0,0-.62-.72Z" style="fill:#203570"/><path d="M315.85,8.73a.72.72,0,0,0-.72.7.09.09,0,0,0,0,.05.71.71,0,0,0,.63.79h.15c.51,0,.76-.3.76-.84a.7.7,0,0,0-.7-.71Z" style="fill:#203570"/><path d="M365,35.39a3.15,3.15,0,0,1-1.25-.26c-.65-.27-1.19-.7-1-1.47a1.44,1.44,0,0,1,1.58-1.16,18.16,18.16,0,0,1,2.34.19c.49.06,1,.2,1.13.78a1.28,1.28,0,0,1-.67,1.39A3.63,3.63,0,0,1,365,35.39Z" style="fill:#fcfdfb"/><path d="M367.11,27.08A2,2,0,1,1,365,25.31h.11a1.75,1.75,0,0,1,2,1.47C367.1,26.87,367.11,27,367.11,27.08Z" style="fill:#fdfdfc"/><path d="M383.57,28.57c.06-.92-.25-1.95.81-2.7a2.29,2.29,0,0,1,3.23.22,2.26,2.26,0,0,1,.52,1.09,5,5,0,0,1-.14,3,2.41,2.41,0,0,1-2.47,1.55A1.83,1.83,0,0,1,383.57,30a2.16,2.16,0,0,1,0-.36Z" style="fill:#fdfefd"/><path d="M374.43,28.64c-.07,2.25-1.45,3.51-3.34,3-1.44-.38-2.15-1.91-1.83-3.95a2.49,2.49,0,0,1,2.61-2.36H372C373.55,25.41,374.48,26.67,374.43,28.64Z" style="fill:#fefefd"/><path d="M55.51,13.28a34.28,34.28,0,0,0,4.18,0c2.06-.26,2.58.8,2.6,2.52A13,13,0,0,1,46.66,28.56C38,27,33.18,19.12,35,11.33,37,3.06,45.49-1.27,53.86,1.4a7.87,7.87,0,0,1,2.76,1.38c.7.6,2.44,1,1.24,2.52-.94,1.21-1.76,2-3.57.81-4-2.64-10-1.72-12.85,1.63a10.36,10.36,0,0,0,0,13.74,10.21,10.21,0,0,0,13.06,1.7,7.2,7.2,0,0,0,2-1.66c.79-1.11,1.92-2.37,1.2-3.75-.58-1.11-2.05-.44-3.12-.52a24.11,24.11,0,0,0-3.4,0c-1.44.09-2.27-.2-2.25-1.94s.6-2.15,2.16-2S54,13.28,55.51,13.28Z" style="fill:#4385f3"/><path d="M27.38,5.92c0,4.76.24,9.53-.11,14.26-.61,8.36-6.05,13.43-12.84,17.42-2.23-1.29-1-3.17-.86-4.87,1.32-2.16,1.32-2.16,0-4.3.11-1,.8-1.21,1.63-1.28.56-.13,1.11.31,1.71.05-1-.87-2.64-.49-3.23-1.92.24-1.5,1.44-1.24,2.45-1.33a17.42,17.42,0,0,1,2.05.39c-1.27-1.38-3.37-.67-4.57-2a2.68,2.68,0,0,1,0-2.28c.47-.78,1.35-1,2.06-1.51a3.66,3.66,0,0,0,.06-6.25c-.82-.59-2-.79-2.3-2A7,7,0,0,1,13.4,7a1.81,1.81,0,0,1,.49-.73c2.17-.93,4.45-.44,6.68-.44,2,0,4-.1,6-.12A1.2,1.2,0,0,1,27.38,5.92Z" style="fill:#599c32"/><path d="M13.92,20v2.44c-1.16,1.3-3.07.84-4.83,2.19,2.11-.81,3.74-1.35,5.48-1.15.78.08,1.82-.17,2,1.07-.88.41-2.42-.76-2.68,1.11-.77,1-2.14.86-3.16,1.65,1.71.11,3.41-1.85,4.81.33-.85.07-1.71.13-1.76,1.28-2.25,1.57,0,2.36.61,3.42-.61,1.77-.94,3.52,0,5.27-.55.77-1.06.21-1.54-.08C5.43,33,.46,26.93.24,17.84A94.52,94.52,0,0,1,.1,6.55c4.34-1.48,8.74-.91,13.13-.37.3,0,.48.47.64.77l-.1,3.8a3.94,3.94,0,0,1-1.44,1.05c-3.24,2-3.28,5-.09,7.06C12.81,19.22,13.55,19.33,13.92,20Z" style="fill:#7ab600"/><path d="M.34,5.44C.17.48.43.21,5.48.21H22.36c4.48,0,5.25.83,5.06,5.29a2.3,2.3,0,0,1-.49.15C18.21,6.12,9.49,6,.77,5.72.62,5.72.48,5.54.34,5.44Z" style="fill:#dedfde"/><path d="M127.13,15c0,3.72-.06,7.43,0,11.14,0,1.59-.52,2.05-2.1,2.08s-2-.57-2-2.1q.1-11.26,0-22.54c0-1.58.47-2.07,2.06-2.09s2.1.58,2.06,2.12C127.07,7.39,127.13,11.2,127.13,15Z" style="fill:#39aa57"/><path d="M.34,5.44l27.08.06a.67.67,0,0,1,0,.42l-.47,0c-3.38.45-6.78.08-10.16.2-.94,0-1.92-.23-2.83.24,0,.19,0,.37-.05.55-3.35-1.25-6.82,0-10.22-.5a25.09,25.09,0,0,0-3.36,0,.63.63,0,0,1,.06-1Z" style="fill:#529e57"/><path d="M13.92,20c-3.14-.62-4.69-2.11-4.73-4.55s1.31-3.89,4.58-4.69c2.37.64,4.37,1.65,4.39,4.53S16.43,19.4,13.92,20Z" style="fill:#f8f9f8"/><path d="M16.56,24.54c-2.43-1-4.72-.37-7,.62-.51.22-1.09.84-1.55,0S8.4,24,9,23.71a12.45,12.45,0,0,1,5-1.28,12.53,12.53,0,0,1,4.51,1.08c.68.32,1.66.64,1.09,1.63s-1.15-.11-1.73-.22C17.37,24.83,17,24.67,16.56,24.54Z" style="fill:#eef4ee"/><path d="M15.53,27.63c-1.68-.86-3.18-.1-4.68.57-.5.22-1,.51-1.36-.08-.49-.76.18-1.09.68-1.38a9.43,9.43,0,0,1,3.71-1.09c1.09.29,2.2.5,3.26.88.49.17,1.33.39,1.07,1.18-.34,1-1.06.5-1.68.22A8.25,8.25,0,0,0,15.53,27.63Z" style="fill:#e1eee1"/><path d="M14.38,32.33a2.46,2.46,0,0,1-2.69-1.86c-.52-1.58,1.2-1.23,2.08-1.56a2.2,2.2,0,0,0,.64.34c.63.12,1.52-.21,1.8.56s-.67,1-1,1.57A8.13,8.13,0,0,1,14.38,32.33Z" style="fill:#f5f8f5"/><path d="M13.92,6.4c2.47-1,5.06-.3,7.58-.46,1.8-.11,3.61,0,5.41,0-2.82,1-5.73.37-8.59.46C16.85,6.46,15.39,6.41,13.92,6.4Z" style="fill:#27762e"/><path d="M120.47,13.26c0-1.52-.42-2.55-2-2-2.09.69-3.88,0-5.8-.52a6.18,6.18,0,0,0-3.09.19,9.17,9.17,0,0,0-5.9,12.21c1.89,5.05,6.91,6.8,12.65,4.26.41,2.53-.28,4.6-2.4,5.39s-4.55.68-6-1.68c-1.17-1.9-2.27-.35-3.25.09-1.46.67-.42,1.61.1,2.28a9.39,9.39,0,0,0,10.57,2.88c2.8-1,5-4.49,5.07-8.06C120.46,23.27,120.4,18.26,120.47,13.26Zm-8.69,11.9c-2.53-.12-4.8-2.77-4.75-5.53,0-2.94,2.47-5.54,5.09-5.47s4.87,2.68,4.79,5.67S114.51,25.29,111.78,25.16Z" style="fill:#4385f3"/><path d="M92.37,10.62c-5.3-.1-9.6,4.46-9,9-.51,5.63,4.36,9.13,9.08,9.1a9,9,0,1,0-.11-18.06Zm0,14.54c-2.83.08-5.13-2.46-5.1-5.65a5.22,5.22,0,0,1,5.12-5.36,5.67,5.67,0,0,1,5.14,5.51A5.73,5.73,0,0,1,92.38,25.16Z" style="fill:#fabc07"/><path d="M144.61,24.26c-.89-.7-1.81-2.1-3.45-.56a4.57,4.57,0,0,1-6.36.42c-1.22-1-1.63-1.66.3-2.39,3.07-1.16,6-2.62,9.1-3.79,1.27-.49,1.26-1,.79-2.09a8.43,8.43,0,0,0-9.51-5.06c-3.92.84-6.5,4.3-6.52,8.77,0,4,1.71,6.9,5,8.33,3.43,1.49,7.56.92,9.9-1.5C144.35,25.86,146,25.29,144.61,24.26ZM133,17.66a5,5,0,0,1,4.41-3.6,3.54,3.54,0,0,1,2.43.8c.72.57,1.1,1.12-.17,1.6-1.84.68-3.66,1.42-5.45,2.24C132.89,19.32,132.66,18.83,133,17.66Z" style="fill:#e94437"/><path d="M72.77,10.64a8.82,8.82,0,0,0-9.4,8.86,9.12,9.12,0,0,0,18.24.29A8.81,8.81,0,0,0,72.77,10.64Zm-.29,14.53c-2.67,0-5.33-2.86-5.28-5.72a6,6,0,0,1,5.42-5.31c2.66,0,5,2.69,5,5.58A5.41,5.41,0,0,1,72.48,25.17Z" style="fill:#e94436"/><path d="M38.35,36.43a3.45,3.45,0,0,0,1.72.48c1,0,1.56-.52,1.56-1.27s-.4-1.09-1.4-1.47c-1.22-.43-2-1.06-2-2.11a2.14,2.14,0,0,1,2.41-2,3.46,3.46,0,0,1,1.64.36l-.26.79a2.89,2.89,0,0,0-1.41-.36c-1,0-1.41.61-1.41,1.12,0,.69.46,1,1.48,1.43,1.26.49,1.9,1.09,1.9,2.19s-.85,2.14-2.6,2.14a3.8,3.8,0,0,1-1.9-.48Z" style="fill:#949494"/><path d="M45,30.76a.6.6,0,0,1-1.2,0,.59.59,0,0,1,.6-.61A.57.57,0,0,1,45,30.76ZM43.89,37.6V32.26h1V37.6Z" style="fill:#949494"/><path d="M47.64,30.72v1.54H49V33H47.64v2.88c0,.66.19,1,.73,1a2.36,2.36,0,0,0,.56-.06l0,.72a2.24,2.24,0,0,1-.86.14,1.38,1.38,0,0,1-1-.41,2,2,0,0,1-.37-1.39V33h-.83v-.74h.83V31Z" style="fill:#949494"/><path d="M50.59,35.1A1.72,1.72,0,0,0,52.43,37a3.38,3.38,0,0,0,1.47-.28l.17.7a4.42,4.42,0,0,1-1.78.33A2.48,2.48,0,0,1,49.67,35a2.59,2.59,0,0,1,2.5-2.88,2.26,2.26,0,0,1,2.21,2.51,4,4,0,0,1,0,.45Zm2.85-.69a1.38,1.38,0,0,0-1.35-1.58,1.6,1.6,0,0,0-1.48,1.58Z" style="fill:#949494"/><path d="M57.82,36.43a3.45,3.45,0,0,0,1.72.48c1,0,1.55-.52,1.55-1.27s-.39-1.09-1.4-1.47c-1.21-.43-2-1.06-2-2.11a2.14,2.14,0,0,1,2.41-2,3.46,3.46,0,0,1,1.64.36l-.27.79a2.85,2.85,0,0,0-1.41-.36c-1,0-1.4.61-1.4,1.12,0,.69.45,1,1.48,1.43,1.26.49,1.9,1.09,1.9,2.19s-.85,2.14-2.61,2.14a3.76,3.76,0,0,1-1.89-.48Z" style="fill:#949494"/><path d="M64,35.1A1.71,1.71,0,0,0,65.79,37a3.4,3.4,0,0,0,1.48-.28l.17.7a4.42,4.42,0,0,1-1.78.33A2.48,2.48,0,0,1,63,35a2.58,2.58,0,0,1,2.5-2.88,2.26,2.26,0,0,1,2.21,2.51,3.52,3.52,0,0,1,0,.45Zm2.85-.69a1.39,1.39,0,0,0-1.35-1.58A1.62,1.62,0,0,0,64,34.41Z" style="fill:#949494"/><path d="M73.55,32.26c0,.38,0,.81,0,1.46v3.1a3.06,3.06,0,0,1-.76,2.44,2.81,2.81,0,0,1-1.94.64A3.45,3.45,0,0,1,69,39.46l.25-.74a3,3,0,0,0,1.56.42c1,0,1.72-.52,1.72-1.86v-.6h0a1.9,1.9,0,0,1-1.7.89A2.38,2.38,0,0,1,68.56,35,2.56,2.56,0,0,1,71,32.14a1.77,1.77,0,0,1,1.66.92h0l0-.8Zm-1,2.1a1.56,1.56,0,0,0-.05-.44,1.4,1.4,0,0,0-1.36-1c-.92,0-1.59.78-1.59,2,0,1,.53,1.92,1.58,1.92a1.42,1.42,0,0,0,1.35-1,1.81,1.81,0,0,0,.07-.52Z" style="fill:#949494"/><path d="M79.58,36.14c0,.55,0,1,0,1.46h-.86l-.05-.87h0a2,2,0,0,1-1.77,1c-.84,0-1.84-.47-1.84-2.34V32.26h1v3c0,1,.31,1.7,1.19,1.7A1.41,1.41,0,0,0,78.52,36a1.31,1.31,0,0,0,.09-.5V32.26h1Z" style="fill:#949494"/><path d="M81.19,33.92c0-.63,0-1.17,0-1.66H82l0,1.05h0a1.61,1.61,0,0,1,1.48-1.17,1.2,1.2,0,0,1,.28,0v.91a1.61,1.61,0,0,0-.33,0,1.37,1.37,0,0,0-1.31,1.25,2.89,2.89,0,0,0,0,.45V37.6h-1Z" style="fill:#949494"/><path d="M89.52,34.88a2.61,2.61,0,0,1-2.66,2.84A2.54,2.54,0,0,1,84.3,35,2.6,2.6,0,0,1,87,32.14,2.53,2.53,0,0,1,89.52,34.88Zm-4.24.06c0,1.17.68,2.05,1.62,2.05s1.63-.87,1.63-2.07c0-.91-.46-2.06-1.6-2.06S85.28,33.92,85.28,34.94Z" style="fill:#949494"/></svg>