<svg xmlns="http://www.w3.org/2000/svg" viewBox="0 0 435.54 61.27"><defs><style>.e2fcde8e-1194-470d-a441-301d492b3e1c{fill:#ea2328;}.b5deb72f-0852-4a82-a666-9796c960a68b{fill:#090807;}.f74c4e92-673a-4aa9-95a8-462e99a7ca6a{fill:#eb2d31;}.ac89bfa1-74a0-42a5-b5bf-fc3b1caa3ff0{fill:#a2dbe9;}.b63f2fe3-0b50-4d7c-8722-45691e69be66{fill:#83c7db;}.aed3cbb2-5e08-4467-acc6-4b0018b4b3ac{fill:#c7e8ef;}.baab7280-f4cd-4995-a537-63c112b8110d{fill:#c6e7ef;}.b20c01ab-f365-44d3-95c5-e7d1e8498b10{fill:#0a0908;}.a818d0fd-16c7-4d3e-8b74-9aac70d026b1{fill:#0d0c0b;}.e42d3ce2-c327-454d-aea5-c92dc0584de9{fill:#fefbfb;}.ae4e942b-9bb9-4c5d-b68f-753cf13276e9{fill:#ea2729;}.bca8f5cb-20fa-4e4f-b4f3-6363c27ad6e2{fill:#fafafa;}.a5c58f46-e83b-43b1-aa54-70a372c4b2d0{fill:#ee4b44;}.a38d2de8-9a3e-41f4-9873-4507b8e0b281,.a9383ff5-1315-41ea-bca1-61dde1812032,.ae740dde-0e8d-4236-a59a-62961201a840,.bae281db-e10a-4cc5-811d-264672054fe4,.fec792a7-ccb3-4e65-8b0e-ccb56f0788a8{fill-rule:evenodd;}.ae740dde-0e8d-4236-a59a-62961201a840{fill:#f5f5f5;}.bae281db-e10a-4cc5-811d-264672054fe4{fill:#333;}.a38d2de8-9a3e-41f4-9873-4507b8e0b281{fill:#23da00;}.fec792a7-ccb3-4e65-8b0e-ccb56f0788a8{fill:#00a801;}.be633b7b-83e1-4d1d-8c30-e31c6bf5bef4{fill:#fefefe;}.ab8eb67d-4a1d-44f6-92f0-dee1d049db1d{fill:#7ab600;}.bc08c8ef-ba3d-4451-b6e4-fec5730af22f{fill:#1f3470;}.fd90ea14-ee25-458a-8587-b6a64e0959b0{fill:#203570;}.be4a0447-ffed-41bc-ad2d-7d4e16e58806{fill:#78b504;}.ebdf0444-767c-4d4f-9475-4a6c05c1bfa5{fill:#7ab607;}.e57f8634-a513-4a75-a43f-adeb275d2a1a{fill:#78b505;}.f4ddc471-39ac-4326-bc12-7e5f00ff1271{fill:#7eb80f;}.abea4802-acab-42a8-b597-b6beaab261ff{fill:#223772;}.b62cb439-26ef-4645-be40-9cacc46f8e45{fill:#7eb80e;}.a009aa2a-22cd-4b42-a407-c2f182910136{fill:#78b500;}.f0644f7c-10bd-4b4b-bdda-9a165e64182b{fill:#fdfdfd;}.a35cf264-6a0a-4f0d-b3c5-65eeffe0625c{fill:#fcfdfb;}.b019cca9-4461-4333-86a9-63bcb6190036{fill:#fcfcfc;}.f147bf77-75fe-4d17-99a3-e7b1c62ad88c{fill:#fbfbfc;}.ede024d3-c6d9-4c48-82ee-ccbe426a59e8{fill:#fafbfb;}.a0dae809-3388-48d8-95a0-7028eb67e317{fill:#fdfdfc;}.bb75eb5c-3352-4807-949d-e6024173a911{fill:#fdfefd;}.f0e09642-fe39-475e-bf84-16c5a87e4e9c{fill:#fefefd;}</style></defs><g id="a8aef365-cd34-42e7-8767-0b0da7649fdb" data-name="Camada 2"><path class="e2fcde8e-1194-470d-a441-301d492b3e1c" d="M233.94,6.6c.1.42.49.29.74.4a5.52,5.52,0,0,1-2.08,10.64A5.51,5.51,0,0,1,230.54,7l1-.43Z" transform="translate(-29.3 -5.77)"/><path class="b5deb72f-0852-4a82-a666-9796c960a68b" d="M241.62,6.6v3.48c1.48-.53,2.9-.76,4.14.41a4.09,4.09,0,0,1,1.11,3.66,3.86,3.86,0,0,1-3.55,3.45,7.11,7.11,0,0,1-1.53,0c-2.56-.16-2.6-.22-2.6-2.74q0-4.14,0-8.28Z" transform="translate(-29.3 -5.77)"/><path class="f74c4e92-673a-4aa9-95a8-462e99a7ca6a" d="M249.3,6.6c.11.56.63,1.11,0,1.67A1,1,0,0,1,248,8.4c-.79-.6-.4-1.23.11-1.8Z" transform="translate(-29.3 -5.77)"/><path class="ac89bfa1-74a0-42a5-b5bf-fc3b1caa3ff0" d="M242.54,56c-.41.77-.81.79-1.21,0-2.75-7.22-5-14.63-7.74-21.85-.79-2.61-1.15-5.32-1.7-8a1.9,1.9,0,0,1,.23-1.45h9.49c.44.81-.27,1.19-.66,1.66C239,28.71,237.09,31,235,33.54h13.64a12.37,12.37,0,0,0-2.15-2.86c-1.23-1.5-2.43-3-3.74-4.45-.37-.4-.77-.84-.52-1.49h9.48a2.18,2.18,0,0,1,.27,1.59c-.6,2.61-1,5.27-1.73,7.84-2.38,6.39-4.51,12.88-6.73,19.33A17.1,17.1,0,0,0,242.54,56Z" transform="translate(-29.3 -5.77)"/><path class="b63f2fe3-0b50-4d7c-8722-45691e69be66" d="M242.54,56c-.28-1.2.43-2.21.78-3.23,2-6,4.12-11.87,6.2-17.8.1-.28.11-.61.41-.78a2.22,2.22,0,0,1,1.57-.47q4,0,7.92,0a2.16,2.16,0,0,1,1.56.48q-6,7.18-12.09,14.38C246.79,51.11,244.66,53.57,242.54,56Z" transform="translate(-29.3 -5.77)"/><path class="b63f2fe3-0b50-4d7c-8722-45691e69be66" d="M233.93,34.23c1.33,2.48,2,5.23,2.95,7.84,1.53,4.1,2.87,8.27,4.26,12.43.15.47.68,1,.19,1.53q-9.21-10.89-18.43-21.79A25.8,25.8,0,0,1,233.93,34.23Z" transform="translate(-29.3 -5.77)"/><path class="aed3cbb2-5e08-4467-acc6-4b0018b4b3ac" d="M242.26,24.74c1.21,2,3,3.57,4.38,5.47.88,1.21,2.12,2.16,2.81,3.65H234.22l6.48-7.76c.35-.42.91-.69.91-1.35Z" transform="translate(-29.3 -5.77)"/><path class="aed3cbb2-5e08-4467-acc6-4b0018b4b3ac" d="M261,34.24H249.93c.53-3.18,1.54-6.26,1.81-9.48,2.7,2.94,5.6,5.67,8.53,8.38C260.57,33.4,261.26,33.55,261,34.24Z" transform="translate(-29.3 -5.77)"/><path class="baab7280-f4cd-4995-a537-63c112b8110d" d="M233.93,34.23h-11c1.57-2,3.55-3.61,5.29-5.45,1.3-1.37,2.62-2.69,3.93-4C232.52,28,233.33,31.07,233.93,34.23Z" transform="translate(-29.3 -5.77)"/><path class="b20c01ab-f365-44d3-95c5-e7d1e8498b10" d="M255.35,17.62c-2,0-2.92-.84-3-2.76,0-.86,0-1.73,0-2.6,0-.56.11-1.14-.76-1.16-.49,0-.47-.44-.47-.8s0-.61.33-.57c1.13.13.94-.66.88-1.27-.09-.89.26-1.11,1.11-1.12s1.13.4,1,1.19-.07,1.35,1,1.17c.64-.11.73.3.75.83s-.26.76-.74.67c-1-.17-1,.43-1,1.16s0,1.64,0,2.45c0,.59.17,1.09.85,1,.91-.13,1.41.16,1.31,1.1S255.77,17.48,255.35,17.62Z" transform="translate(-29.3 -5.77)"/><path class="a818d0fd-16c7-4d3e-8b74-9aac70d026b1" d="M250.16,13.71c0,.87,0,1.75,0,2.61s0,1.34-1.08,1.38-1-.61-1-1.33c0-1.89.05-3.79,0-5.68,0-.82.23-1.06,1-1s1.18.07,1.11,1S250.16,12.69,250.16,13.71Z" transform="translate(-29.3 -5.77)"/><path class="e42d3ce2-c327-454d-aea5-c92dc0584de9" d="M234.57,13.34c1.19,1.06,1.11,1.51-.41,2.05A3.88,3.88,0,0,1,230,14.3a3.77,3.77,0,0,1-.21-4.15,3.49,3.49,0,0,1,3.88-1.43c1.55.37,2.25,1.52,2.41,3.94a24.66,24.66,0,0,1-3.54.6C233.25,13.81,233.93,12.82,234.57,13.34Z" transform="translate(-29.3 -5.77)"/><path class="ae4e942b-9bb9-4c5d-b68f-753cf13276e9" d="M234.57,13.34c-.83.23-1.54,1.1-2.51.47-.29-.18-.66-.38-.53-.81s.5-.21.77-.23c1.26,0,2.51-.07,3.77-.11C235.79,13.38,234.91,12.77,234.57,13.34Z" transform="translate(-29.3 -5.77)"/><path class="bca8f5cb-20fa-4e4f-b4f3-6363c27ad6e2" d="M241.6,14c-.06-1.21-.06-2.32,1.39-2.37,1.18-.05,1.53.86,1.57,1.86a1.94,1.94,0,0,1-2,2.17C241.06,15.67,241.76,14.56,241.6,14Z" transform="translate(-29.3 -5.77)"/><path class="a5c58f46-e83b-43b1-aa54-70a372c4b2d0" d="M232.59,11.46c-.4-.15-1.08.25-1.12-.42s.61-.88,1.17-.91,1.25.23,1.22.84C233.83,11.82,233,11.25,232.59,11.46Z" transform="translate(-29.3 -5.77)"/><path d="M250.84,66.84c0-1.63,0-3.27,0-4.9,0-.32-.19-.76.31-.9a.93.93,0,0,1,1,.43c.86,1.13,1.75,2.23,2.93,3.74,0-1.42,0-2.41,0-3.39,0-.34-.08-.78.46-.79s.5.41.49.75c0,1.69,0,3.38-.05,5.06h-.92l-3-3.85a4.25,4.25,0,0,0-.33,1.89c0,.66,0,1.31-.06,2Z" transform="translate(-29.3 -5.77)"/><path d="M235.47,66.84c0-1.53.07-3.07,0-4.6-.06-1.05.33-1.35,1.31-1.26.71.07,1.43,0,2.15,0,.25,0,.51,0,.55.38s-.22.52-.56.52c-.57,0-1.13,0-1.7,0s-.78.09-.78.67.18.8.78.88,1.8-.45,1.83.36-1.14.37-1.77.46-.86.19-.84.81.41.74.92.73,1,0,1.54,0c.82,0,.78.44.57,1Z" transform="translate(-29.3 -5.77)"/><path d="M218.55,61c1,0,2,0,3.08,0,.35,0,.94-.2.89.48s-.6.39-1,.42a10.75,10.75,0,0,1-1.39,0c-.55,0-.68.28-.67.77s.2.68.71.77c.66.13,1.86-.49,1.89.45s-1.2.27-1.85.39c-.46.08-.75.16-.76.72s.27.83.83.81,1,0,1.54,0c.79,0,.79.44.68,1-1.33,0-3.18.52-3.85-.14s-.15-2.52-.15-3.85Z" transform="translate(-29.3 -5.77)"/><path d="M245.62,66.84c0-1.62,0-3.25-.1-4.88,0-.72.23-1,1-1s1.53,0,2.29,0c.33,0,.79-.09.76.48s-.49.41-.82.42a12.54,12.54,0,0,1-1.37,0c-.53,0-.87.09-.86.74s.26.74.82.81,1.8-.45,1.81.37-1.15.36-1.78.45-.86.13-.85.77.32.79.87.78.92,0,1.37,0c.81-.08.94.37.88,1Z" transform="translate(-29.3 -5.77)"/><path d="M262.84,66.84c0-1.66-.06-3.33-.12-5,0-.68.3-.87.92-.85,1.07,0,2.13,0,3.19,0v.92c-.66,0-1.32,0-2,0-.52,0-1.15-.18-1.15.76s.63.68,1.16.78,1.46-.42,1.46.44c0,.7-.92.3-1.42.41a1.07,1.07,0,0,1-.31,0c-.51,0-.89.06-.88.73s.28.8.84.8c.77,0,1.53,0,2.29.08,0,.51.21,1.08-.77,1A24.7,24.7,0,0,0,262.84,66.84Z" transform="translate(-29.3 -5.77)"/><path d="M223.47,66.84a2.25,2.25,0,0,1,.79-1.6,1.92,1.92,0,0,0,0-2.93,8.47,8.47,0,0,1-.74-1.18c1.57-.54,1.51,1.09,2.32,1.56.92-.25.8-2.16,2.62-1.46-2.8,1.93-1.07,3.76-.07,5.61h-.92c-1.65-2.15-1.65-2.15-3.07,0Z" transform="translate(-29.3 -5.77)"/><path d="M231.16,66.84c-.73-.59-1.64-1-1.93-2a2.92,2.92,0,0,1,.87-3.2,3.07,3.07,0,0,1,3.3-.47c.36.13,1,.3.73.93s-.66.11-1,0c-1.37-.48-2.54,0-2.89,1.14a2,2,0,0,0,1.34,2.56,2,2,0,0,0,1.48-.16c.36-.17.76-.53,1,0s-.37.6-.62.87-.3.24-.44.36Z" transform="translate(-29.3 -5.77)"/><path d="M259.15,66.84c-.47-1.18-.17-2.42-.22-3.63,0-.75,0-1.48-1.07-1.33-.34,0-.61-.1-.58-.51s.31-.36.56-.36h3.21c.26,0,.53,0,.55.37s-.26.55-.59.5c-1.26-.17-1.09.69-1.11,1.45a17.17,17.17,0,0,1-.14,3.51Z" transform="translate(-29.3 -5.77)"/><path d="M241,66.84a32.74,32.74,0,0,1-.13-5.05c0-.36,0-.78.52-.76s.47.46.47.81c0,.87.07,1.74,0,2.61-.09,1,.24,1.54,1.35,1.39.71-.09,1.38,0,1.18,1Z" transform="translate(-29.3 -5.77)"/><path class="a9383ff5-1315-41ea-bca1-61dde1812032" d="M29.3,13.05a4.37,4.37,0,0,1,4.37-4.37H183.09a4.37,4.37,0,0,1,4.37,4.37V25a4.37,4.37,0,0,1-4.37,4.36H33.67A4.36,4.36,0,0,1,29.3,25Z" transform="translate(-29.3 -5.77)"/><path class="ae740dde-0e8d-4236-a59a-62961201a840" d="M70.25,21.7H74v1.88H68V14.76h2.25Zm9-7a4.51,4.51,0,1,1-4.77,4.48A4.53,4.53,0,0,1,79.25,14.68Zm0,1.88a2.53,2.53,0,0,0-2.49,2.61,2.56,2.56,0,0,0,2.49,2.64,2.52,2.52,0,0,0,2.45-2.64A2.49,2.49,0,0,0,79.27,16.56Zm11.09-1.81v6a2.77,2.77,0,0,1-3.06,3,3.88,3.88,0,0,1-3-1.41l1-1.5a2.83,2.83,0,0,0,1.85,1c.6,0,.95-.37.95-1.09V16.56h-3V14.75ZM97.83,22H94l-.64,1.62H91l3.81-8.82h2.31l3.72,8.82h-2.4Zm-.65-1.7L95.91,17l-1.28,3.27Zm7.42-5.5h3.85c2.25,0,3.55,1.11,3.55,3.07s-1.3,3.27-3.55,3.27h-1.6v2.48H104.6Zm2.25,1.76v2.81h1.48c1,0,1.55-.49,1.55-1.42s-.56-1.39-1.55-1.39Zm11.64,7.06-1.31-2.48h-1.76v2.48h-2.25V14.76h4c2.33,0,3.67,1.11,3.67,3.07a3,3,0,0,1-1.6,2.84L121,23.58Zm-3.07-4.25h1.7c1,0,1.54-.49,1.54-1.42s-.57-1.39-1.54-1.39h-1.7Zm11.07-4.65a4.51,4.51,0,1,1-4.77,4.48A4.53,4.53,0,0,1,126.49,14.68Zm0,1.88A2.53,2.53,0,0,0,124,19.17a2.56,2.56,0,0,0,2.49,2.64A2.53,2.53,0,0,0,129,19.17,2.5,2.5,0,0,0,126.51,16.56Zm12.69,0h-2.67v7h-2.24v-7h-2.63V14.75h7.54Zm7.86,0H142.4v1.76h4.21V20H142.4v1.78h4.8v1.76h-7V14.76h6.91Zm7.45,2.58h1.94v3.44a6.88,6.88,0,0,1-3.66,1.14,4.52,4.52,0,0,1-4.72-4.51,4.58,4.58,0,0,1,4.87-4.49,5.65,5.65,0,0,1,3.6,1.31l-1.26,1.53a3.64,3.64,0,0,0-2.36-1,2.55,2.55,0,0,0-2.56,2.61A2.57,2.57,0,0,0,153,21.81a3.83,3.83,0,0,0,1.56-.43Zm5.75,4.48H158V14.76h2.24ZM162,14.76h3.79c2.78,0,4.69,1.79,4.69,4.41s-1.94,4.41-4.78,4.41H162Zm2.24,1.79v5.24h1.6a2.38,2.38,0,0,0,2.36-2.61,2.44,2.44,0,0,0-2.46-2.63ZM177.56,22H173.7l-.64,1.62h-2.31l3.81-8.82h2.31l3.71,8.82h-2.39Zm-.66-1.7L175.64,17l-1.28,3.27Z" transform="translate(-29.3 -5.77)"/><path class="bae281db-e10a-4cc5-811d-264672054fe4" d="M65.54,33.52a4,4,0,0,1,2.74,1.12l-.71.88a2.85,2.85,0,0,0-2-.91,2.54,2.54,0,1,0,0,5.08,3,3,0,0,0,2-.86l.72.81a4.1,4.1,0,0,1-2.79,1.19,3.66,3.66,0,1,1,0-7.31Zm7.22,0a3.66,3.66,0,1,1-3.83,3.64A3.68,3.68,0,0,1,72.76,33.52Zm0,1.1a2.56,2.56,0,1,0,2.57,2.54A2.56,2.56,0,0,0,72.77,34.62Zm12.75,6.15H84.39V35.38L82.1,40h-.79L79,35.38v5.39H77.88V33.55h1.45l2.38,4.8,2.37-4.8h1.44Zm1.9-7.22H90.3c1.82,0,2.86.9,2.86,2.47s-1,2.58-2.86,2.58H88.64v2.17H87.42Zm1.22,1.1v2.86h1.61c1.11,0,1.74-.48,1.74-1.46s-.63-1.4-1.74-1.4ZM99,40.77l-1.32-2.18h-2v2.17H94.37V33.55H97.3c1.84,0,2.9.9,2.9,2.47a2.32,2.32,0,0,1-1.49,2.34l1.62,2.41Zm-3.37-3.26H97.3c1.11,0,1.75-.48,1.75-1.46s-.64-1.4-1.75-1.4H95.58Zm10.91,1.63h-3.64l-.7,1.63h-1.26l3.18-7.22h1.25l3.16,7.22h-1.3ZM106,38.06l-1.36-3.21-1.36,3.21Zm7.89,2.71H112.7V34.64h-1.42V33.55h2.63Zm4.8-7.25c2,0,3.06,1.3,3.06,3.64s-1.09,3.65-3.06,3.65-3.07-1.3-3.07-3.65S116.73,33.52,118.71,33.52Zm0,1c-1.22,0-1.83.85-1.83,2.68s.61,2.69,1.83,2.69,1.82-.86,1.82-2.69S119.92,34.48,118.71,34.48Zm7.13-1c2,0,3.06,1.3,3.06,3.64s-1.09,3.65-3.06,3.65-3.08-1.3-3.08-3.65S123.86,33.52,125.84,33.52Zm0,1c-1.22,0-1.83.85-1.83,2.68s.61,2.69,1.83,2.69,1.81-.86,1.81-2.69S127,34.48,125.84,34.48Zm5.86-.95c1.18,0,1.9.81,1.9,2.15s-.72,2.17-1.9,2.17-1.91-.82-1.91-2.17S130.51,33.53,131.7,33.53Zm-.55,7.24,5.31-7.22h1.14l-5.31,7.22Zm.55-6.53c-.72,0-1.12.52-1.12,1.44s.4,1.46,1.12,1.46,1.12-.53,1.12-1.46S132.41,34.24,131.7,34.24Zm5.43,2.25c1.19,0,1.91.81,1.91,2.15s-.72,2.16-1.91,2.16-1.91-.81-1.91-2.16A1.88,1.88,0,0,1,137.13,36.49Zm0,.7c-.71,0-1.11.53-1.11,1.45s.4,1.45,1.11,1.45,1.13-.52,1.13-1.45S137.84,37.19,137.13,37.19Zm8.29-3.69a4.65,4.65,0,0,1,2.52.75l-.5,1.07a4.28,4.28,0,0,0-2.12-.67c-.71,0-1.17.27-1.17.75,0,1.58,3.89.73,3.89,3.33,0,1.29-1.14,2.09-2.73,2.09a4.45,4.45,0,0,1-2.95-1.15l.53-1.05a3.8,3.8,0,0,0,2.44,1.05c.85,0,1.35-.32,1.35-.88,0-1.6-3.9-.71-3.9-3.28C142.78,34.28,143.85,33.5,145.42,33.5Zm9.2,1.15h-3.94v2h3.52v1.09h-3.52v2h4.06v1.09h-5.28V33.55h5.16Zm6.55,2.58h1.06v2.66a5,5,0,0,1-2.81.94,3.66,3.66,0,1,1,.07-7.31,4.38,4.38,0,0,1,2.78,1l-.69.9a3.17,3.17,0,0,0-2.09-.82,2.56,2.56,0,1,0,0,5.12,3.39,3.39,0,0,0,1.67-.49Zm8.92-3.68v4.23a3.14,3.14,0,0,1-6.28,0V33.55H165v4.23A1.8,1.8,0,0,0,167,39.73a1.78,1.78,0,0,0,1.91-1.95V33.55Zm6.32,7.22-1.32-2.18h-2v2.17h-1.22V33.55h2.93c1.85,0,2.91.9,2.91,2.47a2.32,2.32,0,0,1-1.5,2.34l1.62,2.41Zm-3.36-3.26h1.71c1.11,0,1.75-.48,1.75-1.46s-.64-1.4-1.75-1.4h-1.71ZM184,39.14h-3.64l-.69,1.63h-1.27l3.19-7.22h1.25l3.15,7.22h-1.3Zm-.46-1.08-1.36-3.21-1.37,3.21Z" transform="translate(-29.3 -5.77)"/><path class="a38d2de8-9a3e-41f4-9873-4507b8e0b281" d="M58.82,31a15.53,15.53,0,0,1-3.73,5.81,19.36,19.36,0,0,1-7.29,4.32c-.1,0-.2.06-.3.09a2.85,2.85,0,0,1-.41,0h0a3.13,3.13,0,0,1-.43,0c-.1,0-.2,0-.3-.09A19.4,19.4,0,0,1,39,36.84,15.45,15.45,0,0,1,35.3,31c-1.51-4.09-1.42-8.59-1.36-12.22v0c0-.3,0-.61,0-1a3.29,3.29,0,0,1,3.09-3.21A12.69,12.69,0,0,0,45.7,11l0,0a2,2,0,0,1,1.37-.53,2,2,0,0,1,1.32.53l0,0a12.67,12.67,0,0,0,8.64,3.64,3.27,3.27,0,0,1,3.08,3.21c0,.35,0,.66,0,1v0C60.25,22.41,60.34,26.93,58.82,31Z" transform="translate(-29.3 -5.77)"/><path class="fec792a7-ccb3-4e65-8b0e-ccb56f0788a8" d="M58.82,31a15.53,15.53,0,0,1-3.73,5.81,19.43,19.43,0,0,1-7.29,4.32,1.67,1.67,0,0,1-.3.08,1.92,1.92,0,0,1-.41,0V10.4a2,2,0,0,1,1.32.53l0,0a12.67,12.67,0,0,0,8.64,3.64,3.27,3.27,0,0,1,3.08,3.21c0,.35,0,.66,0,1v0C60.25,22.41,60.34,26.93,58.82,31Z" transform="translate(-29.3 -5.77)"/><rect class="be633b7b-83e1-4d1d-8c30-e31c6bf5bef4" x="306.63" y="19.59" width="128.91" height="17.35" rx="8.68"/><path class="ab8eb67d-4a1d-44f6-92f0-dee1d049db1d" d="M464.41,38c-.13,2.62-2.83,5.19-5.72,5.52a22.25,22.25,0,0,1-2.58.09H310c-3.85,0-6-2.13-6-6V11.5c0-3.55,2.19-5.72,5.76-5.73h26.45A5.37,5.37,0,0,1,342,11.45c0,4.39,0,8.77,0,13.16a1,1,0,0,1-.79,1.14,6.75,6.75,0,0,0-4.62,6.45,17.48,17.48,0,0,0,.17,4.79,7,7,0,0,0,6.61,5.45h1.39q55.58,0,111.15,0C459.68,42.49,462.69,41.6,464.41,38Z" transform="translate(-29.3 -5.77)"/><path class="bc08c8ef-ba3d-4451-b6e4-fec5730af22f" d="M347.51,34.6a6.16,6.16,0,0,1,3.4-4.41,3.06,3.06,0,0,1,4.18,1.31c.45-.39.89-.78,1.36-1.14a1.7,1.7,0,0,1,1.89-.35c.7.37.66,1,.61,1.69,0,.17,0,.35-.06.72.6-.68,1.08-1.25,1.61-1.79s1.23-1.08,2.08-.62.72,1.27.61,2c-.2,1.34-.49,2.66-.73,4,0,.3-.2.68.16.87s.57-.13.71-.34c.66-1,1.28-.39,1.87,0a5,5,0,0,1,.71.8c.37.41.78.65,1.28.2a.82.82,0,0,0,0-1.31c-.52-.58-1.1-1.12-1.67-1.67a2.59,2.59,0,0,1-.75-2.92,2.82,2.82,0,0,1,2.7-1.8c1.1-.08,2.24-.07,2.84,1.17.46-.33.87-.66,1.32-.94a1.4,1.4,0,0,1,1.62,0,1.35,1.35,0,0,1,.49,1.44c-.22,1.3-.48,2.59-.7,3.89-.06.33-.33.79.09,1s.65-.33.85-.64A12.73,12.73,0,0,0,375.93,31,1.47,1.47,0,0,1,378.05,30c.41.2.2.48.16.73-.3,1.65-.63,3.29-.93,4.94-.07.4-.35,1,.07,1.18s.71-.32,1-.58a2.35,2.35,0,0,0,.29-.4c.37.13.45.37.33.54a5,5,0,0,1-2.68,2.19,1.12,1.12,0,0,1-1.5-1.18,13.39,13.39,0,0,1,.15-1.56,14.36,14.36,0,0,1-2,2.26c-.53.41-1.1.76-1.77.4a1.4,1.4,0,0,1-.56-1.61c.2-1.45.5-2.88.74-4.32.05-.32.28-.77-.16-1s-.6.2-.78.45c-.71,1-1.25.07-1.8-.18-.3-.14-.46-.53-.71-.79s-.65-.64-1.1-.27a.82.82,0,0,0-.09,1.31,17.62,17.62,0,0,0,1.38,1.35c1.47,1.33,1.71,3,.58,4.09-1.31,1.33-3.87,1.43-5,.13-.37-.44-.47-.07-.64.06-.73.52-1.45,1.26-2.4.66s-.52-1.6-.38-2.45.4-1.89.56-2.84c.06-.35.3-.87-.17-1s-.65.34-.87.65a11.2,11.2,0,0,0-1.92,4.71,1.45,1.45,0,0,1-2.11,1.09c-.48-.19-.26-.53-.21-.81.3-1.65.64-3.29.93-4.94.07-.4.46-1.06-.16-1.16s-.93.47-1.09,1a6.15,6.15,0,0,0-.07.75,6.47,6.47,0,0,1-3.53,4.82c-1.77,1-3.93.05-4.09-1.48A5.5,5.5,0,0,1,347.51,34.6Z" transform="translate(-29.3 -5.77)"/><path class="bc08c8ef-ba3d-4451-b6e4-fec5730af22f" d="M400.48,37.07c-2.15,2.09-3.31,2.08-4.24,0-.51.4-1,.82-1.52,1.18a1.44,1.44,0,0,1-1.71.13,1.4,1.4,0,0,1-.49-1.54c.26-1.4.57-2.79.83-4.19.06-.36.35-.85-.12-1.07s-.6.29-.87.5-.3.51-.66.46c0-1.24,2.13-3,3.24-2.65a1.28,1.28,0,0,1,.85,1.63c-.26,1.47-.56,2.94-.84,4.41-.05.31-.24.7.09.88s.6-.22.86-.43a1.32,1.32,0,0,0,.39-.85A7,7,0,0,1,401.42,30c.44-.14.67-.32.72-.78a12.63,12.63,0,0,1,.27-1.47c.17-.65.39-1.31-.69-1.31-.14,0-.29-.06-.29-.24s.12-.32.32-.36c1-.18,2-.4,2.95-.53.72-.08.45.5.39.8-.43,2.21-.88,4.41-1.33,6.61-.24,1.18-.49,2.37-.72,3.56,0,.23-.12.53.13.68s.46-.09.65-.23a1.58,1.58,0,0,0,.64-1.27,6.26,6.26,0,0,1,3.2-5,3.08,3.08,0,0,1,4.51,1.14c.47-.39.91-.8,1.4-1.16a1.65,1.65,0,0,1,1.89-.33c.71.41.68,1.1.58,1.8,0,.21-.07.42-.13.82a10,10,0,0,1,2.1-2.48,1.6,1.6,0,0,1,1.82-.07c.46.28.44.8.36,1.26a1.05,1.05,0,0,1-1.59.84c-1-.59-1.41-.07-1.87.66a13.94,13.94,0,0,0-1.83,4.77,1.61,1.61,0,0,1-2.23.87c-.28-.21-.11-.45-.07-.68.32-1.68.66-3.36.95-5,.06-.39.52-1.06-.17-1.15-.49-.06-1,.49-1.1,1.13,0,.21,0,.43,0,.63a6.63,6.63,0,0,1-3.35,4.74,2.9,2.9,0,0,1-4.07-.79c-.34-.42-.46-.25-.73,0a9.93,9.93,0,0,1-1.08.86C401.66,39.05,400.8,38.69,400.48,37.07Z" transform="translate(-29.3 -5.77)"/><path class="bc08c8ef-ba3d-4451-b6e4-fec5730af22f" d="M382.58,32.58c.6-.7,1.1-1.34,1.66-1.92s1.13-1.06,2-.7.76,1.19.76,1.93v.43c.6-.65,1.14-1.31,1.75-1.9a1.53,1.53,0,0,1,1.86-.42c.67.34.67,1,.63,1.58a39.22,39.22,0,0,1-.75,4.31c-.06.33-.31.76.09,1s.59-.28.89-.45.33-.73.69-.41,0,.65-.28.89a17.56,17.56,0,0,1-1.53,1.33,1.49,1.49,0,0,1-1.8.2,1.46,1.46,0,0,1-.48-1.65c.22-1.15.5-2.29.71-3.45.07-.41.42-1-.15-1.22s-.67.42-.91.76a12.11,12.11,0,0,0-1.9,4.83,1.61,1.61,0,0,1-2.21.79c-.28-.21-.1-.45,0-.67.29-1.4.6-2.79.89-4.19a7.52,7.52,0,0,0,.15-.95c0-.2.07-.46-.15-.58s-.47.08-.63.27a8.4,8.4,0,0,0-1.61,2.87,18.9,18.9,0,0,0-.66,2.59c-.25,1.28-1.22.71-1.89.71-.86,0-.39-.66-.32-1,.29-1.69.62-3.37.94-5,.06-.3.26-.68-.13-.86s-.49.22-.73.35-.44.89-.83.5.18-.75.45-1.05a6.25,6.25,0,0,1,1.47-1.24,1.49,1.49,0,0,1,1.72-.07,1.45,1.45,0,0,1,.5,1.53C382.67,31.9,382.63,32.18,382.58,32.58Z" transform="translate(-29.3 -5.77)"/><path class="fd90ea14-ee25-458a-8587-b6a64e0959b0" d="M347.51,34.6v2.14c-.18-.1-.14-.74-.58-.16A6.22,6.22,0,0,1,345,38.23a2.29,2.29,0,0,1-3.53-1.72,6.62,6.62,0,0,1,3.48-6.36,3.41,3.41,0,0,1,2.51-.12,1.25,1.25,0,0,1-.07,2.35c-.58.16-.92-.19-1.21-.66s-.32-1-.92-.88-.63.64-.79,1.06a8.23,8.23,0,0,0-.57,3.67c.12,1.31,1,1.72,2.09,1C346.65,36,347.58,35.7,347.51,34.6Z" transform="translate(-29.3 -5.77)"/><path class="be4a0447-ffed-41bc-ad2d-7d4e16e58806" d="M421.55,37.6a1.28,1.28,0,0,1-.09-2.18c.24-.21.27-.36,0-.59a2.43,2.43,0,0,1-.47-3.12,2.59,2.59,0,0,1,2.86-1.27,11.09,11.09,0,0,0,3.6.42c-.38.81-1,.41-1.35.72.83,2.65-.54,4.27-3.32,3.85-.64-.09-1,.13-1.15.65s.32.91.84,1c.88.12,1.78.13,2.67.24s1.83.25,2.07,1.35A2.26,2.26,0,0,1,425.78,41a5,5,0,0,1-3.45.34c-1-.23-1.87-.63-2.09-1.74S420.74,38.09,421.55,37.6Z" transform="translate(-29.3 -5.77)"/><path class="ebdf0444-767c-4d4f-9475-4a6c05c1bfa5" d="M443.76,37.62c-.28.29.05,1-.58.88s-.3-.57-.3-.88q0-5,0-9.93c0-.31-.18-.81.37-.84s.41.55.42.87c0,1.28,0,2.55,0,3.85.48,0,.63-.36.9-.55a3.05,3.05,0,0,1,4.85,1.69,6.23,6.23,0,0,1,.17,2.43,3.61,3.61,0,0,1-2.11,3.23A3.19,3.19,0,0,1,443.76,37.62Z" transform="translate(-29.3 -5.77)"/><path class="be4a0447-ffed-41bc-ad2d-7d4e16e58806" d="M434.45,34.52c0,2.68-1.39,4.18-3.82,4.11a3.31,3.31,0,0,1-3.29-2.56,5.77,5.77,0,0,1-.14-2.34,3.63,3.63,0,0,1,7.25.37C434.46,34.24,434.45,34.38,434.45,34.52Z" transform="translate(-29.3 -5.77)"/><path class="e57f8634-a513-4a75-a43f-adeb275d2a1a" d="M438,37.46c.85-2,1.63-3.88,2.42-5.74.12-.29.25-.59.38-.88a.5.5,0,0,1,.62-.29c.46.14.11.43,0,.59-.94,2.27-1.9,4.53-2.86,6.78-.13.29-.2.64-.64.62s-.47-.36-.6-.65c-.92-2.16-1.85-4.32-2.75-6.49-.11-.25-.5-.64-.08-.82s.66.23.82.62C436.21,33.23,437.07,35.25,438,37.46Z" transform="translate(-29.3 -5.77)"/><path class="f4ddc471-39ac-4326-bc12-7e5f00ff1271" d="M451.42,32.25c.78-1.36,1.69-2,3-1.82.33.05.82.06.76.55s-.54.29-.86.25a2.51,2.51,0,0,0-2.9,2.52c0,1.32,0,2.64,0,4,0,.3.23.81-.37.82s-.42-.48-.42-.79q0-3.15,0-6.3c0-.31-.22-.84.32-.86s.35.51.41.83A7.55,7.55,0,0,1,451.42,32.25Z" transform="translate(-29.3 -5.77)"/><path class="abea4802-acab-42a8-b597-b6beaab261ff" d="M396.53,26.51a1.59,1.59,0,0,1-1.39,1.61c-.8,0-1.17-.42-1.2-1.18a1.6,1.6,0,0,1,1.49-1.63A1.16,1.16,0,0,1,396.53,26.51Z" transform="translate(-29.3 -5.77)"/><path class="b62cb439-26ef-4645-be40-9cacc46f8e45" d="M440.07,37.17c.45,0,.77.28.78.72a.68.68,0,0,1-.72.74.66.66,0,0,1-.76-.69C439.35,37.47,439.66,37.26,440.07,37.17Z" transform="translate(-29.3 -5.77)"/><path class="a009aa2a-22cd-4b42-a407-c2f182910136" d="M418.62,38a.73.73,0,0,1-.82.66.65.65,0,0,1-.64-.8.66.66,0,0,1,.73-.62A.73.73,0,0,1,418.62,38Z" transform="translate(-29.3 -5.77)"/><path class="f0644f7c-10bd-4b4b-bdda-9a165e64182b" d="M326.86,12c.46,1.31-.64,1.15-1.51,1.27a11.71,11.71,0,0,0-1.19,23,8.23,8.23,0,0,0,1.9.28c.7,0,.81.28.81.89,0,1.92,0,1.92-1.9,1.71a14.4,14.4,0,0,1,.92-28.68C326.86,10.45,326.86,10.45,326.86,12Z" transform="translate(-29.3 -5.77)"/><path class="f0644f7c-10bd-4b4b-bdda-9a165e64182b" d="M326.22,33.94a8.57,8.57,0,0,1-7.56-5,8.74,8.74,0,0,1,1-9.57c.49-.68.92-1,1.48-.12a1,1,0,0,0,.23.23c.76.57.9,1,.22,1.93a6.31,6.31,0,0,0,8.68,8.85c1-.7,1.47-.61,2.19.22.84,1,.9.94-.14,1.71A9.4,9.4,0,0,1,326.22,33.94Z" transform="translate(-29.3 -5.77)"/><path class="a35cf264-6a0a-4f0d-b3c5-65eeffe0625c" d="M333.64,25.12a2.06,2.06,0,0,1-2.07,2,2.06,2.06,0,1,1,.1-4.12A2.08,2.08,0,0,1,333.64,25.12Z" transform="translate(-29.3 -5.77)"/><path class="a35cf264-6a0a-4f0d-b3c5-65eeffe0625c" d="M328.67,20.17a2,2,0,0,1-2.05,2,2.06,2.06,0,0,1-2.05-2,2.1,2.1,0,0,1,2.12-2.08A2.08,2.08,0,0,1,328.67,20.17Z" transform="translate(-29.3 -5.77)"/><path class="b019cca9-4461-4333-86a9-63bcb6190036" d="M352.71,32.93a8.32,8.32,0,0,1-1.24,4.12c-.26.4-.58.81-1.11.69s-.55-.7-.57-1.14a9,9,0,0,1,1-4.85c.28-.53.64-1.2,1.33-1s.53.91.59,1.45C352.73,32.34,352.71,32.52,352.71,32.93Z" transform="translate(-29.3 -5.77)"/><path class="f147bf77-75fe-4d17-99a3-e7b1c62ad88c" d="M406.87,35.57a8.16,8.16,0,0,1,1.18-4.1c.26-.42.6-.9,1.18-.77s.53.72.56,1.15a8.69,8.69,0,0,1-1,4.85c-.28.53-.64,1.19-1.34,1s-.53-.91-.58-1.46C406.86,36.13,406.87,36,406.87,35.57Z" transform="translate(-29.3 -5.77)"/><path class="ede024d3-c6d9-4c48-82ee-ccbe426a59e8" d="M398.68,35.34a6.44,6.44,0,0,1,1.21-3.7c.31-.43.77-.87,1.34-.62s.32.81.27,1.24a8.81,8.81,0,0,1-1.09,3.53c-.27.47-.49,1.22-1.15,1.07S398.74,35.89,398.68,35.34Z" transform="translate(-29.3 -5.77)"/><path class="fd90ea14-ee25-458a-8587-b6a64e0959b0" d="M386.89,15.81a3.08,3.08,0,0,0-2.95.46c-.22.16-.32.49-.69.5-.05-.48.05-1-.76-.94s-.51.63-.51,1c0,2.89,0,5.77,0,8.66,0,.45,0,.82.64.84s.74-.32.73-.86c0-.95,0-1.91,0-3.08a3.14,3.14,0,0,0,2.14,1A3.32,3.32,0,0,0,389,20.57C389.43,18.38,388.57,16.38,386.89,15.81Zm.66,4.83a2.15,2.15,0,0,1-2.38,1.69,2.08,2.08,0,0,1-1.8-2.16c0-.18,0-.35,0-.53h0c0-.36,0-.71.09-1.06a2.16,2.16,0,0,1,1.95-1.83,2,2,0,0,1,2.1,1.49A3.59,3.59,0,0,1,387.55,20.64Z" transform="translate(-29.3 -5.77)"/><path class="fd90ea14-ee25-458a-8587-b6a64e0959b0" d="M407.78,13.11c0-.52,0-.87-.71-.86s-.65.36-.65.83c0,1.11,0,2.23,0,3.59a3.13,3.13,0,0,0-2.15-1A3.27,3.27,0,0,0,401,18.05a4.34,4.34,0,0,0,1.25,4.85c1.26.86,2.75.66,4.36-.71-.17.8.1,1.17.81,1s.34-.76.35-1.13C407.8,19.09,407.77,16.1,407.78,13.11Zm-1.45,7.61a2,2,0,0,1-3.86.38,3.7,3.7,0,0,1-.08-2.9,2.06,2.06,0,0,1,4,.61c0,.24,0,.49,0,.74h0A7.63,7.63,0,0,1,406.33,20.72Z" transform="translate(-29.3 -5.77)"/><path class="fd90ea14-ee25-458a-8587-b6a64e0959b0" d="M348.66,12.89c-.49-.08-1-.11-1.44-.16a16.53,16.53,0,0,1-1.66.13c-.62,0-.77.29-.77.86,0,2.92,0,5.85,0,8.77,0,.56.17.75.74.74s.65-.24.64-.72c0-.82,0-1.64,0-2.46,0-.66.11-1,.88-.89a4.4,4.4,0,0,0,2.31-.35,3.11,3.11,0,0,0,1.86-3.4A2.83,2.83,0,0,0,348.66,12.89Zm.7,4.41a3.12,3.12,0,0,1-2.79.75c-.41,0-.41-.32-.41-.62a20.47,20.47,0,0,0,0-2.35c-.11-1,.3-1.37,1.1-1.21,1.1,0,2,.17,2.43,1.13A2,2,0,0,1,349.36,17.3Z" transform="translate(-29.3 -5.77)"/><path class="fd90ea14-ee25-458a-8587-b6a64e0959b0" d="M393.5,15.65a3.62,3.62,0,0,0-3.73,3.94,3.5,3.5,0,0,0,3.57,3.82,3.61,3.61,0,0,0,3.79-3.88A3.54,3.54,0,0,0,393.5,15.65Zm1.83,5.49a2,2,0,0,1-1.84,1.24,2.06,2.06,0,0,1-2-1.23,3.17,3.17,0,0,1-.36-1.65,3.1,3.1,0,0,1,.55-1.91,2,2,0,0,1,3.48.09A3.45,3.45,0,0,1,395.33,21.14Z" transform="translate(-29.3 -5.77)"/><path class="fd90ea14-ee25-458a-8587-b6a64e0959b0" d="M412.73,15.65a3.64,3.64,0,0,0-3.64,4,3.49,3.49,0,0,0,3.66,3.74,3.59,3.59,0,0,0,3.68-4A3.49,3.49,0,0,0,412.73,15.65Zm1.75,5.79a2,2,0,0,1-3.49,0,3.8,3.8,0,0,1,0-3.75,2.08,2.08,0,0,1,3.56.05,3.36,3.36,0,0,1,.49,1.83A3.24,3.24,0,0,1,414.48,21.44Z" transform="translate(-29.3 -5.77)"/><path class="fd90ea14-ee25-458a-8587-b6a64e0959b0" d="M357.46,20.45h0c0-.64,0-1.28,0-1.92A2.57,2.57,0,0,0,356.06,16a4.21,4.21,0,0,0-3.63.17c-.38.17-.24.43-.16.71s.32.27.59.17a4.56,4.56,0,0,1,1-.29c1.2-.17,1.91.22,2.12,1.11.1.42.07.67-.47.67a6.22,6.22,0,0,0-2,.34,2.49,2.49,0,0,0-1.93,2.05,2,2,0,0,0,1,2.21,2.8,2.8,0,0,0,2.95-.13c.28-.17.59-.75.84.09.1.32.58.17.88.13s.22-.38.23-.6C357.47,21.87,357.46,21.16,357.46,20.45Zm-1.34-.07a1.89,1.89,0,0,1-1.69,2,1.22,1.22,0,0,1-1.29-.57,1.31,1.31,0,0,1,0-1.41,3,3,0,0,1,2.7-.93C356.33,19.68,356,20.11,356.12,20.38Z" transform="translate(-29.3 -5.77)"/><path class="fd90ea14-ee25-458a-8587-b6a64e0959b0" d="M367.29,16.88c.39.08.58-.11.59-.53s-.26-.56-.62-.5c-1.06.18-1.52-.2-1.33-1.3,0-.25.17-.68-.18-.74a1.59,1.59,0,0,0-1,.24c-.32.18-.18.59-.18.89,0,.54,0,1-.75.91-.35,0-.41.19-.4.47s0,.61.45.56c.7-.08.73.33.7.85s0,1.06,0,1.6h0c0,.71-.06,1.43,0,2.13a2,2,0,0,0,2.56,1.86c.4-.07.65-.19.62-.68s-.25-.47-.63-.44c-.82.08-1.17-.39-1.19-1.15s0-1.79,0-2.67C365.84,17.34,366,16.62,367.29,16.88Z" transform="translate(-29.3 -5.77)"/><path class="fd90ea14-ee25-458a-8587-b6a64e0959b0" d="M376.65,17c.41.08.66.15.78-.36s0-.6-.41-.69a4.34,4.34,0,0,0-4.3.94,4.12,4.12,0,0,0-.76,4.39c.55,1.33,1.8,2.09,3.72,2.1.15,0,.58-.06,1-.16s.89-.06.76-.75-.63-.35-1-.29a2.67,2.67,0,0,1-3.32-3.44C373.53,17.24,374.78,16.6,376.65,17Z" transform="translate(-29.3 -5.77)"/><path class="fd90ea14-ee25-458a-8587-b6a64e0959b0" d="M362.92,16.1c0-.46-.31-.49-.66-.45-.78.09-1.24.63-1.83,1.37,0-.67.14-1.24-.7-1.2s-.53.6-.53,1c0,1.89,0,3.77,0,5.66,0,.52.11.77.7.77s.7-.28.69-.79c0-1.1,0-2.2,0-3.31A1.94,1.94,0,0,1,362.46,17C363.14,16.85,362.9,16.44,362.92,16.1Z" transform="translate(-29.3 -5.77)"/><path class="fd90ea14-ee25-458a-8587-b6a64e0959b0" d="M370.36,19.62c0-1.06,0-2.13,0-3.2,0-.49-.2-.59-.64-.58s-.73,0-.73.6c0,2.07,0,4.13,0,6.2,0,.49.2.59.64.58s.75,0,.73-.61C370.34,21.62,370.36,20.62,370.36,19.62Z" transform="translate(-29.3 -5.77)"/><path class="fd90ea14-ee25-458a-8587-b6a64e0959b0" d="M380.06,16.56c0-.43,0-.75-.6-.73s-.78.11-.76.71c.05,1,0,2,0,3s0,2,0,3c0,.56.15.73.72.73s.64-.23.63-.7Q380,19.54,380.06,16.56Z" transform="translate(-29.3 -5.77)"/><path class="fd90ea14-ee25-458a-8587-b6a64e0959b0" d="M379.46,12.89a.77.77,0,0,0-.87.84c0,.53.33.82.87.86a.81.81,0,0,0,.8-.92A.73.73,0,0,0,379.46,12.89Z" transform="translate(-29.3 -5.77)"/><path class="fd90ea14-ee25-458a-8587-b6a64e0959b0" d="M369.66,12.89a.77.77,0,0,0-.78.82.78.78,0,0,0,.86.86c.55,0,.83-.33.83-.92A.77.77,0,0,0,369.66,12.89Z" transform="translate(-29.3 -5.77)"/><path class="a35cf264-6a0a-4f0d-b3c5-65eeffe0625c" d="M423.41,40.93a3.55,3.55,0,0,1-1.37-.28c-.71-.3-1.29-.77-1.09-1.61a1.59,1.59,0,0,1,1.73-1.27c.86,0,1.71.1,2.56.21.53.07,1.08.22,1.23.85a1.4,1.4,0,0,1-.73,1.52A3.89,3.89,0,0,1,423.41,40.93Z" transform="translate(-29.3 -5.77)"/><path class="a0dae809-3388-48d8-95a0-7028eb67e317" d="M425.68,32.94A2.13,2.13,0,1,1,423.49,31,1.91,1.91,0,0,1,425.68,32.94Z" transform="translate(-29.3 -5.77)"/><path class="bb75eb5c-3352-4807-949d-e6024173a911" d="M443.68,34.57c.06-1-.28-2.13.88-2.95a2.5,2.5,0,0,1,4.1,1.43,5.35,5.35,0,0,1-.16,3.26A2.62,2.62,0,0,1,445.81,38a2,2,0,0,1-2.13-2.24Z" transform="translate(-29.3 -5.77)"/><path class="f0e09642-fe39-475e-bf84-16c5a87e4e9c" d="M433.68,34.65c-.07,2.46-1.58,3.83-3.64,3.29-1.58-.42-2.36-2.09-2-4.32a2.72,2.72,0,0,1,3-2.57C432.72,31.12,433.74,32.49,433.68,34.65Z" transform="translate(-29.3 -5.77)"/></g></svg>