<svg xmlns="http://www.w3.org/2000/svg" id="Camada_2" viewBox="0 0 655.5 215"><defs><style>.cls-1{fill:#008058}.cls-3{fill:#009962}.cls-4{fill:#93c020}.cls-8{fill:#080202}.cls-10{fill:#d8e2e2}.cls-11{fill:#2b2b2b}.cls-12{fill:#090303}.cls-13{fill:#066734}.cls-14{fill:#009e5c}.cls-15{fill:#fefefe}</style></defs><g id="Camada_1-2"><path d="M91.3 214.5A110.6 110.6 0 0 1 45 198.9a92.7 92.7 0 0 1-42-58.5A95.6 95.6 0 0 1 48 34.1a101 101 0 0 1 139.4 36.5 104.2 104.2 0 0 1 11.6 61.7c-.7 5.6-1.9 11.2-3.8 16.5-8.6 24-24.1 42-46.4 54.4a91.5 91.5 0 0 1-27.4 10c-9.9 2-20 2.3-30 1.3Z"/><path class="cls-8" d="M70.4 2.1c3.4 0 6 .3 7.2 2.8 1.5 2.7.8 5.4-.8 7.8a10 10 0 0 1-4 3.5c-7.5 4-15.4 7-24 8.3-2.2.4-5.3 1.1-6.5-1.5-1.2-2.4 1.2-4.2 2.8-5.8A91.3 91.3 0 0 1 63.3 3.9c2.4-1.4 5.2-1.7 7.1-1.8ZM122 6.1c0-5.1 2.5-7.2 6.5-5.5a82.2 82.2 0 0 1 28 19c.7.8 1.5 1.8 1 3-.5 1.3-2 1.5-3.1 1.3a55.3 55.3 0 0 1-27.4-9.7c-2.9-2.3-4.9-5.1-5-8.1Z"/><path class="cls-14" d="M6.9 117a92.6 92.6 0 0 1 92.7-92.7 92.5 92.5 0 0 1 93.2 93 93 93 0 1 1-186-.3Z"/><path d="M189.7 115.8a90.5 90.5 0 0 1-91 90.7 90.6 90.6 0 0 1 3-181.2c47 .7 88.7 40.5 88 90.6Z" style="fill:#00c259"/><path class="cls-8" d="M146.4 170.4c-19.1 26.2-58.2 31-84.2 18a51.3 51.3 0 0 1-27.6-40.2c-.8-5-.9-10.3-.6-15.5.1-2.2-.9-3.8-2-5.5-.2-1-1-2.1.3-3 1.1-.6 2 .2 2.7.9 15.7 13.4 34.6 16.3 54.3 16.2 19.5 0 38.1-4.6 56.3-11l9-2.8c.8-.2 1.7-.5 2.3.4.6 1 0 1.7-.5 2.4-1.2 1.3-1 2.8-1 4.4-.2 6 .5 12-.7 17.8a38.3 38.3 0 0 1-8.3 17.9ZM139.8 115.8c-8 3-15.7 6.8-24.6 5.4-11.3-1.8-18.2-8.6-21.8-19-3.2-9.3-3-18.7.6-27.9 4.1-10.6 11.7-17.2 23.2-18 11-.8 19.2 4 25.3 13l1.8 2.8c4 4.5 4.6 10.1 5 15.8.6 6.6-.4 13-3.8 19.2 4.2 0 8.2-1 11 2.7 1.3 1.3 2.9 2.3 3.9 3.9-.9 1.1-2 1-3 .4-6.3-4-12.1-2.6-17.6 1.7ZM41.4 82c2.5-4.9 5.2-9.6 9.7-12.9 9.4-7 20.4-6.6 28.5 1.8a31.8 31.8 0 0 1 8.7 31.2c-4.2 16.6-25.4 24-39.4 14l-2.1-1.6c-5-4.5-11-4.3-17.2-3.3-1.8.3-3.6.8-5.4-.2 2.6-3.5 6.3-4.2 10.3-4.4l3.6-.1c2-.7 1.7-2 1.4-3.8a29.1 29.1 0 0 1 2-20.8Z"/><path class="cls-14" d="M156.5 109.8a14.2 14.2 0 0 0-12.7-1 39.6 39.6 0 0 0 .5-36.7c3.5 1.7 5.1 5 6.2 8.5 2 7 1.2 14-.3 20.9-.4 2.1-.7 3.4 2 4 2 .5 3.7 2 4.3 4.3ZM32 127.2c2.6 1.4 3.1 3.5 3 6.3a64 64 0 0 0 11.3 42.1c-3.4-1.7-4.9-5-6.6-8-4.1-7.6-5.9-16-7-24.5-.7-5.3-.4-10.6-.6-15.9ZM146.4 170.4a57.5 57.5 0 0 0 7.7-19.6c.9-5.8.7-11.6.3-17.5-.2-1.8.2-2.7 2-3 1.3 8.6 1 17.2-1.4 25.6-1.5 5.5-3.5 11-8.5 14.5ZM41.4 82a37 37 0 0 0-.2 23.6c.6 1.7.4 1.8-3.1.9-1.7-7.7-2.3-15.3 1.7-22.6.4-.7.7-1.6 1.6-2ZM139.8 115.8c5-5.6 9.6-6.4 16.3-3.1 1.3.6 2.6 1.8 4.3 1-.3.8-.4 2-1.6 1.6-6.4-1.7-12.7-.6-19 .5ZM24.2 111c1.4.6 2.6 0 3.9-.4 3.9-1.2 7.8-1 11.8-.5 3 .3 5.4 1.7 6.9 4.4l-8.2-2.3c-2-.6-4.2-.7-6.2.2-3.1 1.4-5.6.2-8.2-1.4Z"/><path class="cls-15" d="M42.8 135.8c18 9.5 37.3 11.5 57.2 10.3 15.9-1 31.1-5 45.8-11 1-.6 1.8 0 2.2.8 1.5 3.3 2.9 6.7 1.1 10.4a105 105 0 0 1-36 11.3c-24.7 3.2-48.5-.5-71.8-9-2-3.6-1.3-9.5 1.5-12.8Z"/><path d="M72 161.7c2-1.4 4.3-.7 6.4-.5a179 179 0 0 0 38.6-.8c6.5-.8 10.4 3 13.6 8 .8 1.7.2 3.1-.8 4.5-3 4-7.1 6.7-11.4 9a42.3 42.3 0 0 1-33 4.4 19.6 19.6 0 0 1-15-20c.1-1.7.4-3.3 1.6-4.6Z" style="fill:#007454"/><path d="M72 161.7c-.8 4.3-1.2 8.6.7 12.7 3.4 7.2 9.4 10.7 17.1 12a44.7 44.7 0 0 0 37-11.4c2-1.6 4-3.6 3.8-6.7l.7 1.1c3.2 6.1 2.9 7.7-2.8 11.4a61.8 61.8 0 0 1-60 5.8c-2.9-1.2-4-2.7-4-6 .1-5.8.4-11.4 4.2-16.3.9-1 1.7-2.3 3.3-2.6Z" style="fill:#005c3d"/><path class="cls-3" d="M64.7 163.8a29.6 29.6 0 0 0-3.5 15.6c0 .7.3 1.6-.5 2.1-.7.4-1.2-.2-1.8-.6A46.5 46.5 0 0 1 42 158.5c.6-2 2-1 2.8-.7a50.5 50.5 0 0 0 17.2 4.4c1.1.1 2.2.3 2.7 1.5Z"/><path class="cls-1" d="M64.7 163.8c-3.6-1.1-7.5-.9-11.2-2-3.1-1-6.3-1.6-9.2-3.2-.7-.4-1.5-1.2-2.3-.1a19 19 0 0 1-2-6.2c9.3 3.6 18.3 6.1 28 7.7l-3.3 3.8Z"/><path class="cls-3" d="M147.2 157.8c-1.8 5.3-5 9.7-8.5 14-1.3 1.6-1.9 1.2-2.5-.6a29.3 29.3 0 0 0-5-8.8c0-1 .6-1.2 1.2-1.3 4.4-.8 8.5-2.4 12.6-3.9.7-.2 2-1.3 2.2.6Z"/><path class="cls-1" d="M147.2 157.8c-1-.9-1.8.2-2.6.6-4.3 1.8-8.9 2.8-13.4 4l-5.1-3.6c8.3-2 16.2-4.1 23.6-9-.4 3.2-1.2 5.7-2.5 8Z"/><path class="cls-10" d="M42.8 135.8a26.8 26.8 0 0 0-1.5 12.8c-1.7 0-2.4-.9-2.5-2.7-.1-4 .5-7.9.7-12 1.4.2 2.4 1 3.3 1.9ZM149.1 146.3c.3-2.9-.4-5.6-1-8.3-.2-1.2-.6-2.6-2.3-2.9l4.5-2.2c1.2 4 1 7.8.5 11.6 0 1-.7 1.6-1.7 1.8Z"/><path class="cls-15" d="M110.5 62.5a23 23 0 0 1 26.1 5.6c8.7 9.8 11 21.3 6.5 33.6-4 10.9-15.5 16.7-27.9 14.7-12.2-6.2-19.2-15.8-18.7-29.8.4-10.3 5.9-18 14-24Z"/><path d="M110.5 62.5c-2.7 4.2-6.8 7-9.4 11.5-7.7 13.6-3.3 28.7 8.1 37.9l6 4.5c-8.4-1-14-5.9-17.6-13.3a32.3 32.3 0 0 1 6-36.4 15 15 0 0 1 7-4.2Z" style="fill:#dbe6e6"/><path class="cls-15" d="M67 68.5c7.9 1.2 12.5 6.3 15.8 13.1 5.3 10.8 3.8 22.3-4 29.3a21.3 21.3 0 0 1-20 5C46.5 111.2 42 95.5 47 83.5c2.9-7 7.3-12.5 15-14.8 1.6-.5 3.2-.4 4.9-.2Z"/><path d="M67 68.5C55.8 68.3 46.8 81.3 46 91c-.8 11 3.8 19 12.7 24.9-7.6-1.2-12-6-14.5-12.8a28 28 0 0 1 9.5-31.3C57.7 69 62 67 67 68.5Z" style="fill:#dce6e6"/><path class="cls-12" d="M117.7 81.5c-2 4.2-1.9 6.6.5 8.6 2.8 2.4 5.5 1.6 8.2-.4.6 5.4-1.8 8.9-6.4 9.4-5.7.7-10-2.8-10.6-8.4-.5-5.3 2.5-8.7 8.3-9.2ZM65 82.1c-1.3 2.8-1.8 5.5.7 7.8 2.6 2.5 5.4 2 8.1 0 .5 6-2 9.3-7.1 9.4-6.2.2-10-3.3-10-9.3.1-5.4 3-8.3 8.3-7.9Z"/><path class="cls-11" d="M257 37.8c19 0 32.6 13.2 32.6 31.8S276 101 257 101s-32.5-13-32.5-31.5 13.6-31.8 32.5-31.8Zm0 52c12 0 20-8.2 20-20.2s-8-20.4-20-20.4-19.9 8.4-19.9 20.4 8.1 20.1 20 20.1Zm6.4-56.3h-9.8l7-15.1H274l-10.5 15.1ZM310.2 49.6h-19.3V38.7h50.7v10.9h-19.2v50.6h-12.2V49.6ZM361.5 100.2h-12.2V38.7h12.2v61.5ZM407.5 81.4l-20.7-23.2v42h-12.2V38.7h10.6l23.3 27.5 23.2-27.5h10.5v61.5H430v-42l-20.5 23.2h-2ZM484.7 37.8c19 0 32.5 13.2 32.5 31.8S503.7 101 484.7 101s-32.5-13-32.5-31.5 13.6-31.8 32.5-31.8Zm0 52c12 0 20-8.2 20-20.2s-8-20.4-20-20.4-20 8.4-20 20.4 8.2 20.1 20 20.1Z"/><path class="cls-13" d="M578.5 181.3c-.5-.7-.6-1.2.1-1.8 1.9-1.5 3.2-3.5 4.3-5.6 4-7.6 6-15.7 6.3-24.2 0-5.3-1-10.3-3.4-15-1.4-3-3.7-5.3-6.8-6.7a23 23 0 0 0-15.4-1.2 26.7 26.7 0 0 0-16.8 14.2c-4.9 9.4-6.5 19.5-5.4 30 1.2 11.3 10.9 19.7 22 16.9 1-.3 1.2.3 1.5.9l3.3 6.1c.3.5.4 1.1 1.3.6l12.8-6.5c.8-.4 1-.7.4-1.5l-4.3-6.2Zm-6.6-29.6a43 43 0 0 1-4 15.9 17 17 0 0 1-2.8 4.4c-2.7 3-5.1 2.6-6.6-1.1-1-2.2-1.2-4.4-1.1-6.7.3-5.8 1-11.5 3.6-16.8.8-1.7 1.9-3.1 3.2-4.4 2.4-2.1 4.6-1.7 6.1 1a14 14 0 0 1 1.6 7.7Z"/><path class="cls-4" d="M437.8 144.7a13.1 13.1 0 0 0-7.9 7.6c-2.3-9.5-12.5-12.9-20.8-2.6.4-1.7.7-3.2 1.2-4.6.5-1.3 0-1.4-1.1-1.4H396c-1.7-.1-2 .7-2.2 2l-1.7 10.6-4.6 28.3c-.2 1.4 0 1.8 1.5 1.8 4-.1 8.2 0 12.3 0 1.3 0 1.8-.3 2-1.7a1170 1170 0 0 1 3.6-22c.4-2.3 2-4 3.4-3.7 1.6.2 2.4 1.9 2.1 4.4v.4l-3.5 21c-.2 1.2 0 1.6 1.2 1.6h13c1.2 0 1.6-.4 1.7-1.5l1.5-9.6 2.2-13c.3-2 2.3-3.7 3.7-3.4 1.4.3 2 1.9 1.6 4.3l-3.4 21.2c-.3 1.5-.2 2 1.6 2h11.4c1.5 0 2-.3 2.3-1.9.8-5.7 1.9-11.3 2.7-17 .7-4.8 2-9.6 1.9-14.6 0-2.3-.5-4.5-2.2-6.3-2.7-2.9-6.2-3.6-10.4-2ZM256.4 162.7c-.3-1-.2-1.4.9-1.5a8.3 8.3 0 0 0 4.7-2.6c4-4 6.4-8.9 6.8-14.6.4-5.2-.7-9.9-4.8-13.4-3-2.5-6.7-3.5-10.4-4-7.3-1-14.5-.3-21.8-.5-1 0-1.2.4-1.3 1.3l-7.3 45.6c-.7 3.9-1 7.8-2 11.5-.7 2.3.4 1.9 1.6 1.9h13.4c1 0 1.5-.2 1.6-1.4l1.9-11.9 1.6-9.6h.4l4.1 21.3c.2 1.2.6 1.6 1.9 1.6h14.6c1.4 0 1.6-.3 1.2-1.6l-7.1-22.1Zm-11.1-8.4c-2.2.6-2.6.2-2.3-2l1.8-11c.2-1.5.6-2.2 2.3-1.7 3 .7 4.4 2.6 4.4 5.6-.1 4.4-2.7 8.2-6.2 9.1Z"/><path class="cls-4" d="M326 172.7c-2.2.1-3.7-1-4.6-3-2.3-4.8 1.3-11.3 6.6-12 .8-.1 1.6 0 1.8-1.2l1.8-11.4c.2-1 0-1.3-1-1.4-10.1-.6-22.2 6-24.7 17.5 0 .3-.2.5-.3.7 0-3.8-.5-7.3-2.2-10.6-2.5-5-6.6-7.6-12.2-7.6-9.3.1-17 3.4-21.7 12-2.8 5.3-4 11-4 17 0 7 3.6 11.8 10.3 14 3 1 6 1.3 9.1.7 8.1-1.5 14.7-5.3 18.2-13.2.4-1.1.6-1.7-1-1.6h-12.5c-.8 0-1.3.2-1.9.8-1.2 1.5-2.7 3-4.8 2.1-2-.8-1.7-3-1.7-4.8 0-1.3.5-1.7 1.8-1.7h19.3c.7 0 1.5.2 2.3-.4v2.7c0 2.6.5 5 1.6 7.3 3 6.1 11.3 10 18 8.5.7-.2.8-.6.9-1.2L327 174c.1-.9.2-1.3-1-1.3Zm-36-12.5c-.5.8-1.7.8-2.4.8-1.1-.1-4.1.3-4.7-.9-.5-1 1.5-4.2 2.8-4.8 1.4-.5 2.3 0 3 1.1.7 1.2 1.9 2.6 1.3 3.8Z"/><path class="cls-13" d="M635.2 128.4c.2-1.2 0-1.6-1.3-1.6-4.5.1-9.1 0-13.7 0-1 0-1.4.3-1.5 1.3l-5.6 34.6c-.4 2.8-.5 5.7-1.6 8.3-.9 2-3 3-4.7 2.5-1.8-.5-2.5-2-2-4.4.5-3.7 1-7.4 1.7-11 1.6-10 3.1-19.9 4.8-29.8.2-1.2 0-1.5-1.3-1.5h-13.2c-1.4 0-2 .3-2.2 1.8-.7 5.3-1.6 10.6-2.5 16-1.4 8.9-3 17.8-4.2 26.8-1 7.1 2 12.4 8 15.2 9.7 4.6 26.4 1 31.2-12.8 1.6-4.7 2.3-9.5 3-14.4l5-31ZM535.8 150.9l-1.6-22.6c0-1.3-.5-1.5-1.6-1.5h-16.5c-1.2 0-1.9.3-2.4 1.6a33945.3 33945.3 0 0 1-24 58.7h16.8c.8 0 1-.4 1.2-1l1.7-5.2c.2-1 .6-1.2 1.5-1.2h8.4c.9 0 1.2.2 1.2 1.1v4.8c0 1.2.3 1.5 1.5 1.5h14.7c1.3 0 1.6-.3 1.5-1.6-.9-11.5-1.6-23-2.4-34.6Zm-15 14c0 1.1-.3 1.5-1.4 1.5h-4.2c-.8 0-1.1-.2-.9-1l6.9-21.8.3-.3-.6 21.6Z"/><path class="cls-4" d="M389.2 144.8h-13.5c-1 0-1.3.3-1.3 1.3 0 1.5-.2 3-.4 5.1l-.8-1.7a9.5 9.5 0 0 0-14-4 16.5 16.5 0 0 0-6 6c-4.4 8.2-6.7 17-5 26.2 1.6 8.7 8.6 12.2 16.5 7 1.8-1 3-2.5 4.5-4l-1 4.3c-.3 1-.3 1.4.9 1.4h13.4c1 0 1.3-.3 1.5-1.3.8-5.7 1.8-11.3 2.7-17l3.5-22c.1-.8.1-1.3-1-1.3ZM372 166.4c-.6 2.5-1.6 4.8-3 7-1 1.2-2 2-3.6 1.6-1.5-.5-1.7-1.8-1.9-3l-.2-2.6c0-3.5 1-6.8 2.8-9.7a7 7 0 0 1 1.7-2c1.7-1.3 3.5-.8 4.1 1.3.8 2.4.6 4.9 0 7.4ZM466.8 170.4c0-1 .5-1.4 1.6-1.4h17.2c4.4 0 4.4 0 5.1-4.3.7-4.5.5-9-1.6-13.3-2.5-5.1-6.6-7.7-12.3-7.7-9.1 0-16.7 3.3-21.3 11.4A35.4 35.4 0 0 0 451 173c0 6.6 3.4 11 9.4 13.5 3.3 1.3 6.7 1.6 10.2 1 8-1.6 14.4-5.3 18-13 .5-1.3.5-1.9-1.3-1.8h-11.9c-1 0-1.6.2-2.3 1-1.6 1.9-3.5 2.6-4.8 2-1.8-1.2-1.7-3-1.6-4.8v-.4ZM469 158c.4-.8.8-1.6 1.6-2.1 1.4-1 2.7-.8 3.6.6.7 1.2 2 2.7 1.3 4l-.5.3-.5.1-1.6-.1-1.7-.1h-1.2c-.4 0-1 0-1.3-.2-.8-.4 0-1.9.3-2.5ZM353.1 124.5c.3-1.6-.1-2-1.7-2-2 .2-4 0-6 0-2.1 0-4.3.1-6.4 0-1 0-1.4.3-1.6 1.4l-6.6 41.6-3.1 19.1c-.1.7-.7 1.8.9 1.8H342c.9 0 1.1-.4 1.2-1.2l.7-4.1 6.9-42.8 2.2-13.8Z"/><path class="cls-13" d="M655 126.9h-15c-1.1 0-1.1.5-1.2 1.3L636 145l-6.6 41c-.2 1 .2 1.1 1 1.1h14c1.1 0 1.4-.4 1.6-1.4l4-25.6 5.4-33-.5-.2Z"/></g></svg>