<svg xmlns="http://www.w3.org/2000/svg" viewBox="0 0 402.94 61.27"><path d="M192.06.16c.1.42.49.29.74.4a5.57,5.57,0,1,1-4.14,0l1-.43Z" style="fill:#ea2328"/><path d="M199.74.16V3.64c1.48-.53,2.9-.76,4.14.41A4.09,4.09,0,0,1,205,7.71a3.86,3.86,0,0,1-3.55,3.45,6.52,6.52,0,0,1-1.53,0c-2.56-.16-2.6-.22-2.6-2.74V.14Z" style="fill:#090807"/><path d="M207.42.16c.11.56.63,1.11,0,1.67a1,1,0,0,1-1.3.13c-.79-.6-.4-1.23.11-1.8Z" style="fill:#eb2d31"/><path d="M200.66,49.56c-.41.77-.81.79-1.21,0-2.75-7.22-5-14.63-7.74-21.85-.79-2.61-1.15-5.32-1.7-8a1.9,1.9,0,0,1,.23-1.45h9.49c.44.81-.27,1.19-.66,1.66-1.95,2.35-3.86,4.64-5.95,7.18h13.64a12.76,12.76,0,0,0-2.15-2.86c-1.23-1.5-2.43-3-3.74-4.45-.37-.4-.77-.84-.52-1.49h9.48a2.22,2.22,0,0,1,.27,1.59c-.6,2.61-1,5.27-1.73,7.84-2.38,6.39-4.51,12.88-6.73,19.33A17.28,17.28,0,0,0,200.66,49.56Z" style="fill:#a2dbe9"/><path d="M200.66,49.56c-.28-1.2.43-2.21.78-3.23,2-6,4.12-11.87,6.2-17.8.1-.28.11-.61.41-.78a2.21,2.21,0,0,1,1.57-.47h7.92a2.16,2.16,0,0,1,1.56.48q-6,7.18-12.09,14.38C204.91,44.67,202.78,47.13,200.66,49.56Z" style="fill:#83c7db"/><path d="M192.05,27.79A58.34,58.34,0,0,1,195,35.63c1.53,4.1,2.87,8.27,4.26,12.43.15.47.68,1,.19,1.53Q190.24,38.7,181,27.8A25.8,25.8,0,0,1,192.05,27.79Z" style="fill:#83c7db"/><path d="M200.38,18.3c1.21,2,3,3.57,4.38,5.47.88,1.21,2.12,2.16,2.81,3.65H192.34l6.48-7.76c.35-.42.91-.69.91-1.35Z" style="fill:#c7e8ef"/><path d="M219.12,27.8H208.05c.53-3.18,1.54-6.26,1.81-9.48,2.7,2.94,5.6,5.67,8.53,8.38C218.69,27,219.38,27.11,219.12,27.8Z" style="fill:#c7e8ef"/><path d="M192.05,27.79h-11c1.57-2,3.55-3.61,5.29-5.45,1.3-1.37,2.62-2.69,3.93-4C190.64,21.56,191.45,24.63,192.05,27.79Z" style="fill:#c6e7ef"/><path d="M213.47,11.18c-2,0-2.92-.84-3-2.76V5.82c0-.56.11-1.14-.76-1.16-.49,0-.47-.44-.47-.8s0-.61.33-.57c1.13.13.94-.66.88-1.27-.09-.89.26-1.11,1.11-1.12s1.13.4,1,1.19-.07,1.35,1,1.17c.64-.11.73.3.75.83s-.26.76-.74.67c-1-.17-1,.43-1,1.16V8.37c0,.59.17,1.09.85,1,.91-.13,1.41.16,1.31,1.1S213.89,11,213.47,11.18Z" style="fill:#0a0908"/><path d="M208.28,7.27V9.88c0,.86,0,1.34-1.08,1.38s-1-.61-1-1.33c0-1.89.05-3.79,0-5.68,0-.82.23-1.06,1-1s1.18.07,1.11,1S208.28,6.25,208.28,7.27Z" style="fill:#0d0c0b"/><path d="M192.69,6.9c1.19,1.06,1.11,1.51-.41,2a3.88,3.88,0,0,1-4.16-1.09,3.76,3.76,0,0,1-.21-4.15,3.5,3.5,0,0,1,3.88-1.43c1.55.37,2.25,1.52,2.41,3.94a23.8,23.8,0,0,1-3.54.6C191.37,7.37,192.05,6.38,192.69,6.9Z" style="fill:#fefbfb"/><path d="M192.69,6.9c-.83.23-1.54,1.1-2.51.47-.29-.18-.66-.38-.53-.81s.5-.21.77-.23c1.26,0,2.51-.07,3.77-.11C193.91,6.94,193,6.33,192.69,6.9Z" style="fill:#ea2729"/><path d="M199.72,7.56c-.06-1.21-.06-2.32,1.39-2.37,1.18-.05,1.53.86,1.57,1.86A1.94,1.94,0,0,1,201,9.21a1.51,1.51,0,0,1-.3,0C199.18,9.23,199.88,8.12,199.72,7.56Z" style="fill:#fafafa"/><path d="M190.71,5c-.4-.15-1.08.25-1.12-.42s.61-.88,1.17-.91,1.25.23,1.22.84C192,5.38,191.12,4.81,190.71,5Z" style="fill:#ee4b44"/><path d="M209,60.4V55.5c0-.32-.19-.76.31-.9a1,1,0,0,1,1,.43c.86,1.13,1.75,2.23,2.93,3.74V55.38c0-.34-.08-.78.46-.79s.5.41.49.75c0,1.69,0,3.38-.05,5.06h-.92l-3-3.85a4.25,4.25,0,0,0-.33,1.89c0,.66,0,1.31-.06,2Z"/><path d="M193.59,60.4c0-1.53.07-3.07,0-4.6-.06-1,.33-1.35,1.31-1.26.71.07,1.43,0,2.15,0,.25,0,.51,0,.55.38s-.22.52-.56.52h-1.7c-.57,0-.78.09-.78.67s.18.8.78.88,1.8-.45,1.83.36-1.14.37-1.77.46-.86.19-.84.81.41.74.92.73H197c.82,0,.78.44.57,1Z"/><path d="M176.67,54.56h3.08c.35,0,.94-.2.89.48s-.6.39-1,.42a10.75,10.75,0,0,1-1.39,0c-.55,0-.68.28-.67.77s.2.68.71.77c.66.13,1.86-.49,1.89.45s-1.2.27-1.85.39c-.46.08-.75.16-.76.72a.7.7,0,0,0,.83.81c.56,0,1,0,1.54,0,.79,0,.79.44.68,1-1.33,0-3.18.52-3.85-.14s-.15-2.52-.15-3.85Z"/><path d="M203.74,60.4c0-1.62,0-3.25-.1-4.88,0-.72.23-1,1-1h2.29c.33,0,.79-.09.76.48s-.49.41-.82.42a10.44,10.44,0,0,1-1.37,0c-.53,0-.87.09-.86.74s.26.74.82.81,1.8-.45,1.81.37-1.15.36-1.78.45-.86.13-.85.77.32.79.87.78.92,0,1.37,0c.81-.08.94.37.88,1Z"/><path d="M221,60.4c0-1.66-.06-3.33-.12-5,0-.68.3-.87.92-.85H225v.92h-2c-.52,0-1.15-.18-1.15.76s.63.68,1.16.78,1.46-.42,1.46.44c0,.7-.92.3-1.42.41a.81.81,0,0,1-.31,0c-.51,0-.89.06-.88.73s.28.8.84.8a21.81,21.81,0,0,1,2.29.08c0,.51.21,1.08-.77,1A26.46,26.46,0,0,0,221,60.4Z"/><path d="M181.59,60.4a2.25,2.25,0,0,1,.79-1.6,1.91,1.91,0,0,0,.22-2.7,2.39,2.39,0,0,0-.22-.23,7.55,7.55,0,0,1-.74-1.18c1.57-.54,1.51,1.09,2.32,1.56.92-.25.8-2.16,2.62-1.46-2.8,1.93-1.07,3.76-.07,5.61h-.92c-1.65-2.15-1.65-2.15-3.07,0Z"/><path d="M189.28,60.4c-.73-.59-1.64-1-1.93-2a2.92,2.92,0,0,1,.87-3.2,3.08,3.08,0,0,1,3.3-.47c.36.13,1,.3.73.93s-.66.11-1,0c-1.37-.48-2.54,0-2.89,1.14a2,2,0,0,0,1.25,2.54l.09,0a2,2,0,0,0,1.48-.16c.36-.17.76-.53,1,0s-.37.6-.62.87a2.2,2.2,0,0,1-.44.36Z"/><path d="M217.27,60.4c-.47-1.18-.17-2.42-.22-3.63,0-.75,0-1.48-1.07-1.33-.34,0-.61-.1-.58-.51s.31-.36.56-.36h3.21c.26,0,.53,0,.55.37a.47.47,0,0,1-.59.5c-1.26-.17-1.09.69-1.11,1.45a17.91,17.91,0,0,1-.14,3.51Z"/><path d="M199.12,60.4a32.71,32.71,0,0,1-.13-5c0-.36,0-.78.52-.76s.47.46.47.81c0,.87.07,1.74,0,2.61s.24,1.54,1.35,1.39c.71-.09,1.38,0,1.18,1Z"/><rect x="274.03" y="19.59" width="128.91" height="17.35" rx="8.67" style="fill:#fefefe"/><path d="M402.51,32.23c-.13,2.62-2.83,5.19-5.72,5.52a22.25,22.25,0,0,1-2.58.09H248.1c-3.85,0-6-2.13-6-6V5.73c0-3.55,2.19-5.72,5.76-5.73h26.45a5.37,5.37,0,0,1,5.78,4.92,6.43,6.43,0,0,1,0,.76V18.84a1,1,0,0,1-.79,1.14,6.74,6.74,0,0,0-4.62,6.45,17.09,17.09,0,0,0,.17,4.79,7,7,0,0,0,6.61,5.45H394C397.78,36.72,400.79,35.83,402.51,32.23Z" style="fill:#7ab600"/><path d="M285.61,28.83a6.11,6.11,0,0,1,3.4-4.41,3.06,3.06,0,0,1,4.14,1.24.16.16,0,0,0,0,.07c.45-.39.89-.78,1.36-1.14a1.7,1.7,0,0,1,1.89-.35c.7.37.66,1,.61,1.69a3.86,3.86,0,0,1-.06.72c.6-.68,1.08-1.25,1.61-1.79s1.23-1.08,2.08-.62.72,1.27.61,2c-.2,1.34-.49,2.66-.73,4,0,.3-.2.68.16.87s.57-.13.71-.34c.66-1,1.28-.39,1.87,0a5.42,5.42,0,0,1,.71.8c.37.41.78.65,1.28.2a.83.83,0,0,0,.16-1.15,1.21,1.21,0,0,0-.16-.16c-.52-.58-1.1-1.12-1.67-1.67a2.57,2.57,0,0,1-.75-2.92,2.82,2.82,0,0,1,2.7-1.8c1.1-.08,2.24-.07,2.84,1.17.46-.33.87-.66,1.32-.94a1.41,1.41,0,0,1,1.62,0,1.37,1.37,0,0,1,.49,1.44c-.22,1.3-.48,2.59-.7,3.89-.06.33-.33.79.09,1s.65-.33.85-.64A12.9,12.9,0,0,0,314,25.23a1.47,1.47,0,0,1,1.74-1.14,1.74,1.74,0,0,1,.38.14c.41.2.2.48.16.73-.3,1.65-.63,3.29-.93,4.94-.07.4-.35,1,.07,1.18s.71-.32,1-.58a2.92,2.92,0,0,0,.29-.4c.37.13.45.37.33.54a5,5,0,0,1-2.68,2.19,1.12,1.12,0,0,1-1.44-.66,1.16,1.16,0,0,1-.06-.52,13.72,13.72,0,0,1,.15-1.56,14.84,14.84,0,0,1-2,2.26c-.53.41-1.1.76-1.77.4a1.4,1.4,0,0,1-.56-1.61c.2-1.45.5-2.88.74-4.32.05-.32.28-.77-.16-1s-.6.2-.78.45c-.71,1-1.25.07-1.8-.18-.3-.14-.46-.53-.71-.79s-.65-.64-1.1-.27a.82.82,0,0,0-.25,1.13.69.69,0,0,0,.16.18,16,16,0,0,0,1.38,1.35c1.47,1.33,1.71,3,.58,4.09-1.31,1.33-3.87,1.43-5,.13-.37-.44-.47-.07-.64.06-.73.52-1.45,1.26-2.4.66s-.52-1.6-.38-2.45.4-1.89.56-2.84c.06-.35.3-.87-.17-1s-.65.34-.87.65A11.07,11.07,0,0,0,296,31.7a1.46,1.46,0,0,1-1.64,1.24,1.29,1.29,0,0,1-.47-.15c-.48-.19-.26-.53-.21-.81.3-1.65.64-3.29.93-4.94.07-.4.46-1.06-.16-1.16s-.93.47-1.09,1a4.76,4.76,0,0,0-.07.75,6.46,6.46,0,0,1-3.53,4.82c-1.77,1-3.93,0-4.09-1.48A5.32,5.32,0,0,1,285.61,28.83Z" style="fill:#1f3470"/><path d="M338.58,31.3c-2.15,2.09-3.31,2.08-4.24,0-.51.4-1,.82-1.52,1.18a1.43,1.43,0,0,1-1.71.13,1.39,1.39,0,0,1-.49-1.54c.26-1.4.57-2.79.83-4.19.06-.36.35-.85-.12-1.07s-.6.29-.87.5-.3.51-.66.46c0-1.24,2.13-3,3.24-2.65a1.28,1.28,0,0,1,.86,1.59v0c-.26,1.47-.56,2.94-.84,4.41-.05.31-.24.7.09.88s.6-.22.86-.43a1.43,1.43,0,0,0,.39-.85,7,7,0,0,1,5.13-5.53c.44-.14.67-.32.72-.78a12.25,12.25,0,0,1,.27-1.47c.17-.65.39-1.31-.69-1.31-.14,0-.29-.06-.29-.24a.36.36,0,0,1,.32-.36c1-.18,2-.4,2.95-.53.72-.08.45.5.39.8-.43,2.21-.88,4.41-1.33,6.61-.24,1.18-.49,2.37-.72,3.56,0,.23-.12.53.13.68s.46-.09.65-.23a1.59,1.59,0,0,0,.64-1.27,6.23,6.23,0,0,1,3.2-5,3.07,3.07,0,0,1,4.28.77,2.85,2.85,0,0,1,.23.37c.47-.39.91-.8,1.4-1.16a1.64,1.64,0,0,1,1.89-.33c.71.41.68,1.1.58,1.8A7.55,7.55,0,0,1,354,27a10,10,0,0,1,2.1-2.48,1.6,1.6,0,0,1,1.82-.07c.46.28.44.8.36,1.26a1.06,1.06,0,0,1-1.11,1,1,1,0,0,1-.48-.15c-1-.59-1.41-.07-1.87.66A13.86,13.86,0,0,0,353,31.94a1.62,1.62,0,0,1-2.08.94l-.15-.07c-.28-.21-.11-.45-.07-.68.32-1.68.66-3.36.95-5,.06-.39.52-1.06-.17-1.15-.49-.06-1,.49-1.1,1.13v.63A6.65,6.65,0,0,1,347,32.48a2.91,2.91,0,0,1-4-.74l0,0c-.34-.42-.46-.25-.73,0a9.93,9.93,0,0,1-1.08.86C339.76,33.28,338.9,32.92,338.58,31.3Z" style="fill:#1f3470"/><path d="M320.68,26.81c.6-.7,1.1-1.34,1.66-1.92s1.13-1.06,2-.7.76,1.19.76,1.93v.43c.6-.65,1.14-1.31,1.75-1.9a1.52,1.52,0,0,1,1.86-.42c.67.34.67,1,.63,1.58a39.22,39.22,0,0,1-.75,4.31c-.06.33-.31.76.09,1s.59-.28.89-.45.33-.73.69-.41,0,.65-.28.89a19.17,19.17,0,0,1-1.53,1.33,1.48,1.48,0,0,1-1.8.2,1.44,1.44,0,0,1-.48-1.65c.22-1.15.5-2.29.71-3.45.07-.41.42-1-.15-1.22s-.67.42-.91.76a11.91,11.91,0,0,0-1.9,4.83,1.6,1.6,0,0,1-2.12.83l-.09,0c-.28-.21-.1-.45,0-.67.29-1.4.6-2.79.89-4.19a7.52,7.52,0,0,0,.15-.95c0-.2.07-.46-.15-.58s-.47.08-.63.27a8.23,8.23,0,0,0-1.61,2.87,16.67,16.67,0,0,0-.66,2.59c-.25,1.28-1.22.71-1.89.71-.86,0-.39-.66-.32-1,.29-1.69.62-3.37.94-5,.06-.3.26-.68-.13-.86s-.49.22-.73.35-.44.89-.83.5.18-.75.45-1.05a6.05,6.05,0,0,1,1.47-1.24,1.49,1.49,0,0,1,1.72-.07,1.47,1.47,0,0,1,.5,1.53A2.35,2.35,0,0,0,320.68,26.81Z" style="fill:#1f3470"/><path d="M285.61,28.83V31c-.18-.1-.14-.74-.58-.16a6.24,6.24,0,0,1-1.93,1.65,2.29,2.29,0,0,1-3.17-.67,2.24,2.24,0,0,1-.36-1.05,6.6,6.6,0,0,1,3.48-6.36,3.4,3.4,0,0,1,2.51-.12,1.25,1.25,0,0,1,.7,1.62,1.26,1.26,0,0,1-.77.73c-.58.16-.92-.19-1.21-.66s-.32-1-.92-.88-.63.64-.79,1.06A8.08,8.08,0,0,0,282,29.8c.12,1.31,1,1.72,2.09,1C284.75,30.23,285.68,29.93,285.61,28.83Z" style="fill:#203570"/><path d="M359.65,31.83a1.28,1.28,0,0,1-.5-1.74,1.24,1.24,0,0,1,.41-.44c.24-.21.27-.36,0-.59a2.41,2.41,0,0,1-.47-3.12A2.58,2.58,0,0,1,362,24.67a10.91,10.91,0,0,0,3.6.42c-.38.81-1,.41-1.35.72.83,2.65-.54,4.27-3.32,3.85-.64-.09-1,.13-1.15.65s.32.91.84,1c.88.12,1.78.13,2.67.24s1.83.25,2.07,1.35a2.27,2.27,0,0,1-1.43,2.33,5,5,0,0,1-3.45.34c-1-.23-1.87-.63-2.09-1.74S358.84,32.32,359.65,31.83Z" style="fill:#78b504"/><path d="M381.86,31.85c-.28.29.05,1-.58.88s-.3-.57-.3-.88V21.92c0-.31-.18-.81.37-.84s.41.55.42.87V25.8c.48,0,.63-.36.9-.55a3,3,0,0,1,4.28.52,3.12,3.12,0,0,1,.57,1.17,6.43,6.43,0,0,1,.17,2.43,3.65,3.65,0,0,1-2.11,3.23A3.2,3.2,0,0,1,381.86,31.85Z" style="fill:#7ab607"/><path d="M372.55,28.75c0,2.68-1.39,4.18-3.82,4.11a3.31,3.31,0,0,1-3.29-2.56A5.6,5.6,0,0,1,365.3,28a3.63,3.63,0,0,1,7.25.37C372.56,28.47,372.55,28.61,372.55,28.75Z" style="fill:#78b504"/><path d="M376.1,31.69c.85-2,1.63-3.88,2.42-5.74.12-.29.25-.59.38-.88a.49.49,0,0,1,.62-.29c.46.14.11.43,0,.59-.94,2.27-1.9,4.53-2.86,6.78-.13.29-.2.64-.64.62s-.47-.36-.6-.65c-.92-2.16-1.85-4.32-2.75-6.49-.11-.25-.5-.64-.08-.82s.66.23.82.62C374.31,27.46,375.17,29.48,376.1,31.69Z" style="fill:#78b505"/><path d="M389.52,26.48c.78-1.36,1.69-2,3-1.82.33.05.82.06.76.55s-.54.29-.86.25a2.5,2.5,0,0,0-2.87,2.09,1.56,1.56,0,0,0,0,.43v4c0,.3.23.81-.37.82s-.42-.48-.42-.79v-6.3c0-.31-.22-.84.32-.86s.35.51.41.83S389.51,26.21,389.52,26.48Z" style="fill:#7eb80f"/><path d="M334.63,20.74a1.6,1.6,0,0,1-1.39,1.61,1.08,1.08,0,0,1-1.2-1.18,1.6,1.6,0,0,1,1.49-1.63A1.16,1.16,0,0,1,334.63,20.74Z" style="fill:#223772"/><path d="M378.17,31.4a.72.72,0,0,1,.78.72.7.7,0,0,1-.62.74h-.1a.67.67,0,0,1-.76-.55.66.66,0,0,1,0-.14C377.45,31.7,377.76,31.49,378.17,31.4Z" style="fill:#7eb80e"/><path d="M356.72,32.23a.73.73,0,0,1-.8.66h0a.65.65,0,0,1-.66-.64.41.41,0,0,1,0-.16.66.66,0,0,1,.69-.62h0a.73.73,0,0,1,.73.73Z" style="fill:#78b500"/><path d="M265,6.23c.46,1.31-.64,1.15-1.51,1.27a11.71,11.71,0,0,0-1.19,23,8.08,8.08,0,0,0,1.9.28c.7,0,.81.28.81.89,0,1.92,0,1.92-1.9,1.71A14.4,14.4,0,0,1,264,4.7C265,4.68,265,4.68,265,6.23Z" style="fill:#fdfdfd"/><path d="M264.32,28.17a8.57,8.57,0,0,1-7.56-5,8.72,8.72,0,0,1,1-9.57c.49-.68.92-1,1.48-.12a.84.84,0,0,0,.23.23c.76.57.9,1,.22,1.93a6.31,6.31,0,0,0,8.68,8.85c1-.7,1.47-.61,2.19.22.84,1,.9.94-.14,1.71A9.43,9.43,0,0,1,264.32,28.17Z" style="fill:#fdfdfd"/><path d="M271.74,19.35a2,2,0,1,1-2-2.12A2.07,2.07,0,0,1,271.74,19.35Z" style="fill:#fcfdfb"/><path d="M266.77,14.4a2,2,0,0,1-2,2h0a2,2,0,0,1-2.05-2,2.1,2.1,0,0,1,2.12-2.08h0A2.08,2.08,0,0,1,266.77,14.4Z" style="fill:#fcfdfb"/><path d="M290.81,27.16a8.44,8.44,0,0,1-1.24,4.12c-.26.4-.58.81-1.11.69s-.55-.7-.57-1.14a9,9,0,0,1,1-4.85c.28-.53.64-1.2,1.33-1s.53.91.59,1.45C290.83,26.57,290.81,26.75,290.81,27.16Z" style="fill:#fcfcfc"/><path d="M345,29.8a8.13,8.13,0,0,1,1.18-4.1c.26-.42.6-.9,1.18-.77s.53.72.56,1.15a8.79,8.79,0,0,1-1,4.85c-.28.53-.64,1.19-1.34,1S345,31,345,30.47C345,30.36,345,30.23,345,29.8Z" style="fill:#fbfbfc"/><path d="M336.78,29.57a6.39,6.39,0,0,1,1.21-3.7c.31-.43.77-.87,1.34-.62s.32.81.27,1.24A9,9,0,0,1,338.51,30c-.27.47-.49,1.22-1.15,1.07S336.84,30.12,336.78,29.57Z" style="fill:#fafbfb"/><path d="M325,10a3.07,3.07,0,0,0-2.95.46c-.22.16-.32.49-.69.5-.05-.48,0-1-.76-.94s-.51.63-.51,1v8.66c0,.45,0,.82.64.84s.74-.32.73-.86V16.62a3.11,3.11,0,0,0,2.14,1,3.33,3.33,0,0,0,3.51-2.82C327.53,12.61,326.67,10.61,325,10Zm.66,4.83a2.16,2.16,0,0,1-2.38,1.69,2.07,2.07,0,0,1-1.8-2.16v-.53h0a4.18,4.18,0,0,1,.09-1.06A2.15,2.15,0,0,1,323.51,11a2,2,0,0,1,2.1,1.49,3.66,3.66,0,0,1,0,2.4Z" style="fill:#203570"/><path d="M345.88,7.34c0-.52,0-.87-.71-.86s-.65.36-.65.83V10.9a3.15,3.15,0,0,0-2.15-1,3.27,3.27,0,0,0-3.27,2.38,4.31,4.31,0,0,0,1.25,4.85c1.26.86,2.75.66,4.36-.71-.17.8.1,1.17.81,1s.34-.76.35-1.13C345.9,13.32,345.87,10.33,345.88,7.34ZM344.43,15a2,2,0,0,1-2.28,1.68,2,2,0,0,1-1.58-1.3,3.7,3.7,0,0,1-.08-2.9,2.06,2.06,0,0,1,4,.61v.74h0A7.65,7.65,0,0,1,344.43,15Z" style="fill:#203570"/><path d="M286.76,7.12c-.49-.08-1-.11-1.44-.16s-1.11.11-1.66.13-.77.29-.77.86v8.77c0,.56.17.75.74.74s.65-.24.64-.72V14.28c0-.66.11-1,.88-.89a4.48,4.48,0,0,0,2.31-.35,3.13,3.13,0,0,0,1.86-3.4A2.84,2.84,0,0,0,286.76,7.12Zm.7,4.41a3.14,3.14,0,0,1-2.79.75c-.41,0-.41-.32-.41-.62a23,23,0,0,0,0-2.35c-.11-1,.3-1.37,1.1-1.21,1.1,0,2,.17,2.43,1.13a2,2,0,0,1-.33,2.3Z" style="fill:#203570"/><path d="M331.6,9.88a3.63,3.63,0,0,0-3.75,3.49,3.39,3.39,0,0,0,0,.45A3.5,3.5,0,0,0,331,17.63h.41a3.6,3.6,0,0,0,3.79-3.41,3.68,3.68,0,0,0,0-.47A3.55,3.55,0,0,0,332,9.89Zm1.83,5.49a2,2,0,0,1-1.84,1.24,2,2,0,0,1-2-1.23,3.07,3.07,0,0,1-.36-1.65,3,3,0,0,1,.55-1.91,2,2,0,0,1,2.74-.68,2,2,0,0,1,.74.77A3.48,3.48,0,0,1,333.43,15.37Z" style="fill:#203570"/><path d="M350.83,9.88a3.64,3.64,0,0,0-3.66,3.62,2.42,2.42,0,0,0,0,.38,3.49,3.49,0,0,0,3.22,3.74h.44a3.59,3.59,0,0,0,3.7-3.47,4.61,4.61,0,0,0,0-.53,3.5,3.5,0,0,0-3.23-3.74A3.68,3.68,0,0,0,350.83,9.88Zm1.75,5.79a2,2,0,0,1-3.49,0,3.8,3.8,0,0,1,0-3.75,2.07,2.07,0,0,1,2.86-.66,2,2,0,0,1,.7.71,3.47,3.47,0,0,1,.49,1.83A3.26,3.26,0,0,1,352.58,15.67Z" style="fill:#203570"/><path d="M295.56,14.68h0V12.76a2.59,2.59,0,0,0-1.4-2.53,4.2,4.2,0,0,0-3.63.17c-.38.17-.24.43-.16.71s.32.27.59.17a4.79,4.79,0,0,1,1-.29c1.2-.17,1.91.22,2.12,1.11.1.42.07.67-.47.67a6.13,6.13,0,0,0-2,.34,2.47,2.47,0,0,0-1.93,2.05,2,2,0,0,0,1,2.21,2.8,2.8,0,0,0,2.95-.13c.28-.17.59-.75.84.09.1.32.58.17.88.13s.22-.38.23-.6C295.57,16.1,295.56,15.39,295.56,14.68Zm-1.34-.07a1.9,1.9,0,0,1-1.69,2,1.23,1.23,0,0,1-1.29-.57,1.29,1.29,0,0,1,0-1.41,3,3,0,0,1,2.7-.93C294.43,13.91,294.1,14.34,294.22,14.61Z" style="fill:#203570"/><path d="M305.39,11.11c.39.08.58-.11.59-.53s-.26-.56-.62-.5c-1.06.18-1.52-.2-1.33-1.3,0-.25.17-.68-.18-.74a1.57,1.57,0,0,0-1,.24c-.32.18-.18.59-.18.89,0,.54,0,1-.75.91-.35,0-.41.19-.4.47s0,.61.45.56c.7-.08.73.33.7.85s0,1.06,0,1.6h0c0,.71-.06,1.43,0,2.13a2,2,0,0,0,2.05,1.94,2.26,2.26,0,0,0,.51-.08c.4-.07.65-.19.62-.68s-.25-.47-.63-.44c-.82.08-1.17-.39-1.19-1.15s0-1.79,0-2.67C303.94,11.57,304.1,10.85,305.39,11.11Z" style="fill:#203570"/><path d="M314.75,11.23c.41.08.66.15.78-.36s0-.6-.41-.69a4.34,4.34,0,0,0-4.3.94,4.1,4.1,0,0,0-.76,4.39c.55,1.33,1.8,2.09,3.72,2.1a5.84,5.84,0,0,0,1-.16c.42-.1.89-.06.76-.75s-.63-.35-1-.29a2.67,2.67,0,0,1-3.35-1.74,2.61,2.61,0,0,1,0-1.7C311.63,11.47,312.88,10.83,314.75,11.23Z" style="fill:#203570"/><path d="M301,10.33c0-.46-.31-.49-.66-.45-.78.09-1.24.63-1.83,1.37,0-.67.14-1.24-.7-1.2s-.53.6-.53,1v5.66c0,.52.11.77.7.77s.7-.28.69-.79V13.38a1.94,1.94,0,0,1,1.71-2.14h.16C301.24,11.08,301,10.67,301,10.33Z" style="fill:#203570"/><path d="M308.46,13.85v-3.2c0-.49-.2-.59-.64-.58s-.73,0-.73.6v6.2c0,.49.2.59.64.58s.75,0,.73-.61C308.44,15.85,308.46,14.85,308.46,13.85Z" style="fill:#203570"/><path d="M318.16,10.79c0-.43,0-.75-.6-.73s-.78.11-.76.71c.05,1,0,2,0,3v3c0,.56.15.73.72.73s.64-.23.63-.7C318.11,14.78,318.12,12.78,318.16,10.79Z" style="fill:#203570"/><path d="M317.56,7.12a.77.77,0,0,0-.87.66.54.54,0,0,0,0,.18.82.82,0,0,0,.87.86.81.81,0,0,0,.8-.81V7.9a.74.74,0,0,0-.68-.78Z" style="fill:#203570"/><path d="M307.76,7.12a.77.77,0,0,0-.79.76.13.13,0,0,0,0,.06.78.78,0,0,0,.69.86h.17c.55,0,.83-.33.83-.92a.77.77,0,0,0-.77-.77Z" style="fill:#203570"/><path d="M361.51,35.16a3.53,3.53,0,0,1-1.37-.28c-.71-.3-1.29-.77-1.09-1.61A1.58,1.58,0,0,1,360.78,32a19.93,19.93,0,0,1,2.56.21c.53.07,1.08.22,1.23.85a1.42,1.42,0,0,1-.73,1.52A3.92,3.92,0,0,1,361.51,35.16Z" style="fill:#fcfdfb"/><path d="M363.78,27.17a2.13,2.13,0,1,1-2.31-1.93h.12a1.91,1.91,0,0,1,2.17,1.61C363.77,27,363.78,27.06,363.78,27.17Z" style="fill:#fdfdfc"/><path d="M381.78,28.8c.06-1-.28-2.13.88-2.95a2.49,2.49,0,0,1,3.52.24,2.56,2.56,0,0,1,.58,1.19,5.42,5.42,0,0,1-.16,3.26,2.63,2.63,0,0,1-2.69,1.69,2,2,0,0,1-2.14-1.85,1.7,1.7,0,0,1,0-.39Z" style="fill:#fdfefd"/><path d="M371.78,28.88c-.07,2.46-1.58,3.83-3.64,3.29-1.58-.42-2.36-2.09-2-4.32A2.71,2.71,0,0,1,369,25.27h.15C370.82,25.35,371.84,26.72,371.78,28.88Z" style="fill:#fefefd"/><path d="M55.51,13.28a34.28,34.28,0,0,0,4.18,0c2.06-.26,2.58.8,2.6,2.52A13,13,0,0,1,46.66,28.56C38,27,33.18,19.12,35,11.33,37,3.06,45.49-1.27,53.86,1.4a7.87,7.87,0,0,1,2.76,1.38c.7.6,2.44,1,1.24,2.52-.94,1.21-1.76,2-3.57.81-4-2.64-10-1.72-12.85,1.63a10.36,10.36,0,0,0,0,13.74,10.21,10.21,0,0,0,13.06,1.7,7.2,7.2,0,0,0,2-1.66c.79-1.11,1.92-2.37,1.2-3.75-.58-1.11-2.05-.44-3.12-.52a24.11,24.11,0,0,0-3.4,0c-1.44.09-2.27-.2-2.25-1.94s.6-2.15,2.16-2S54,13.28,55.51,13.28Z" style="fill:#4385f3"/><path d="M27.38,5.92c0,4.76.24,9.53-.11,14.26-.61,8.36-6.05,13.43-12.84,17.42-2.23-1.29-1-3.17-.86-4.87,1.32-2.16,1.32-2.16,0-4.3.11-1,.8-1.21,1.63-1.28.56-.13,1.11.31,1.71.05-1-.87-2.64-.49-3.23-1.92.24-1.5,1.44-1.24,2.45-1.33a17.42,17.42,0,0,1,2.05.39c-1.27-1.38-3.37-.67-4.57-2a2.68,2.68,0,0,1,0-2.28c.47-.78,1.35-1,2.06-1.51a3.66,3.66,0,0,0,.06-6.25c-.82-.59-2-.79-2.3-2A7,7,0,0,1,13.4,7a1.81,1.81,0,0,1,.49-.73c2.17-.93,4.45-.44,6.68-.44,2,0,4-.1,6-.12A1.2,1.2,0,0,1,27.38,5.92Z" style="fill:#599c32"/><path d="M13.92,20v2.44c-1.16,1.3-3.07.84-4.83,2.19,2.11-.81,3.74-1.35,5.48-1.15.78.08,1.82-.17,2,1.07-.88.41-2.42-.76-2.68,1.11-.77,1-2.14.86-3.16,1.65,1.71.11,3.41-1.85,4.81.33-.85.07-1.71.13-1.76,1.28-2.25,1.57,0,2.36.61,3.42-.61,1.77-.94,3.52,0,5.27-.55.77-1.06.21-1.54-.08C5.43,33,.46,26.93.24,17.84A94.52,94.52,0,0,1,.1,6.55c4.34-1.48,8.74-.91,13.13-.37.3,0,.48.47.64.77l-.1,3.8a3.94,3.94,0,0,1-1.44,1.05c-3.24,2-3.28,5-.09,7.06C12.81,19.22,13.55,19.33,13.92,20Z" style="fill:#7ab600"/><path d="M.34,5.44C.17.48.43.21,5.48.21H22.36c4.48,0,5.25.83,5.06,5.29a2.3,2.3,0,0,1-.49.15C18.21,6.12,9.49,6,.77,5.72.62,5.72.48,5.54.34,5.44Z" style="fill:#dedfde"/><path d="M127.13,15c0,3.72-.06,7.43,0,11.14,0,1.59-.52,2.05-2.1,2.08s-2-.57-2-2.1q.1-11.26,0-22.54c0-1.58.47-2.07,2.06-2.09s2.1.58,2.06,2.12C127.07,7.39,127.13,11.2,127.13,15Z" style="fill:#39aa57"/><path d="M.34,5.44l27.08.06a.67.67,0,0,1,0,.42l-.47,0c-3.38.45-6.78.08-10.16.2-.94,0-1.92-.23-2.83.24,0,.19,0,.37-.05.55-3.35-1.25-6.82,0-10.22-.5a25.09,25.09,0,0,0-3.36,0,.63.63,0,0,1,.06-1Z" style="fill:#529e57"/><path d="M13.92,20c-3.14-.62-4.69-2.11-4.73-4.55s1.31-3.89,4.58-4.69c2.37.64,4.37,1.65,4.39,4.53S16.43,19.4,13.92,20Z" style="fill:#f8f9f8"/><path d="M16.56,24.54c-2.43-1-4.72-.37-7,.62-.51.22-1.09.84-1.55,0S8.4,24,9,23.71a12.45,12.45,0,0,1,5-1.28,12.53,12.53,0,0,1,4.51,1.08c.68.32,1.66.64,1.09,1.63s-1.15-.11-1.73-.22C17.37,24.83,17,24.67,16.56,24.54Z" style="fill:#eef4ee"/><path d="M15.53,27.63c-1.68-.86-3.18-.1-4.68.57-.5.22-1,.51-1.36-.08-.49-.76.18-1.09.68-1.38a9.43,9.43,0,0,1,3.71-1.09c1.09.29,2.2.5,3.26.88.49.17,1.33.39,1.07,1.18-.34,1-1.06.5-1.68.22A8.25,8.25,0,0,0,15.53,27.63Z" style="fill:#e1eee1"/><path d="M14.38,32.33a2.46,2.46,0,0,1-2.69-1.86c-.52-1.58,1.2-1.23,2.08-1.56a2.2,2.2,0,0,0,.64.34c.63.12,1.52-.21,1.8.56s-.67,1-1,1.57A8.13,8.13,0,0,1,14.38,32.33Z" style="fill:#f5f8f5"/><path d="M13.92,6.4c2.47-1,5.06-.3,7.58-.46,1.8-.11,3.61,0,5.41,0-2.82,1-5.73.37-8.59.46C16.85,6.46,15.39,6.41,13.92,6.4Z" style="fill:#27762e"/><path d="M120.47,13.26c0-1.52-.42-2.55-2-2-2.09.69-3.88,0-5.8-.52a6.18,6.18,0,0,0-3.09.19,9.17,9.17,0,0,0-5.9,12.21c1.89,5.05,6.91,6.8,12.65,4.26.41,2.53-.28,4.6-2.4,5.39s-4.55.68-6-1.68c-1.17-1.9-2.27-.35-3.25.09-1.46.67-.42,1.61.1,2.28a9.39,9.39,0,0,0,10.57,2.88c2.8-1,5-4.49,5.07-8.06C120.46,23.27,120.4,18.26,120.47,13.26Zm-8.69,11.9c-2.53-.12-4.8-2.77-4.75-5.53,0-2.94,2.47-5.54,5.09-5.47s4.87,2.68,4.79,5.67S114.51,25.29,111.78,25.16Z" style="fill:#4385f3"/><path d="M92.37,10.62c-5.3-.1-9.6,4.46-9,9-.51,5.63,4.36,9.13,9.08,9.1a9,9,0,1,0-.11-18.06Zm0,14.54c-2.83.08-5.13-2.46-5.1-5.65a5.22,5.22,0,0,1,5.12-5.36,5.67,5.67,0,0,1,5.14,5.51A5.73,5.73,0,0,1,92.38,25.16Z" style="fill:#fabc07"/><path d="M144.61,24.26c-.89-.7-1.81-2.1-3.45-.56a4.57,4.57,0,0,1-6.36.42c-1.22-1-1.63-1.66.3-2.39,3.07-1.16,6-2.62,9.1-3.79,1.27-.49,1.26-1,.79-2.09a8.43,8.43,0,0,0-9.51-5.06c-3.92.84-6.5,4.3-6.52,8.77,0,4,1.71,6.9,5,8.33,3.43,1.49,7.56.92,9.9-1.5C144.35,25.86,146,25.29,144.61,24.26ZM133,17.66a5,5,0,0,1,4.41-3.6,3.54,3.54,0,0,1,2.43.8c.72.57,1.1,1.12-.17,1.6-1.84.68-3.66,1.42-5.45,2.24C132.89,19.32,132.66,18.83,133,17.66Z" style="fill:#e94437"/><path d="M72.77,10.64a8.82,8.82,0,0,0-9.4,8.86,9.12,9.12,0,0,0,18.24.29A8.81,8.81,0,0,0,72.77,10.64Zm-.29,14.53c-2.67,0-5.33-2.86-5.28-5.72a6,6,0,0,1,5.42-5.31c2.66,0,5,2.69,5,5.58A5.41,5.41,0,0,1,72.48,25.17Z" style="fill:#e94436"/><path d="M38.35,36.43a3.45,3.45,0,0,0,1.72.48c1,0,1.56-.52,1.56-1.27s-.4-1.09-1.4-1.47c-1.22-.43-2-1.06-2-2.11a2.14,2.14,0,0,1,2.41-2,3.46,3.46,0,0,1,1.64.36l-.26.79a2.89,2.89,0,0,0-1.41-.36c-1,0-1.41.61-1.41,1.12,0,.69.46,1,1.48,1.43,1.26.49,1.9,1.09,1.9,2.19s-.85,2.14-2.6,2.14a3.8,3.8,0,0,1-1.9-.48Z" style="fill:#949494"/><path d="M45,30.76a.6.6,0,0,1-1.2,0,.59.59,0,0,1,.6-.61A.57.57,0,0,1,45,30.76ZM43.89,37.6V32.26h1V37.6Z" style="fill:#949494"/><path d="M47.64,30.72v1.54H49V33H47.64v2.88c0,.66.19,1,.73,1a2.36,2.36,0,0,0,.56-.06l0,.72a2.24,2.24,0,0,1-.86.14,1.38,1.38,0,0,1-1-.41,2,2,0,0,1-.37-1.39V33h-.83v-.74h.83V31Z" style="fill:#949494"/><path d="M50.59,35.1A1.72,1.72,0,0,0,52.43,37a3.38,3.38,0,0,0,1.47-.28l.17.7a4.42,4.42,0,0,1-1.78.33A2.48,2.48,0,0,1,49.67,35a2.59,2.59,0,0,1,2.5-2.88,2.26,2.26,0,0,1,2.21,2.51,4,4,0,0,1,0,.45Zm2.85-.69a1.38,1.38,0,0,0-1.35-1.58,1.6,1.6,0,0,0-1.48,1.58Z" style="fill:#949494"/><path d="M57.82,36.43a3.45,3.45,0,0,0,1.72.48c1,0,1.55-.52,1.55-1.27s-.39-1.09-1.4-1.47c-1.21-.43-2-1.06-2-2.11a2.14,2.14,0,0,1,2.41-2,3.46,3.46,0,0,1,1.64.36l-.27.79a2.85,2.85,0,0,0-1.41-.36c-1,0-1.4.61-1.4,1.12,0,.69.45,1,1.48,1.43,1.26.49,1.9,1.09,1.9,2.19s-.85,2.14-2.61,2.14a3.76,3.76,0,0,1-1.89-.48Z" style="fill:#949494"/><path d="M64,35.1A1.71,1.71,0,0,0,65.79,37a3.4,3.4,0,0,0,1.48-.28l.17.7a4.42,4.42,0,0,1-1.78.33A2.48,2.48,0,0,1,63,35a2.58,2.58,0,0,1,2.5-2.88,2.26,2.26,0,0,1,2.21,2.51,3.52,3.52,0,0,1,0,.45Zm2.85-.69a1.39,1.39,0,0,0-1.35-1.58A1.62,1.62,0,0,0,64,34.41Z" style="fill:#949494"/><path d="M73.55,32.26c0,.38,0,.81,0,1.46v3.1a3.06,3.06,0,0,1-.76,2.44,2.81,2.81,0,0,1-1.94.64A3.45,3.45,0,0,1,69,39.46l.25-.74a3,3,0,0,0,1.56.42c1,0,1.72-.52,1.72-1.86v-.6h0a1.9,1.9,0,0,1-1.7.89A2.38,2.38,0,0,1,68.56,35,2.56,2.56,0,0,1,71,32.14a1.77,1.77,0,0,1,1.66.92h0l0-.8Zm-1,2.1a1.56,1.56,0,0,0-.05-.44,1.4,1.4,0,0,0-1.36-1c-.92,0-1.59.78-1.59,2,0,1,.53,1.92,1.58,1.92a1.42,1.42,0,0,0,1.35-1,1.81,1.81,0,0,0,.07-.52Z" style="fill:#949494"/><path d="M79.58,36.14c0,.55,0,1,0,1.46h-.86l-.05-.87h0a2,2,0,0,1-1.77,1c-.84,0-1.84-.47-1.84-2.34V32.26h1v3c0,1,.31,1.7,1.19,1.7A1.41,1.41,0,0,0,78.52,36a1.31,1.31,0,0,0,.09-.5V32.26h1Z" style="fill:#949494"/><path d="M81.19,33.92c0-.63,0-1.17,0-1.66H82l0,1.05h0a1.61,1.61,0,0,1,1.48-1.17,1.2,1.2,0,0,1,.28,0v.91a1.61,1.61,0,0,0-.33,0,1.37,1.37,0,0,0-1.31,1.25,2.89,2.89,0,0,0,0,.45V37.6h-1Z" style="fill:#949494"/><path d="M89.52,34.88a2.61,2.61,0,0,1-2.66,2.84A2.54,2.54,0,0,1,84.3,35,2.6,2.6,0,0,1,87,32.14,2.53,2.53,0,0,1,89.52,34.88Zm-4.24.06c0,1.17.68,2.05,1.62,2.05s1.63-.87,1.63-2.07c0-.91-.46-2.06-1.6-2.06S85.28,33.92,85.28,34.94Z" style="fill:#949494"/></svg>